<svg width="24" height="25" viewBox="0 0 24 25" fill="none" xmlns="http://www.w3.org/2000/svg">
<g clip-path="url(#clip0_340_22300)">
<path fill-rule="evenodd" clip-rule="evenodd" d="M12 0.5C18.6271 0.5 24 5.87288 24 12.5C24 19.1271 18.6269 24.5 12 24.5C5.37312 24.5 0 19.1286 0 12.5C0 5.87144 5.37216 0.5 12 0.5Z" fill="#409092"/>
<path fill-rule="evenodd" clip-rule="evenodd" d="M6.92945 6.56836L4.01199 12.6965C4.00089 12.7193 3.99737 12.745 4.00195 12.77C4.00653 12.7949 4.01897 12.8177 4.03745 12.8351L11.9168 20.3854C11.9392 20.4069 11.969 20.4188 12 20.4188C12.031 20.4188 12.0608 20.4069 12.0832 20.3854L19.9626 12.8355C19.981 12.8182 19.9935 12.7954 19.998 12.7704C20.0026 12.7455 19.9991 12.7197 19.988 12.697L17.0705 6.56883C17.0611 6.54825 17.046 6.53082 17.0269 6.51861C17.0079 6.50641 16.9857 6.49995 16.9631 6.50001H7.03787C7.01513 6.49973 6.99279 6.50603 6.97356 6.51816C6.95432 6.53029 6.939 6.54772 6.92945 6.56836Z" fill="white"/>
<path fill-rule="evenodd" clip-rule="evenodd" d="M13.0122 13.3259C12.9556 13.3301 12.6634 13.3475 12.0114 13.3475C11.4929 13.3475 11.1247 13.332 10.9956 13.3259C8.99168 13.2377 7.49595 12.8889 7.49595 12.4712C7.49595 12.0536 8.99168 11.7052 10.9956 11.6156V12.9784C11.1266 12.9879 11.5019 13.01 12.0204 13.01C12.6426 13.01 12.9542 12.9841 13.0103 12.9789V11.6166C15.01 11.7057 16.5024 12.0545 16.5024 12.4712C16.5024 12.8879 15.0104 13.2368 13.0103 13.3254L13.0122 13.3259ZM13.0122 11.4756V10.2561H15.8029V8.39648H8.20493V10.2561H10.9951V11.4752C8.72723 11.5793 7.02173 12.0286 7.02173 12.5669C7.02173 13.1052 8.72723 13.554 10.9951 13.6587V17.5665H13.0117V13.6572C15.2744 13.5531 16.9771 13.1043 16.9771 12.5664C16.9771 12.0286 15.2758 11.5798 13.0117 11.4752L13.0122 11.4756Z" fill="#409092"/>
</g>
<defs>
<clipPath id="clip0_340_22300">
<rect width="24" height="24" fill="white" transform="translate(0 0.5)"/>
</clipPath>
</defs>
</svg>
