<svg width="24" height="24" viewBox="0 0 24 24" fill="none" xmlns="http://www.w3.org/2000/svg">
<path d="M17.7778 10.3889L17.7222 10.2778H15.6667L11.4444 22H13.7778L14.8889 18.8889H18.5556L19.6667 22H22L17.7778 10.3889ZM17.6667 16.5H15.7222L16.6667 13.8333L17.6667 16.5ZM11.6111 16.7778L12.4444 14.5556L12.3333 14.5C11.6111 14 10.8889 13.4444 10.2778 12.8333C11.7778 10.9444 12.8889 8.83333 13.6111 6.44444H15.5V4.05556H9.77778V2H7.61111V4.05556H2V6.44444H11.2778C10.6667 8.16667 9.83333 9.72222 8.72222 11.1111C8.05556 10.2222 7.44444 9.27778 6.94444 8.27778L6.88889 8.22222H4.5L4.61111 8.44444C5.27778 10.0556 6.16667 11.5 7.22222 12.8333C5.77778 14.2222 4.16667 15.2222 2.38889 15.8333L2.22222 15.8889L2.77778 18.1667L2.94444 18.1111C5.11111 17.3889 7.05556 16.1667 8.72222 14.5C9.55556 15.3333 10.5 16.0556 11.5 16.6667L11.6111 16.7778Z" fill="var(--jp-primary-color)"/>
</svg>
