<svg width="154" height="44" viewBox="0 0 154 44" fill="none" xmlns="http://www.w3.org/2000/svg">
<rect width="154" height="44" rx="8" fill="#121212"/>
<path d="M50.7 8.86H53.3C54.45 8.86 55.32 9.18 55.92 9.83C56.48 10.43 56.76 11.3 56.76 12.43C56.76 13.55 56.47 14.42 55.9 15.04C55.3 15.68 54.43 16 53.28 16H50.7V8.86ZM51.79 9.79V15.07H53.08C53.98 15.07 54.65 14.85 55.07 14.42C55.48 13.99 55.69 13.33 55.69 12.43C55.69 11.51 55.48 10.85 55.08 10.43C54.66 10 54 9.79 53.1 9.79H51.79ZM60.148 10.69C60.928 10.69 61.558 10.95 62.028 11.47C62.488 11.98 62.728 12.63 62.728 13.42C62.728 14.2 62.498 14.85 62.038 15.35C61.558 15.87 60.928 16.14 60.148 16.14C59.368 16.14 58.738 15.87 58.258 15.35C57.798 14.85 57.568 14.2 57.568 13.42C57.568 12.63 57.798 11.98 58.268 11.47C58.738 10.95 59.368 10.69 60.148 10.69ZM60.148 11.56C59.658 11.56 59.278 11.75 59.008 12.14C58.768 12.47 58.658 12.9 58.658 13.42C58.658 13.94 58.768 14.36 59.008 14.69C59.278 15.07 59.658 15.27 60.148 15.27C60.638 15.27 61.018 15.07 61.298 14.69C61.538 14.35 61.658 13.93 61.658 13.42C61.658 12.9 61.538 12.47 61.298 12.14C61.018 11.75 60.638 11.56 60.148 11.56ZM63.1848 10.83H64.3548L65.4448 14.74L66.5048 10.83H67.4848L68.5448 14.74L69.6348 10.83H70.8048L69.0548 16H68.0748L66.9948 12.13L65.9148 16H64.9348L63.1848 10.83ZM74.0794 10.69C75.3594 10.69 76.0094 11.39 76.0094 12.81V16H74.9494V12.9C74.9494 12.02 74.5394 11.58 73.7394 11.58C73.4394 11.58 73.1694 11.68 72.9494 11.9C72.7094 12.14 72.5594 12.47 72.5194 12.89V16H71.4594V10.83H72.5194V11.47C72.7194 11.21 72.9494 11.02 73.2094 10.89C73.4694 10.75 73.7594 10.69 74.0794 10.69ZM77.3411 8.72H78.4011V16H77.3411V8.72ZM82.1011 10.69C82.8811 10.69 83.5111 10.95 83.9811 11.47C84.4411 11.98 84.6811 12.63 84.6811 13.42C84.6811 14.2 84.4511 14.85 83.9911 15.35C83.5111 15.87 82.8811 16.14 82.1011 16.14C81.3211 16.14 80.6911 15.87 80.2111 15.35C79.7511 14.85 79.5211 14.2 79.5211 13.42C79.5211 12.63 79.7511 11.98 80.2211 11.47C80.6911 10.95 81.3211 10.69 82.1011 10.69ZM82.1011 11.56C81.6111 11.56 81.2311 11.75 80.9611 12.14C80.7211 12.47 80.6111 12.9 80.6111 13.42C80.6111 13.94 80.7211 14.36 80.9611 14.69C81.2311 15.07 81.6111 15.27 82.1011 15.27C82.5911 15.27 82.9711 15.07 83.2511 14.69C83.4911 14.35 83.6111 13.93 83.6111 13.42C83.6111 12.9 83.4911 12.47 83.2511 12.14C82.9711 11.75 82.5911 11.56 82.1011 11.56ZM88.0179 10.69C88.7779 10.69 89.3379 10.88 89.6979 11.26C90.0079 11.59 90.1679 12.07 90.1679 12.7V16H89.1879V15.27C88.9879 15.53 88.7379 15.74 88.4379 15.89C88.0979 16.05 87.6979 16.14 87.2379 16.14C86.6979 16.14 86.2779 16 85.9779 15.73C85.6479 15.46 85.4879 15.11 85.4879 14.68C85.4879 14.1 85.7179 13.65 86.1779 13.34C86.5979 13.04 87.1979 12.89 87.9579 12.87L89.1179 12.84V12.63C89.1179 11.91 88.7279 11.55 87.9479 11.55C87.6179 11.55 87.3479 11.61 87.1479 11.73C86.9079 11.87 86.7579 12.08 86.6979 12.37L85.6479 12.28C85.7579 11.72 86.0379 11.3 86.4779 11.04C86.8579 10.8 87.3779 10.69 88.0179 10.69ZM89.1179 13.61L88.0279 13.64C87.0579 13.66 86.5779 14 86.5779 14.64C86.5779 14.84 86.6579 15 86.8279 15.13C86.9879 15.26 87.2079 15.33 87.4779 15.33C87.9279 15.33 88.3079 15.19 88.6279 14.92C88.9479 14.65 89.1179 14.31 89.1179 13.91V13.61ZM95.1013 8.72H96.1613V16H95.1713V15.38C94.8113 15.88 94.2713 16.14 93.5713 16.14C92.8113 16.14 92.2113 15.87 91.7813 15.33C91.3813 14.83 91.1813 14.18 91.1813 13.39C91.1813 12.63 91.3713 12 91.7713 11.5C92.1913 10.96 92.7813 10.69 93.5213 10.69C94.1513 10.69 94.6813 10.99 95.1013 11.6V8.72ZM93.7613 11.55C93.2413 11.55 92.8513 11.72 92.6013 12.08C92.3813 12.38 92.2713 12.82 92.2713 13.39C92.2713 13.96 92.3713 14.4 92.5813 14.72C92.8213 15.09 93.2113 15.28 93.7313 15.28C94.1913 15.28 94.5413 15.09 94.8013 14.73C95.0213 14.4 95.1313 13.98 95.1313 13.46V13.37C95.1313 12.81 94.9913 12.36 94.7313 12.02C94.4713 11.7 94.1513 11.55 93.7613 11.55ZM102.728 8.86H103.808V9.76H102.878C102.708 9.76 102.578 9.8 102.498 9.89C102.418 9.97 102.378 10.11 102.378 10.3V10.83H103.738V11.7H102.378V16H101.328V11.7H100.138V10.83H101.328V10.27C101.328 9.83 101.448 9.48 101.688 9.24C101.928 8.98 102.268 8.86 102.728 8.86ZM106.857 10.69C107.117 10.69 107.347 10.73 107.527 10.82V11.88C107.267 11.8 107.017 11.77 106.777 11.77C106.457 11.77 106.167 11.9 105.917 12.16C105.647 12.44 105.517 12.81 105.517 13.26V16H104.457V10.83H105.517V11.61C105.647 11.33 105.817 11.12 106.017 10.98C106.257 10.78 106.537 10.69 106.857 10.69ZM110.558 10.69C111.338 10.69 111.968 10.95 112.438 11.47C112.898 11.98 113.138 12.63 113.138 13.42C113.138 14.2 112.908 14.85 112.448 15.35C111.968 15.87 111.338 16.14 110.558 16.14C109.778 16.14 109.148 15.87 108.668 15.35C108.208 14.85 107.978 14.2 107.978 13.42C107.978 12.63 108.208 11.98 108.678 11.47C109.148 10.95 109.778 10.69 110.558 10.69ZM110.558 11.56C110.068 11.56 109.688 11.75 109.418 12.14C109.178 12.47 109.068 12.9 109.068 13.42C109.068 13.94 109.178 14.36 109.418 14.69C109.688 15.07 110.068 15.27 110.558 15.27C111.048 15.27 111.428 15.07 111.708 14.69C111.948 14.35 112.068 13.93 112.068 13.42C112.068 12.9 111.948 12.47 111.708 12.14C111.428 11.75 111.048 11.56 110.558 11.56ZM116.625 10.69C117.385 10.69 117.935 10.98 118.255 11.56C118.485 11.24 118.735 11.01 118.995 10.88C119.235 10.75 119.525 10.69 119.875 10.69C120.405 10.69 120.845 10.86 121.195 11.22C121.535 11.57 121.715 12.03 121.715 12.61V16H120.655V12.79C120.655 12.37 120.565 12.06 120.385 11.87C120.205 11.67 119.905 11.58 119.505 11.58C119.205 11.58 118.965 11.69 118.765 11.91C118.565 12.13 118.465 12.44 118.465 12.82V16H117.405V12.8C117.405 11.98 117.045 11.58 116.345 11.58C116.005 11.58 115.725 11.71 115.525 11.97C115.305 12.22 115.205 12.53 115.205 12.89V16H114.145V10.83H115.205V11.4C115.625 10.92 116.105 10.69 116.625 10.69Z" fill="#EDEDF1"/>
<path d="M53.85 23.004H55.586L59.436 33H57.798L56.86 30.424H52.562L51.624 33H50L53.85 23.004ZM53.024 29.164H56.398L54.746 24.642H54.69L53.024 29.164ZM63.9416 25.566C65.7336 25.566 66.6436 26.546 66.6436 28.534V33H65.1596V28.66C65.1596 27.428 64.5856 26.812 63.4656 26.812C63.0456 26.812 62.6676 26.952 62.3596 27.26C62.0236 27.596 61.8136 28.058 61.7576 28.646V33H60.2736V25.762H61.7576V26.658C62.0376 26.294 62.3596 26.028 62.7236 25.846C63.0876 25.65 63.4936 25.566 63.9416 25.566ZM73.548 22.808H75.032V33H73.646V32.132C73.142 32.832 72.386 33.196 71.406 33.196C70.342 33.196 69.502 32.818 68.9 32.062C68.34 31.362 68.06 30.452 68.06 29.346C68.06 28.282 68.326 27.4 68.886 26.7C69.474 25.944 70.3 25.566 71.336 25.566C72.218 25.566 72.96 25.986 73.548 26.84V22.808ZM71.672 26.77C70.944 26.77 70.398 27.008 70.048 27.512C69.74 27.932 69.586 28.548 69.586 29.346C69.586 30.144 69.726 30.76 70.02 31.208C70.356 31.726 70.902 31.992 71.63 31.992C72.274 31.992 72.764 31.726 73.128 31.222C73.436 30.76 73.59 30.172 73.59 29.444V29.318C73.59 28.534 73.394 27.904 73.03 27.428C72.666 26.98 72.218 26.77 71.672 26.77ZM80.0672 25.566C80.4312 25.566 80.7532 25.622 81.0052 25.748V27.232C80.6412 27.12 80.2912 27.078 79.9552 27.078C79.5072 27.078 79.1012 27.26 78.7512 27.624C78.3732 28.016 78.1912 28.534 78.1912 29.164V33H76.7072V25.762H78.1912V26.854C78.3732 26.462 78.6112 26.168 78.8912 25.972C79.2272 25.692 79.6192 25.566 80.0672 25.566ZM85.2482 25.566C86.3402 25.566 87.2222 25.93 87.8802 26.658C88.5242 27.372 88.8602 28.282 88.8602 29.388C88.8602 30.48 88.5382 31.39 87.8942 32.09C87.2222 32.818 86.3402 33.196 85.2482 33.196C84.1562 33.196 83.2742 32.818 82.6022 32.09C81.9582 31.39 81.6362 30.48 81.6362 29.388C81.6362 28.282 81.9582 27.372 82.6162 26.658C83.2742 25.93 84.1562 25.566 85.2482 25.566ZM85.2482 26.784C84.5622 26.784 84.0302 27.05 83.6522 27.596C83.3162 28.058 83.1622 28.66 83.1622 29.388C83.1622 30.116 83.3162 30.704 83.6522 31.166C84.0302 31.698 84.5622 31.978 85.2482 31.978C85.9342 31.978 86.4662 31.698 86.8582 31.166C87.1942 30.69 87.3622 30.102 87.3622 29.388C87.3622 28.66 87.1942 28.058 86.8582 27.596C86.4662 27.05 85.9342 26.784 85.2482 26.784ZM91.3197 22.864C91.6137 22.864 91.8657 22.948 92.0617 23.144C92.2577 23.326 92.3557 23.564 92.3557 23.858C92.3557 24.152 92.2437 24.39 92.0477 24.586C91.8517 24.768 91.5997 24.866 91.3197 24.866C91.0257 24.866 90.7877 24.768 90.5917 24.586C90.3957 24.39 90.2977 24.138 90.2977 23.858C90.2977 23.564 90.3957 23.326 90.5917 23.144C90.7877 22.948 91.0257 22.864 91.3197 22.864ZM90.5777 25.762H92.0617V33H90.5777V25.762ZM99.2785 22.808H100.762V33H99.3765V32.132C98.8725 32.832 98.1165 33.196 97.1365 33.196C96.0725 33.196 95.2325 32.818 94.6305 32.062C94.0705 31.362 93.7905 30.452 93.7905 29.346C93.7905 28.282 94.0565 27.4 94.6165 26.7C95.2045 25.944 96.0305 25.566 97.0665 25.566C97.9485 25.566 98.6905 25.986 99.2785 26.84V22.808ZM97.4025 26.77C96.6745 26.77 96.1285 27.008 95.7785 27.512C95.4705 27.932 95.3165 28.548 95.3165 29.346C95.3165 30.144 95.4565 30.76 95.7505 31.208C96.0865 31.726 96.6325 31.992 97.3605 31.992C98.0045 31.992 98.4945 31.726 98.8585 31.222C99.1665 30.76 99.3205 30.172 99.3205 29.444V29.318C99.3205 28.534 99.1245 27.904 98.7605 27.428C98.3965 26.98 97.9485 26.77 97.4025 26.77ZM110.11 23.004H111.846L115.696 33H114.058L113.12 30.424H108.822L107.884 33H106.26L110.11 23.004ZM109.284 29.164H112.658L111.006 24.642H110.95L109.284 29.164ZM116.673 23.004H120.817C123.197 23.004 124.387 24.012 124.387 26.042C124.387 28.086 123.183 29.108 120.789 29.108H118.199V33H116.673V23.004ZM118.199 24.306V27.806H120.691C121.447 27.806 121.993 27.666 122.343 27.386C122.679 27.106 122.861 26.658 122.861 26.042C122.861 25.426 122.679 24.978 122.329 24.726C121.979 24.446 121.433 24.306 120.691 24.306H118.199ZM132.162 23.004H134.094L129.67 27.302L134.738 33H132.694L128.634 28.296L127.332 29.542V33H125.806V23.004H127.332V27.834L132.162 23.004Z" fill="white"/>
<path d="M18.3434 9.25145C19.1363 8.79369 19.7616 8.96124 20.2194 9.75409L21.5926 12.1326C22.0504 12.9255 21.8828 13.5508 21.09 14.0086C20.2971 14.4663 19.6718 14.2988 19.2141 13.5059L17.8408 11.1274C17.383 10.3345 17.5506 9.7092 18.3434 9.25145Z" fill="#44E170"/>
<path d="M34.8223 9.25132C34.0294 8.79357 33.4041 8.96112 32.9464 9.75397L31.5731 12.1325C31.1153 12.9254 31.2829 13.5507 32.0757 14.0084C32.8686 14.4662 33.4939 14.2986 33.9517 13.5058L35.3249 11.1272C35.7827 10.3344 35.6151 9.70908 34.8223 9.25132Z" fill="#44E170"/>
<path fill-rule="evenodd" clip-rule="evenodd" d="M14.0033 23.1413C14.0054 23.1172 14.0061 23.0973 14.0061 23.0808C14.0061 16.0165 20.3849 10.957 26.3575 10.957C32.3305 10.957 38.7141 16.0165 38.7141 23.1063C38.7141 23.121 38.7148 23.1378 38.7158 23.1578C38.7276 23.3545 38.6991 23.5515 38.6319 23.7368C38.5647 23.9221 38.4604 24.0917 38.3253 24.2352C38.1902 24.3786 38.0271 24.493 37.8462 24.5711C37.6653 24.6493 37.4703 24.6896 37.2732 24.6896H15.4456C15.2471 24.6897 15.0507 24.6488 14.8687 24.5696C14.6867 24.4904 14.5229 24.3746 14.3876 24.2293C14.2523 24.084 14.1484 23.9124 14.0824 23.7253C14.0163 23.5381 13.9895 23.3393 14.0037 23.1413H14.0033ZM20.8662 20.5699C20.8662 20.9341 21.0109 21.2834 21.2685 21.5409C21.526 21.7985 21.8753 21.9431 22.2395 21.9431C22.6037 21.9431 22.953 21.7985 23.2105 21.5409C23.4681 21.2834 23.6128 20.9341 23.6128 20.5699C23.6128 20.3895 23.5772 20.211 23.5082 20.0444C23.4392 19.8777 23.3381 19.7264 23.2105 19.5988C23.083 19.4713 22.9316 19.3702 22.765 19.3012C22.5984 19.2321 22.4198 19.1966 22.2395 19.1966C22.0592 19.1966 21.8806 19.2321 21.714 19.3012C21.5474 19.3702 21.396 19.4713 21.2685 19.5988C21.1409 19.7264 21.0398 19.8777 20.9708 20.0444C20.9018 20.211 20.8662 20.3895 20.8662 20.5699ZM29.5079 21.5409C29.2504 21.2834 29.1057 20.9341 29.1057 20.5699C29.1057 20.2057 29.2504 19.8564 29.5079 19.5988C29.7655 19.3413 30.1148 19.1966 30.479 19.1966C30.8432 19.1966 31.1925 19.3413 31.45 19.5988C31.7076 19.8564 31.8522 20.2057 31.8522 20.5699C31.8522 20.9341 31.7076 21.2834 31.45 21.5409C31.1925 21.7985 30.8432 21.9431 30.479 21.9431C30.1148 21.9431 29.7655 21.7985 29.5079 21.5409Z" fill="#44E170"/>
<path d="M30.6836 35.0001V27.5978H32.6932V30.5905H32.7944L35.0209 27.5978H37.363L34.8618 30.8941L37.4208 35.0001H35.0209L33.3583 32.2242L32.6932 33.0917V35.0001H30.6836Z" fill="#44E170"/>
<path d="M23.9023 35.0001V27.5978H27.0975C27.6469 27.5978 28.1276 27.7062 28.5396 27.9231C28.9517 28.1399 29.2721 28.4448 29.5011 28.8375C29.73 29.2303 29.8444 29.6893 29.8444 30.2146C29.8444 30.7447 29.7264 31.2038 29.4902 31.5917C29.2565 31.9796 28.9276 32.2784 28.5035 32.4881C28.0818 32.6977 27.589 32.8025 27.0252 32.8025H25.1168V31.2411H26.6204C26.8565 31.2411 27.0577 31.2001 27.224 31.1182C27.3927 31.0339 27.5216 30.9146 27.6107 30.7604C27.7023 30.6062 27.7481 30.4242 27.7481 30.2146C27.7481 30.0026 27.7023 29.8218 27.6107 29.6724C27.5216 29.5206 27.3927 29.405 27.224 29.3255C27.0577 29.2435 26.8565 29.2026 26.6204 29.2026H25.912V35.0001H23.9023Z" fill="#44E170"/>
<path d="M17.6226 35.0001H15.454L17.8973 27.5978H20.6443L23.0876 35.0001H20.919L19.2997 29.6363H19.2419L17.6226 35.0001ZM17.2178 32.0796H21.2949V33.5832H17.2178V32.0796Z" fill="#44E170"/>
</svg>
