<svg width="154" height="44" viewBox="0 0 154 44" fill="none" xmlns="http://www.w3.org/2000/svg">
<rect width="154" height="44" rx="8" fill="#121212"/>
<path d="M53.79 8.72C54.7 8.72 55.42 8.92 55.95 9.34C56.46 9.74 56.78 10.33 56.91 11.13H55.81C55.71 10.65 55.49 10.29 55.15 10.05C54.81 9.8 54.35 9.68 53.79 9.68C53.1 9.68 52.55 9.91 52.14 10.39C51.7 10.89 51.49 11.58 51.49 12.46C51.49 13.32 51.68 13.98 52.08 14.44C52.5 14.94 53.16 15.19 54.05 15.19C54.4 15.19 54.73 15.14 55.04 15.06C55.34 14.98 55.6 14.86 55.84 14.71V13.16H53.87V12.23H56.93V15.23C56.56 15.52 56.13 15.74 55.64 15.9C55.12 16.06 54.55 16.14 53.93 16.14C52.79 16.14 51.91 15.78 51.28 15.06C50.69 14.39 50.4 13.52 50.4 12.46C50.4 11.39 50.69 10.51 51.28 9.82C51.9 9.08 52.74 8.72 53.79 8.72ZM58.2391 8.86H63.3691V9.79H59.3291V11.87H63.1291V12.8H59.3291V15.07H63.5391V16H58.2391V8.86ZM64.0953 8.86H69.9453V9.79H67.5653V16H66.4853V9.79H64.0953V8.86ZM74.1575 8.86H75.2375V16H74.1575V8.86ZM76.107 8.86H81.957V9.79H79.577V16H78.497V9.79H76.107V8.86ZM89.3092 8.72C90.3892 8.72 91.2492 9.07 91.8792 9.78C92.4792 10.45 92.7792 11.34 92.7792 12.44C92.7792 13.53 92.4792 14.41 91.8792 15.09C91.2492 15.79 90.3892 16.14 89.3092 16.14C88.2192 16.14 87.3592 15.78 86.7392 15.08C86.1392 14.4 85.8492 13.52 85.8492 12.44C85.8492 11.35 86.1392 10.47 86.7392 9.79C87.3592 9.07 88.2192 8.72 89.3092 8.72ZM89.3092 9.68C88.5492 9.68 87.9592 9.93 87.5392 10.45C87.1392 10.94 86.9392 11.6 86.9392 12.44C86.9392 13.27 87.1392 13.93 87.5392 14.42C87.9592 14.92 88.5492 15.18 89.3092 15.18C90.0692 15.18 90.6592 14.93 91.0692 14.44C91.4692 13.96 91.6792 13.29 91.6792 12.44C91.6792 11.58 91.4692 10.91 91.0692 10.42C90.6592 9.92 90.0692 9.68 89.3092 9.68ZM93.8836 8.86H94.9836L98.6336 14.17H98.6736V8.86H99.7636V16H98.7036L95.0136 10.63H94.9736V16H93.8836V8.86Z" fill="#EDEDF1"/>
<path d="M53.85 23.004H55.586L59.436 33H57.798L56.86 30.424H52.562L51.624 33H50L53.85 23.004ZM53.024 29.164H56.398L54.746 24.642H54.69L53.024 29.164ZM63.8996 25.566C64.9636 25.566 65.7896 25.944 66.4056 26.7C66.9656 27.4 67.2456 28.296 67.2456 29.416C67.2456 30.48 66.9656 31.362 66.4196 32.062C65.8316 32.818 65.0056 33.196 63.9696 33.196C63.0736 33.196 62.3456 32.776 61.7576 31.936V35.772H60.2736V25.762H61.6596V26.63C62.1636 25.916 62.9196 25.566 63.8996 25.566ZM63.6756 26.77C63.0316 26.77 62.5276 27.022 62.1776 27.54C61.8696 27.988 61.7156 28.59 61.7156 29.332V29.458C61.7156 30.228 61.8976 30.858 62.2896 31.334C62.6256 31.768 63.0736 31.992 63.6336 31.992C64.3616 31.992 64.8936 31.754 65.2436 31.278C65.5516 30.83 65.7196 30.214 65.7196 29.416C65.7196 28.618 65.5656 28.002 65.2856 27.554C64.9356 27.022 64.4036 26.77 63.6756 26.77ZM72.2668 25.566C73.3308 25.566 74.1568 25.944 74.7728 26.7C75.3328 27.4 75.6128 28.296 75.6128 29.416C75.6128 30.48 75.3328 31.362 74.7868 32.062C74.1988 32.818 73.3728 33.196 72.3368 33.196C71.4408 33.196 70.7128 32.776 70.1248 31.936V35.772H68.6408V25.762H70.0268V26.63C70.5308 25.916 71.2868 25.566 72.2668 25.566ZM72.0428 26.77C71.3988 26.77 70.8948 27.022 70.5448 27.54C70.2368 27.988 70.0828 28.59 70.0828 29.332V29.458C70.0828 30.228 70.2648 30.858 70.6568 31.334C70.9928 31.768 71.4408 31.992 72.0008 31.992C72.7288 31.992 73.2608 31.754 73.6108 31.278C73.9188 30.83 74.0868 30.214 74.0868 29.416C74.0868 28.618 73.9328 28.002 73.6528 27.554C73.3028 27.022 72.7708 26.77 72.0428 26.77ZM85.3101 22.808C86.4721 22.808 87.3821 23.046 88.0401 23.55C88.7401 24.068 89.1321 24.866 89.2301 25.958H87.7181C87.5781 25.314 87.3261 24.838 86.9341 24.558C86.5421 24.264 85.9821 24.124 85.2261 24.124C84.5681 24.124 84.0641 24.222 83.7141 24.418C83.2801 24.642 83.0701 25.006 83.0701 25.51C83.0701 25.958 83.3081 26.308 83.8121 26.574C84.0361 26.7 84.6101 26.91 85.5481 27.19C86.8921 27.61 87.7741 27.932 88.1661 28.17C89.0201 28.688 89.4541 29.402 89.4541 30.326C89.4541 31.222 89.1041 31.922 88.4041 32.44C87.7041 32.944 86.7241 33.196 85.4641 33.196C84.2461 33.196 83.2941 32.944 82.6081 32.468C81.7821 31.88 81.3341 30.956 81.2501 29.696H82.7621C82.8741 30.48 83.1541 31.054 83.6021 31.39C84.0081 31.698 84.6241 31.852 85.4641 31.852C86.2201 31.852 86.8221 31.712 87.2701 31.46C87.7181 31.208 87.9421 30.858 87.9421 30.41C87.9421 29.85 87.6201 29.416 86.9901 29.094C86.7661 28.982 86.1081 28.758 85.0021 28.422C83.7701 28.03 83.0141 27.764 82.7061 27.596C81.9361 27.134 81.5581 26.462 81.5581 25.594C81.5581 24.712 81.9221 24.026 82.6641 23.522C83.3641 23.046 84.2461 22.808 85.3101 22.808ZM92.9325 23.424V25.762H94.5845V26.994H92.9325V31.194C92.9325 31.39 92.9745 31.53 93.0585 31.628C93.1425 31.712 93.2685 31.768 93.4505 31.768H94.4025V33H93.2125C92.5965 33 92.1345 32.832 91.8545 32.51C91.5745 32.202 91.4485 31.768 91.4485 31.194V26.994H90.1045V25.762H91.4485V24.04L92.9325 23.424ZM99.1115 25.566C100.203 25.566 101.085 25.93 101.743 26.658C102.387 27.372 102.723 28.282 102.723 29.388C102.723 30.48 102.401 31.39 101.757 32.09C101.085 32.818 100.203 33.196 99.1115 33.196C98.0195 33.196 97.1375 32.818 96.4655 32.09C95.8215 31.39 95.4995 30.48 95.4995 29.388C95.4995 28.282 95.8215 27.372 96.4795 26.658C97.1375 25.93 98.0195 25.566 99.1115 25.566ZM99.1115 26.784C98.4255 26.784 97.8935 27.05 97.5155 27.596C97.1795 28.058 97.0255 28.66 97.0255 29.388C97.0255 30.116 97.1795 30.704 97.5155 31.166C97.8935 31.698 98.4255 31.978 99.1115 31.978C99.7975 31.978 100.329 31.698 100.721 31.166C101.057 30.69 101.225 30.102 101.225 29.388C101.225 28.66 101.057 28.058 100.721 27.596C100.329 27.05 99.7975 26.784 99.1115 26.784ZM107.493 25.566C107.857 25.566 108.179 25.622 108.431 25.748V27.232C108.067 27.12 107.717 27.078 107.381 27.078C106.933 27.078 106.527 27.26 106.177 27.624C105.799 28.016 105.617 28.534 105.617 29.164V33H104.133V25.762H105.617V26.854C105.799 26.462 106.037 26.168 106.317 25.972C106.653 25.692 107.045 25.566 107.493 25.566ZM112.408 25.566C113.584 25.566 114.494 25.958 115.11 26.77C115.67 27.498 115.964 28.506 115.978 29.794H110.49C110.546 30.494 110.728 31.04 111.064 31.418C111.4 31.782 111.862 31.978 112.45 31.978C112.968 31.978 113.388 31.852 113.71 31.614C113.962 31.418 114.172 31.096 114.368 30.676H115.852C115.684 31.348 115.362 31.922 114.858 32.37C114.228 32.916 113.43 33.196 112.464 33.196C111.4 33.196 110.546 32.86 109.93 32.202C109.258 31.502 108.922 30.564 108.922 29.374C108.922 28.296 109.23 27.4 109.874 26.672C110.49 25.93 111.344 25.566 112.408 25.566ZM112.45 26.784C111.89 26.784 111.456 26.938 111.12 27.274C110.812 27.596 110.602 28.058 110.518 28.674H114.424C114.284 27.414 113.626 26.784 112.45 26.784Z" fill="white"/>
<path d="M26.0663 15.2905C27.5022 15.2905 28.7619 14.7298 29.8453 13.6083C30.9287 12.4868 31.4705 11.1828 31.4705 9.69609C31.4705 9.53281 31.4575 9.30078 31.4318 9C31.2426 9.02578 31.1007 9.04727 31.0061 9.06445C29.682 9.25351 28.5169 9.90234 27.5108 11.0109C26.5048 12.1195 26.0018 13.3054 26.0018 14.5687C26.0018 14.7147 26.0233 14.9554 26.0663 15.2905ZM31.2125 35C32.2357 35 33.3664 34.2996 34.6046 32.8989C35.8428 31.4981 36.7886 29.8524 37.4421 27.9618C35.0087 26.7071 33.792 24.9068 33.792 22.5607C33.792 20.6014 34.7766 18.9256 36.7456 17.5335C35.3785 15.8233 33.5728 14.9683 31.3286 14.9683C30.3827 14.9683 29.5186 15.1101 28.7361 15.3936L28.246 15.5741L27.5882 15.8319C27.1583 15.9952 26.7671 16.0769 26.4145 16.0769C26.1394 16.0769 25.7782 15.9823 25.3311 15.7933L24.8281 15.587L24.3509 15.3936C23.6544 15.1015 22.9063 14.9554 22.1067 14.9554C19.9656 14.9554 18.2459 15.6772 16.9476 17.121C15.6492 18.5647 15 20.4682 15 22.8314C15 26.1572 16.0404 29.2294 18.1213 32.0481C19.5658 34.016 20.8857 35 22.0809 35C22.5882 35 23.0912 34.9012 23.5899 34.7035L24.2219 34.4457L24.7249 34.2652C25.43 34.016 26.0792 33.8914 26.6725 33.8914C27.3002 33.8914 28.0224 34.0504 28.8393 34.3684L29.2391 34.5231C30.0732 34.841 30.731 35 31.2125 35Z" fill="white"/>
</svg>
