<svg width="154" height="44" viewBox="0 0 154 44" fill="none" xmlns="http://www.w3.org/2000/svg">
<rect width="154" height="44" rx="8" fill="#121212"/>
<path d="M53.79 8.72C54.7 8.72 55.42 8.92 55.95 9.34C56.46 9.74 56.78 10.33 56.91 11.13H55.81C55.71 10.65 55.49 10.29 55.15 10.05C54.81 9.8 54.35 9.68 53.79 9.68C53.1 9.68 52.55 9.91 52.14 10.39C51.7 10.89 51.49 11.58 51.49 12.46C51.49 13.32 51.68 13.98 52.08 14.44C52.5 14.94 53.16 15.19 54.05 15.19C54.4 15.19 54.73 15.14 55.04 15.06C55.34 14.98 55.6 14.86 55.84 14.71V13.16H53.87V12.23H56.93V15.23C56.56 15.52 56.13 15.74 55.64 15.9C55.12 16.06 54.55 16.14 53.93 16.14C52.79 16.14 51.91 15.78 51.28 15.06C50.69 14.39 50.4 13.52 50.4 12.46C50.4 11.39 50.69 10.51 51.28 9.82C51.9 9.08 52.74 8.72 53.79 8.72ZM58.2391 8.86H63.3691V9.79H59.3291V11.87H63.1291V12.8H59.3291V15.07H63.5391V16H58.2391V8.86ZM64.0953 8.86H69.9453V9.79H67.5653V16H66.4853V9.79H64.0953V8.86ZM74.1575 8.86H75.2375V16H74.1575V8.86ZM76.107 8.86H81.957V9.79H79.577V16H78.497V9.79H76.107V8.86ZM89.3092 8.72C90.3892 8.72 91.2492 9.07 91.8792 9.78C92.4792 10.45 92.7792 11.34 92.7792 12.44C92.7792 13.53 92.4792 14.41 91.8792 15.09C91.2492 15.79 90.3892 16.14 89.3092 16.14C88.2192 16.14 87.3592 15.78 86.7392 15.08C86.1392 14.4 85.8492 13.52 85.8492 12.44C85.8492 11.35 86.1392 10.47 86.7392 9.79C87.3592 9.07 88.2192 8.72 89.3092 8.72ZM89.3092 9.68C88.5492 9.68 87.9592 9.93 87.5392 10.45C87.1392 10.94 86.9392 11.6 86.9392 12.44C86.9392 13.27 87.1392 13.93 87.5392 14.42C87.9592 14.92 88.5492 15.18 89.3092 15.18C90.0692 15.18 90.6592 14.93 91.0692 14.44C91.4692 13.96 91.6792 13.29 91.6792 12.44C91.6792 11.58 91.4692 10.91 91.0692 10.42C90.6592 9.92 90.0692 9.68 89.3092 9.68ZM93.8836 8.86H94.9836L98.6336 14.17H98.6736V8.86H99.7636V16H98.7036L95.0136 10.63H94.9736V16H93.8836V8.86Z" fill="#EDEDF1"/>
<path d="M55.306 22.808C56.58 22.808 57.588 23.088 58.33 23.676C59.044 24.236 59.492 25.062 59.674 26.182H58.134C57.994 25.51 57.686 25.006 57.21 24.67C56.734 24.32 56.09 24.152 55.306 24.152C54.34 24.152 53.57 24.474 52.996 25.146C52.38 25.846 52.086 26.812 52.086 28.044C52.086 29.248 52.352 30.172 52.912 30.816C53.5 31.516 54.424 31.866 55.67 31.866C56.16 31.866 56.622 31.796 57.056 31.684C57.476 31.572 57.84 31.404 58.176 31.194V29.024H55.418V27.722H59.702V31.922C59.184 32.328 58.582 32.636 57.896 32.86C57.168 33.084 56.37 33.196 55.502 33.196C53.906 33.196 52.674 32.692 51.792 31.684C50.966 30.746 50.56 29.528 50.56 28.044C50.56 26.546 50.966 25.314 51.792 24.348C52.66 23.312 53.836 22.808 55.306 22.808ZM64.7267 25.566C65.8187 25.566 66.7007 25.93 67.3587 26.658C68.0027 27.372 68.3387 28.282 68.3387 29.388C68.3387 30.48 68.0167 31.39 67.3727 32.09C66.7007 32.818 65.8187 33.196 64.7267 33.196C63.6347 33.196 62.7527 32.818 62.0807 32.09C61.4367 31.39 61.1147 30.48 61.1147 29.388C61.1147 28.282 61.4367 27.372 62.0947 26.658C62.7527 25.93 63.6347 25.566 64.7267 25.566ZM64.7267 26.784C64.0407 26.784 63.5087 27.05 63.1307 27.596C62.7947 28.058 62.6407 28.66 62.6407 29.388C62.6407 30.116 62.7947 30.704 63.1307 31.166C63.5087 31.698 64.0407 31.978 64.7267 31.978C65.4127 31.978 65.9447 31.698 66.3367 31.166C66.6727 30.69 66.8407 30.102 66.8407 29.388C66.8407 28.66 66.6727 28.058 66.3367 27.596C65.9447 27.05 65.4127 26.784 64.7267 26.784ZM73.0802 25.566C74.1722 25.566 75.0542 25.93 75.7122 26.658C76.3562 27.372 76.6922 28.282 76.6922 29.388C76.6922 30.48 76.3702 31.39 75.7262 32.09C75.0542 32.818 74.1722 33.196 73.0802 33.196C71.9882 33.196 71.1062 32.818 70.4342 32.09C69.7902 31.39 69.4682 30.48 69.4682 29.388C69.4682 28.282 69.7902 27.372 70.4482 26.658C71.1062 25.93 71.9882 25.566 73.0802 25.566ZM73.0802 26.784C72.3942 26.784 71.8622 27.05 71.4842 27.596C71.1482 28.058 70.9942 28.66 70.9942 29.388C70.9942 30.116 71.1482 30.704 71.4842 31.166C71.8622 31.698 72.3942 31.978 73.0802 31.978C73.7662 31.978 74.2982 31.698 74.6902 31.166C75.0262 30.69 75.1942 30.102 75.1942 29.388C75.1942 28.66 75.0262 28.058 74.6902 27.596C74.2982 27.05 73.7662 26.784 73.0802 26.784ZM81.1117 25.566C82.0637 25.566 82.7917 25.944 83.3237 26.728V25.762H84.8077V32.524C84.8077 34.82 83.6737 35.968 81.4337 35.968C80.4257 35.968 79.6557 35.772 79.1237 35.394C78.5917 35.002 78.2697 34.414 78.1297 33.616H79.6137C79.6977 34.036 79.8657 34.344 80.1457 34.526C80.4117 34.694 80.8457 34.792 81.4337 34.792C82.6937 34.792 83.3237 34.106 83.3237 32.748V31.628C82.7917 32.426 82.0637 32.832 81.1117 32.832C80.1317 32.832 79.3337 32.496 78.7317 31.838C78.1157 31.18 77.8217 30.312 77.8217 29.22C77.8217 28.128 78.1157 27.26 78.7317 26.588C79.3337 25.902 80.1317 25.566 81.1117 25.566ZM81.3357 26.77C80.7057 26.77 80.2157 26.98 79.8797 27.428C79.5157 27.848 79.3477 28.45 79.3477 29.22C79.3477 29.92 79.4877 30.48 79.7677 30.886C80.0897 31.362 80.6077 31.614 81.3357 31.614C81.9657 31.614 82.4557 31.404 82.8197 30.984C83.1557 30.55 83.3377 29.962 83.3377 29.22C83.3377 28.464 83.1557 27.862 82.8197 27.428C82.4557 26.98 81.9657 26.77 81.3357 26.77ZM86.6506 22.808H88.1346V33H86.6506V22.808ZM93.0486 25.566C94.2246 25.566 95.1346 25.958 95.7506 26.77C96.3106 27.498 96.6046 28.506 96.6186 29.794H91.1306C91.1866 30.494 91.3686 31.04 91.7046 31.418C92.0406 31.782 92.5026 31.978 93.0906 31.978C93.6086 31.978 94.0286 31.852 94.3506 31.614C94.6026 31.418 94.8126 31.096 95.0086 30.676H96.4926C96.3246 31.348 96.0026 31.922 95.4986 32.37C94.8686 32.916 94.0706 33.196 93.1046 33.196C92.0406 33.196 91.1866 32.86 90.5706 32.202C89.8986 31.502 89.5626 30.564 89.5626 29.374C89.5626 28.296 89.8706 27.4 90.5146 26.672C91.1306 25.93 91.9846 25.566 93.0486 25.566ZM93.0906 26.784C92.5306 26.784 92.0966 26.938 91.7606 27.274C91.4526 27.596 91.2426 28.058 91.1586 28.674H95.0646C94.9246 27.414 94.2666 26.784 93.0906 26.784ZM102.687 23.004H106.831C109.211 23.004 110.401 24.012 110.401 26.042C110.401 28.086 109.197 29.108 106.803 29.108H104.213V33H102.687V23.004ZM104.213 24.306V27.806H106.705C107.461 27.806 108.007 27.666 108.357 27.386C108.693 27.106 108.875 26.658 108.875 26.042C108.875 25.426 108.693 24.978 108.343 24.726C107.993 24.446 107.447 24.306 106.705 24.306H104.213ZM111.848 22.808H113.332V33H111.848V22.808ZM118.442 25.566C119.506 25.566 120.29 25.832 120.794 26.364C121.228 26.826 121.452 27.498 121.452 28.38V33H120.08V31.978C119.8 32.342 119.45 32.636 119.03 32.846C118.554 33.07 117.994 33.196 117.35 33.196C116.594 33.196 116.006 33 115.586 32.622C115.124 32.244 114.9 31.754 114.9 31.152C114.9 30.34 115.222 29.71 115.866 29.276C116.454 28.856 117.294 28.646 118.358 28.618L119.982 28.576V28.282C119.982 27.274 119.436 26.77 118.344 26.77C117.882 26.77 117.504 26.854 117.224 27.022C116.888 27.218 116.678 27.512 116.594 27.918L115.124 27.792C115.278 27.008 115.67 26.42 116.286 26.056C116.818 25.72 117.546 25.566 118.442 25.566ZM119.982 29.654L118.456 29.696C117.098 29.724 116.426 30.2 116.426 31.096C116.426 31.376 116.538 31.6 116.776 31.782C117 31.964 117.308 32.062 117.686 32.062C118.316 32.062 118.848 31.866 119.296 31.488C119.744 31.11 119.982 30.634 119.982 30.074V29.654ZM122.381 25.762H123.991L125.979 31.04L127.883 25.762H129.507L125.573 35.772H123.991L125.251 32.832L122.381 25.762Z" fill="white"/>
<path d="M25.3894 21.3555L13.3081 34.0129C13.4438 34.4937 13.6876 34.9371 14.0209 35.3093C14.3541 35.6814 14.7681 35.9724 15.2311 36.16C15.6941 36.3477 16.1939 36.427 16.6922 36.3918C17.1906 36.3567 17.6743 36.2081 18.1064 35.9574L31.7001 28.2153L25.3894 21.3555Z" fill="#EA4335"/>
<path d="M37.6055 19.2041L31.7269 15.8372L25.1101 21.6437L31.7539 28.1975L37.5875 24.8666C38.1043 24.596 38.5372 24.1891 38.8392 23.69C39.1413 23.1909 39.3009 22.6187 39.3009 22.0353C39.3009 21.452 39.1413 20.8797 38.8392 20.3806C38.5372 19.8816 38.1043 19.4747 37.5875 19.2041H37.6055Z" fill="#FBBC04"/>
<path d="M13.308 9.99475C13.235 10.2647 13.1987 10.5433 13.2 10.823V33.185C13.2007 33.4645 13.237 33.7429 13.308 34.0132L25.8034 21.6799L13.308 9.99475Z" fill="#4285F4"/>
<path d="M25.4794 22.0039L31.7271 15.8372L18.1514 8.05911C17.6407 7.75999 17.0598 7.60157 16.468 7.59998C15.7531 7.59857 15.0575 7.83092 14.487 8.26162C13.9165 8.69233 13.5025 9.29776 13.3081 9.98563L25.4794 22.0039Z" fill="#34A853"/>
</svg>
