<svg width="310" height="343" viewBox="0 0 310 343" fill="none" xmlns="http://www.w3.org/2000/svg">
<g clip-path="url(#clip0_430_27463)">
<rect width="310" height="343" fill="url(#paint0_linear_430_27463)"/>
<path d="M-22.1326 347.709V0.358887L-4 -4.5L319 352.5L-22.1326 347.709Z" fill="url(#paint1_linear_430_27463)"/>
<path fill-rule="evenodd" clip-rule="evenodd" d="M2.68457 226.827H4.39023V230.093H9.1662V257.23H4.39023V260.999H2.68457V257.23H-1.75V230.093H2.68457V226.827Z" fill="white" fill-opacity="0.15"/>
<path fill-rule="evenodd" clip-rule="evenodd" d="M213.163 105.213H214.869V108.792H219.644V138.523H214.869V142.652H213.163V138.523H208.728V108.792H213.163V105.213Z" fill="white" fill-opacity="0.15"/>
<path fill-rule="evenodd" clip-rule="evenodd" d="M231.584 117.274H233.29V120.853H238.065V150.584H233.29V154.713H231.584V150.584H227.149V120.853H231.584V117.274Z" fill="white" fill-opacity="0.15"/>
<path fill-rule="evenodd" clip-rule="evenodd" d="M149.029 137.742H150.735V139.539H155.512V154.464H150.735V156.537H149.029V154.464H144.595V139.539H149.029V137.742Z" fill="white" fill-opacity="0.15"/>
<path fill-rule="evenodd" clip-rule="evenodd" d="M21.106 214.515H22.8116V218.959H27.5876V255.873H22.8112V261H21.1056V255.873H16.6714V218.959H21.106V214.515Z" fill="white" fill-opacity="0.15"/>
<path fill-rule="evenodd" clip-rule="evenodd" d="M268.427 108.982H270.133V114.17H274.908V157.27H270.133V163.256H268.427V157.27H263.992V114.17H268.427V108.982Z" fill="white" fill-opacity="0.15"/>
<path fill-rule="evenodd" clip-rule="evenodd" d="M286.848 88.3784H288.553V93.5661H293.329V136.666H288.553V142.652H286.848V136.666H282.412V93.5661H286.848V88.3784Z" fill="white" fill-opacity="0.15"/>
<path fill-rule="evenodd" clip-rule="evenodd" d="M305.268 63H306.974V66.4827H311.749V95.4155H306.974V99.4337H305.268V95.4155H300.833V66.4827H305.268V63Z" fill="white" fill-opacity="0.15"/>
<path fill-rule="evenodd" clip-rule="evenodd" d="M74.6622 190.142H76.3679V196.915H81.1442V253.184H76.3679V261H74.6622V253.184H70.228V196.915H74.6622V190.142Z" fill="white" fill-opacity="0.15"/>
<path fill-rule="evenodd" clip-rule="evenodd" d="M92.403 197.931H94.1086V203.287H98.884V247.784H94.1086V253.964H92.403V247.784H87.9678V203.287H92.403V197.931Z" fill="white" fill-opacity="0.15"/>
<path fill-rule="evenodd" clip-rule="evenodd" d="M39.1855 171.548H40.8912V177.625H45.6672V228.108H40.8912V235.119H39.1855V228.108H34.751V177.625H39.1855V171.548Z" fill="white" fill-opacity="0.15"/>
<path fill-rule="evenodd" clip-rule="evenodd" d="M250.005 100.188H251.711V105.496H256.487V149.594H251.711V155.719H250.005V149.594H245.571V105.496H250.005V100.188Z" fill="white" fill-opacity="0.15"/>
<path fill-rule="evenodd" clip-rule="evenodd" d="M112.187 187.378H113.893V192.398H118.669V234.101H113.894V239.894H112.188V234.101H107.753V192.398H112.187V187.378Z" fill="white" fill-opacity="0.15"/>
<path fill-rule="evenodd" clip-rule="evenodd" d="M130.61 195.167H132.315V200.211H137.091V242.114H132.315V247.933H130.61V242.114H126.175V200.211H130.61V195.167Z" fill="white" fill-opacity="0.15"/>
<path fill-rule="evenodd" clip-rule="evenodd" d="M56.2426 207.479H57.9482V209.713H62.7236V228.27H57.9482V230.848H56.2426V228.27H51.8074V209.713H56.2426V207.479Z" fill="white" fill-opacity="0.15"/>
<g clip-path="url(#clip1_430_27463)">
<path d="M216.501 92.8086C215.45 93.0807 214.399 93.3281 213.373 93.6002C211.897 93.9961 210.421 94.3671 208.945 94.763C207.895 95.0351 206.869 95.332 205.818 95.6041C204.367 95.9999 202.891 96.3463 201.44 96.7421C200.389 97.0142 199.364 97.3111 198.313 97.5832C196.837 97.979 195.361 98.3254 193.86 98.7212C192.834 98.9933 191.834 99.2902 190.808 99.5623C189.932 99.785 189.082 99.9829 188.206 100.206C187.105 100.502 186.03 100.799 184.929 101.096C184.178 101.294 183.428 101.492 182.677 101.69C181.552 101.987 180.451 102.308 179.325 102.58C178.825 102.704 178.299 102.803 177.774 102.927C177.474 103.001 177.299 102.803 177.249 102.605C177.073 101.591 176.723 100.626 176.448 99.6365C176.173 98.5728 175.948 97.4842 175.597 96.4205C175.447 95.9752 175.472 95.4557 175.172 95.0351C175.022 94.4166 174.872 93.7734 174.697 93.1549C174.397 92.017 174.046 90.879 173.796 89.741C173.621 89.0235 173.371 88.3309 173.196 87.6382C172.971 86.7723 172.746 85.9065 172.52 85.0406C172.345 84.3479 172.145 83.68 171.945 82.9873C171.645 81.874 171.345 80.7608 171.044 79.6475C170.769 78.6332 170.419 77.6189 170.219 76.5799C169.994 75.4914 169.618 74.4276 169.343 73.3391C169.093 72.3001 168.768 71.261 168.493 70.222C168.067 68.6882 167.642 67.1791 167.242 65.6453C167.167 65.3237 166.942 64.8042 167.467 64.631C168.292 64.3342 169.143 64.062 170.019 63.8889C171.47 63.6167 172.871 63.0725 174.322 62.7756C174.672 62.7014 175.172 62.8251 175.447 62.4293C176.698 62.1324 177.924 61.8108 179.15 61.4397C180.226 61.1181 181.326 60.9202 182.402 60.6233C183.453 60.3512 184.504 60.0296 185.554 59.7327C186.305 59.5348 187.055 59.3616 187.806 59.139C188.932 58.8421 190.057 58.5205 191.208 58.2237C191.959 58.0257 192.709 57.8526 193.46 57.6547C194.235 57.4568 194.986 57.2836 195.761 57.0609C196.512 56.863 197.237 56.6156 197.988 56.4177C199.164 56.1209 200.339 55.824 201.515 55.4776C202.591 55.156 203.717 54.9581 204.818 54.6613C205.918 54.3644 206.994 54.018 208.095 53.7459C208.495 53.647 208.895 53.548 209.271 53.4243C209.896 53.4243 209.871 53.9438 209.971 54.3149C210.296 55.4282 210.571 56.5414 210.872 57.6547C211.147 58.6937 211.447 59.7327 211.722 60.7718C212.022 61.885 212.323 62.9983 212.623 64.1115C212.923 65.2 213.198 66.2638 213.473 67.3523C213.749 68.4161 214.049 69.4551 214.349 70.5189C214.649 71.5826 214.924 72.6217 215.225 73.6854C215.45 74.5266 215.675 75.3677 215.9 76.2088C216.25 77.5695 216.626 78.9054 217.001 80.266C217.201 81.0576 217.426 81.8245 217.651 82.6162C217.952 83.68 218.227 84.7685 218.502 85.857C218.777 86.9207 219.077 87.9845 219.353 89.0235C219.553 89.741 219.778 90.4584 219.978 91.1758C220.028 91.4232 220.103 91.7201 219.728 91.819C219.453 91.918 219.102 91.918 218.902 92.0417C218.452 92.2891 217.876 92.0912 217.501 92.487C217.126 92.5365 216.776 92.5365 216.501 92.8086ZM197.488 92.1406C197.788 92.2396 197.813 91.8438 197.913 91.6706C199.714 88.603 201.465 85.5106 203.291 82.4677C203.542 82.0472 203.392 81.973 203.116 81.7998C202.116 81.2308 201.09 80.7113 200.114 80.0928C199.764 79.8702 199.639 80.0186 199.489 80.266C198.413 82.0967 197.287 83.9026 196.287 85.758C196.011 86.2775 195.761 86.2281 195.386 86.0054C193.51 84.9416 191.633 83.8531 189.757 82.7894C189.532 82.6657 189.407 82.5914 189.232 82.8883C188.656 83.9273 188.106 84.9664 187.456 85.9807C187.23 86.327 187.331 86.4507 187.606 86.5991C188.031 86.8465 188.456 87.0939 188.882 87.3413C191.283 88.7019 193.66 90.0873 196.062 91.4232C196.487 91.6706 196.862 92.017 197.488 92.1406ZM200.715 71.929C200.59 71.83 200.465 71.6569 200.289 71.5826C199.764 71.3353 199.264 71.0384 198.763 70.7415C196.112 69.2572 193.51 67.7234 190.883 66.1896C190.558 65.9917 190.283 66.0411 190.107 66.437C189.757 67.1544 189.332 67.8718 188.907 68.5398C187.456 70.9147 186.13 73.3391 184.679 75.714C184.404 76.1593 184.579 76.2583 184.879 76.4315C185.829 77.0005 186.805 77.5447 187.781 78.089C188.081 78.2621 188.281 78.2869 188.506 77.8911C189.557 76.0356 190.658 74.2297 191.709 72.3743C191.959 71.9537 192.134 71.929 192.559 72.1764C194.41 73.2649 196.287 74.2792 198.163 75.343C198.463 75.5161 198.588 75.5161 198.763 75.1945C199.139 74.4771 199.564 73.7844 199.964 73.0917C200.214 72.7206 200.465 72.3496 200.715 71.929ZM184.303 84.6695C184.479 84.62 184.604 84.62 184.704 84.4469C185.254 83.4573 185.804 82.4925 186.405 81.5524C186.605 81.2308 186.555 80.9339 186.155 80.7113C185.204 80.2165 184.228 79.7712 183.328 79.1527C182.827 78.8064 182.702 79.0538 182.527 79.3754C181.977 80.3155 181.502 81.2803 180.901 82.1956C180.651 82.5914 180.776 82.7399 181.076 82.8883C181.827 83.3089 182.602 83.7294 183.378 84.15C183.703 84.3232 183.953 84.5953 184.303 84.6695ZM196.937 78.3611C196.937 78.2127 196.762 78.2374 196.687 78.1632C195.636 77.5447 194.56 76.9262 193.51 76.3078C193.285 76.1841 193.135 76.2088 192.984 76.4809C192.434 77.4952 191.859 78.5095 191.233 79.4991C191.008 79.8454 191.133 79.9939 191.408 80.1423C192.409 80.7113 193.385 81.305 194.385 81.8493C194.636 81.9977 194.886 81.9977 195.086 81.6266C195.536 80.7855 196.037 79.9939 196.512 79.1775C196.612 78.9301 196.762 78.658 196.937 78.3611ZM207.219 75.7388C207.219 75.4172 206.969 75.3924 206.819 75.2935C205.868 74.7245 204.893 74.2544 203.967 73.6607C203.567 73.4133 203.417 73.4875 203.216 73.8586C202.666 74.8234 202.116 75.7635 201.54 76.7036C201.34 77.0252 201.415 77.2478 201.715 77.421C202.716 77.99 203.742 78.5837 204.742 79.1527C204.918 79.2517 205.093 79.3259 205.268 79.0043C205.793 78.0148 206.394 77.0747 206.969 76.1099C207.044 75.9614 207.244 75.8872 207.219 75.7388Z" fill="#1CE7C2"/>
<path d="M236.014 161.731C234.813 162.053 233.587 162.424 232.362 162.721C231.261 162.993 230.16 163.314 229.034 163.562C227.958 163.784 226.933 164.18 225.882 164.452C225.157 164.626 224.481 164.848 223.756 164.997C222.955 165.145 222.23 165.467 221.454 165.64C220.628 165.813 219.853 166.06 219.027 166.258C217.902 166.555 216.801 166.852 215.675 167.149C214.925 167.347 214.199 167.545 213.449 167.743C212.323 168.04 211.197 168.411 210.046 168.658C209.146 168.856 208.295 169.227 207.369 169.276C206.018 169.227 204.693 169.375 203.367 169.054C201.465 168.609 199.839 167.693 198.463 166.357C197.037 164.972 196.062 163.265 195.636 161.311C195.186 159.257 195.261 157.229 196.012 155.299C196.912 153.023 198.388 151.192 200.59 150.005C200.74 149.906 200.865 149.856 200.865 149.634C201.64 149.411 202.416 149.164 203.191 148.941C204.042 148.718 204.868 148.496 205.718 148.248C206.844 147.952 207.995 147.63 209.121 147.333C210.196 147.061 211.297 146.789 212.373 146.517C213.424 146.245 214.474 145.923 215.525 145.626C216.3 145.428 217.051 145.255 217.827 145.032C218.952 144.736 220.053 144.414 221.179 144.117C221.904 143.919 222.63 143.746 223.355 143.548C224.481 143.251 225.582 142.979 226.708 142.633C227.033 142.534 227.408 142.435 227.708 142.41C228.434 142.336 228.659 141.841 228.959 141.371C229.91 139.887 230.86 138.402 231.811 136.918C231.836 136.893 231.886 136.893 231.936 136.893C232.086 137.388 232.211 137.858 232.362 138.353C232.637 139.318 232.912 140.283 233.187 141.272C233.237 141.495 233.137 141.544 232.937 141.594C232.337 141.742 231.761 141.965 231.161 142.039C230.685 142.113 230.685 142.336 230.735 142.657C230.835 143.103 230.961 143.523 231.086 143.944C231.461 145.255 231.861 146.541 232.211 147.853C232.587 149.189 232.912 150.524 233.287 151.836C233.662 153.221 234.088 154.582 234.463 155.967C234.738 156.981 234.988 157.996 235.289 159.01C235.564 159.876 235.914 160.766 236.014 161.731Z" fill="#00B493"/>
<path d="M98.7698 197.825C98.4445 199.037 98.0693 200.25 97.8191 201.487C97.644 202.303 97.4188 203.095 97.2437 203.886C97.0436 204.727 96.7934 205.544 96.5933 206.385C96.3931 207.176 96.218 207.993 96.0179 208.784C95.7927 209.626 95.5676 210.491 95.3424 211.333C95.1423 212.099 94.9671 212.891 94.767 213.683C94.5419 214.549 94.2667 215.415 94.0915 216.305C93.9414 217.072 93.7163 217.814 93.5162 218.581C93.291 219.472 93.0909 220.362 92.8157 221.253C92.5905 222.045 92.4404 222.861 92.2403 223.653C92.0902 224.296 91.89 224.939 91.7399 225.557C90.8893 225.508 90.1138 225.137 89.2882 224.988C88.6128 224.865 87.9373 224.667 87.2619 224.494C86.0861 224.222 84.9353 223.875 83.7595 223.603C82.6087 223.331 81.4329 223.108 80.3071 222.787C79.0812 222.44 77.8554 222.168 76.6296 221.871C75.829 221.673 75.0535 221.476 74.2529 221.278C73.2522 221.03 72.3016 220.659 71.2759 220.61C71.476 219.769 71.7012 218.952 71.9013 218.111C72.1014 217.344 72.2766 216.602 72.4767 215.835C72.7019 214.944 72.927 214.054 73.1522 213.163C73.3523 212.396 73.5274 211.654 73.7276 210.887C73.9527 210.021 74.2029 209.131 74.403 208.265C74.6032 207.498 74.7783 206.731 74.9784 205.964C75.2036 205.123 75.4788 204.282 75.6539 203.416C75.804 202.649 76.0291 201.907 76.2043 201.14C76.4294 200.25 76.6796 199.359 76.8797 198.468C77.0799 197.701 77.255 196.91 77.4551 196.118C77.6553 195.277 77.9304 194.436 78.1306 193.57C78.2807 192.803 78.5309 192.061 78.731 191.294C78.756 191.17 78.731 190.997 78.9311 190.948C79.1313 190.923 79.1813 190.775 79.2564 190.626C80.9075 187.88 83.3091 186.074 86.4613 185.579C89.0131 185.159 91.5398 185.431 93.8414 186.891C97.2437 189.043 98.8948 192.11 98.9699 196.069C98.9949 196.662 98.7197 197.231 98.7698 197.825Z" fill="#00B493"/>
<path d="M175.472 62.4541C175.197 62.85 174.697 62.7263 174.347 62.8005C172.896 63.0974 171.52 63.6416 170.044 63.9137C169.168 64.0869 168.343 64.359 167.492 64.6559C166.967 64.8538 167.192 65.3486 167.267 65.6702C167.642 67.204 168.092 68.7378 168.518 70.2469C168.793 71.2859 169.118 72.325 169.368 73.364C169.643 74.4525 170.019 75.4915 170.244 76.6048C170.444 77.6438 170.794 78.6334 171.069 79.6724C171.37 80.7856 171.67 81.8989 171.97 83.0121C172.145 83.7048 172.37 84.3728 172.545 85.0655C172.771 85.9313 172.996 86.7972 173.221 87.663C173.396 88.3805 173.646 89.0484 173.821 89.7659C174.071 90.9038 174.422 92.0418 174.722 93.1798C174.897 93.7983 175.047 94.4415 175.197 95.06C174.322 95.2826 173.446 95.53 172.57 95.7527C171.495 96.0495 170.444 96.3959 169.343 96.6433C168.267 96.8906 167.217 97.2122 166.141 97.4844C165.065 97.7318 164.015 98.0039 162.964 98.3008C162.188 98.4987 161.413 98.7461 160.637 98.9687C159.461 99.2903 158.286 99.5624 157.11 99.9088C156.084 100.23 155.008 100.428 153.983 100.7C152.857 100.997 151.756 101.344 150.63 101.616C149.98 101.789 149.304 101.888 148.679 102.135C148.604 102.16 148.529 102.111 148.454 102.086C148.479 101.962 148.479 101.814 148.554 101.69C148.954 101.072 149.354 100.478 149.755 99.8593C150.956 97.9792 152.131 96.0743 153.332 94.1941C154.858 91.7944 156.459 89.4195 157.935 86.9951C159.662 84.1996 161.463 81.4289 163.189 78.6581C163.414 78.287 163.839 77.9407 163.739 77.5201C163.639 77.0748 163.089 77.0748 162.714 76.8769C159.637 75.2689 156.559 73.6361 153.482 72.0033C150.405 70.4201 147.303 68.812 144.201 67.1545C142.3 66.1402 140.373 65.1754 138.447 64.1611C138.347 64.1116 138.097 64.1611 138.172 63.9385C138.197 63.8148 138.322 63.6911 138.472 63.6663C139.548 63.419 140.598 63.1716 141.674 62.8747C142.75 62.5778 143.826 62.2562 144.901 61.9594C145.977 61.6625 147.078 61.4398 148.179 61.143C149.229 60.8709 150.255 60.5987 151.306 60.3019C152.106 60.0792 152.932 59.8813 153.732 59.6587C154.808 59.3618 155.884 59.0649 156.96 58.7681C157.685 58.5701 158.411 58.3722 159.136 58.1991C160.312 57.9022 161.488 57.6053 162.664 57.259C163.714 56.9374 164.79 56.7395 165.866 56.4426C166.942 56.1457 168.017 55.8489 169.093 55.552C169.844 55.3541 170.594 55.1314 171.345 54.983C171.72 54.9088 172.045 54.7604 172.395 54.6861C172.846 54.5872 172.996 54.7356 173.096 55.1067C173.296 55.8489 173.496 56.591 173.696 57.3085C173.996 58.4464 174.272 59.5844 174.622 60.6729C174.772 61.0935 174.897 61.5388 174.922 61.9841C174.997 62.3799 175.172 62.4541 175.472 62.4541Z" fill="#00B493"/>
<path d="M236.014 161.731C235.889 160.766 235.539 159.901 235.289 158.961C235.013 157.946 234.738 156.932 234.463 155.918C234.088 154.532 233.662 153.172 233.287 151.786C232.912 150.45 232.587 149.114 232.211 147.803C231.836 146.492 231.461 145.206 231.086 143.895C230.961 143.474 230.835 143.029 230.735 142.608C230.66 142.287 230.685 142.039 231.161 141.99C231.761 141.915 232.336 141.693 232.937 141.544C233.137 141.495 233.262 141.445 233.187 141.223C232.912 140.258 232.637 139.268 232.362 138.304C232.211 137.809 232.086 137.339 231.936 136.844C231.536 135.459 231.136 134.073 230.76 132.688C230.46 131.599 230.235 130.486 229.935 129.398C229.635 128.26 229.259 127.122 228.934 125.984C228.509 124.499 228.159 122.99 227.708 121.506C227.333 120.318 227.058 119.081 226.708 117.894C226.282 116.434 225.882 114.95 225.482 113.466C225.031 111.858 224.581 110.25 224.131 108.642C223.956 107.998 223.831 107.355 223.681 106.712C223.656 106.564 223.681 106.415 223.455 106.415C223.38 105.129 222.83 103.941 222.555 102.704C222.305 101.591 222.004 100.503 221.679 99.4388C221.429 98.6224 221.329 97.7813 220.929 97.0144C220.954 96.099 220.503 95.2827 220.328 94.3921C220.153 93.5509 219.903 92.7346 219.678 91.9182C220.053 91.8192 219.978 91.4976 219.928 91.275C219.753 90.5575 219.503 89.8401 219.303 89.1227C219.002 88.0589 218.727 87.0199 218.452 85.9561C218.152 84.8923 217.877 83.8038 217.601 82.7153C217.401 81.9237 217.176 81.1568 216.951 80.3651C216.576 79.0045 216.225 77.6686 215.85 76.308C215.625 75.4668 215.4 74.6257 215.175 73.7846C214.9 72.7208 214.599 71.6818 214.299 70.618C213.999 69.5542 213.724 68.5152 213.424 67.4514C213.123 66.3629 212.848 65.2992 212.573 64.2106C212.273 63.0974 211.973 61.9841 211.672 60.8709C211.397 59.8319 211.097 58.7928 210.822 57.7538C210.522 56.6406 210.221 55.5273 209.921 54.4141C209.821 54.043 209.846 53.5235 209.221 53.5235C209.271 53.0287 208.92 52.5834 208.92 52.0886C208.92 51.8412 208.92 51.6186 209.221 51.5691C209.871 51.4949 210.471 51.2722 211.097 51.0743C211.822 50.8269 211.797 51.4949 211.872 51.8165C212.298 53.3503 212.673 54.8841 213.123 56.4179C213.449 57.5064 213.649 58.6197 213.949 59.7082C214.224 60.7719 214.624 61.811 214.849 62.8747C215.1 63.9633 215.425 65.027 215.675 66.0908C215.95 67.1793 216.3 68.2431 216.576 69.3316C216.776 70.1232 216.951 70.9149 217.151 71.6818C217.426 72.7456 217.751 73.8093 218.027 74.8731C218.227 75.6153 218.427 76.3574 218.627 77.0749C218.952 78.1881 219.177 79.3261 219.553 80.4393C219.803 81.1815 219.928 81.9484 220.153 82.7153C220.453 83.8038 220.779 84.8676 221.054 85.9561C221.254 86.6983 221.429 87.4404 221.629 88.1826C221.929 89.2711 222.255 90.3844 222.555 91.4729C222.83 92.5119 223.105 93.5262 223.38 94.5652C223.681 95.6785 224.006 96.8165 224.306 97.9297C224.581 98.9688 224.856 100.033 225.132 101.072C225.432 102.16 225.732 103.224 226.032 104.312C226.232 105.03 226.407 105.747 226.608 106.465C226.908 107.603 227.183 108.741 227.558 109.879C227.883 110.942 228.109 112.031 228.384 113.095C228.659 114.134 229.009 115.173 229.284 116.212C229.585 117.3 229.835 118.389 230.135 119.477C230.435 120.541 230.735 121.605 231.061 122.644C231.161 122.941 230.936 123.337 231.361 123.51C231.361 123.534 231.336 123.534 231.336 123.559C231.336 123.584 231.361 123.633 231.361 123.658C231.361 124.524 231.761 125.291 231.961 126.132C232.136 126.948 232.387 127.74 232.612 128.556C232.937 129.62 233.237 130.709 233.537 131.797C233.737 132.539 233.938 133.257 234.113 133.999C234.163 134.222 234.213 134.42 234.388 134.593C234.388 134.815 234.363 135.063 234.438 135.261C234.913 136.992 235.414 138.724 235.889 140.481C235.964 140.777 236.139 140.753 236.339 140.753C237.215 140.53 238.115 140.357 238.991 140.134C239.792 139.936 240.617 139.788 241.418 139.565C242.243 139.343 243.094 139.219 243.919 139.046C244.37 138.947 244.545 139.07 244.645 139.59C244.97 140.975 245.42 142.336 245.771 143.721C246.071 144.835 246.271 145.948 246.621 147.061C246.997 148.224 247.122 149.411 247.097 150.624C246.972 153.84 245.646 156.487 243.219 158.614C242.769 159.01 242.293 159.381 241.768 159.628C241.393 159.802 241.218 160.074 241.343 160.494C241.643 161.558 241.943 162.622 242.243 163.661C242.468 164.453 242.644 165.244 242.869 166.036C243.044 166.729 243.244 167.421 243.419 168.139C243.644 168.93 243.869 169.722 244.095 170.514C244.295 171.206 244.495 171.899 244.695 172.592C244.92 173.383 245.145 174.175 245.345 174.967C245.571 175.733 245.796 176.5 245.996 177.267C246.196 177.985 246.396 178.702 246.596 179.42C246.897 180.533 247.222 181.621 247.522 182.735C247.722 183.501 247.922 184.244 248.122 185.011C248.398 186.05 248.723 187.089 248.998 188.128C249.198 188.87 249.398 189.612 249.598 190.354C249.899 191.443 250.224 192.506 250.524 193.595C250.724 194.337 250.899 195.079 251.099 195.821C251.3 196.588 251.475 197.33 251.75 198.073C252 198.815 251.925 198.988 251.174 199.161C250.774 199.26 250.374 199.334 249.999 199.483C249.223 199.78 249.098 199.73 248.898 198.963C248.448 197.182 247.897 195.401 247.447 193.62C247.097 192.234 246.721 190.849 246.321 189.488C245.871 187.88 245.471 186.272 244.945 184.689C244.72 183.996 244.57 183.229 244.37 182.512C244.07 181.423 243.744 180.31 243.444 179.222C243.144 178.158 242.894 177.069 242.594 176.006C242.293 174.942 241.968 173.903 241.668 172.839C241.393 171.825 241.143 170.761 240.842 169.747C240.442 168.411 240.142 167.05 239.692 165.714C239.441 164.947 239.266 164.131 239.091 163.315C238.941 162.622 238.641 161.979 238.541 161.261C238.491 160.964 238.191 161.039 238.015 161.088C237.44 161.261 236.74 161.509 236.014 161.731Z" fill="#F4F4F4"/>
<path d="M126.239 180.087C125.538 180.137 125.063 180.681 124.537 181.027C121.986 182.685 119.434 184.342 116.882 186C114.731 187.41 112.604 188.795 110.453 190.181C110.303 190.28 110.228 190.478 110.027 190.478C109.777 190.478 109.602 190.453 109.427 190.181C108.126 188.152 106.8 186.124 105.474 184.095C104.123 182.042 102.798 180.013 101.447 177.985C100.396 176.377 99.2951 174.793 98.2444 173.21C98.6196 172.616 99.2951 172.418 99.8455 172.047C101.972 170.637 104.148 169.276 106.3 167.916C109.527 165.838 112.779 163.784 115.982 161.706C116.157 161.607 116.307 161.558 116.482 161.533C117.883 163.661 119.309 165.764 120.685 167.891C122.661 170.909 124.638 173.903 126.589 176.921C127.014 177.564 127.59 178.108 127.765 178.875C127.715 178.999 127.615 179.048 127.514 179.123C127.089 179.444 126.489 179.543 126.239 180.087Z" fill="#1CE7C2"/>
<path d="M147.203 158.787C147.978 158.812 148.779 158.837 149.555 158.837C152.407 158.837 155.233 158.862 158.085 158.837C159.261 158.837 160.412 158.961 161.463 159.53C161.588 159.604 161.788 159.579 161.963 159.604C162.313 160.321 163.114 160.569 163.589 161.237C164.215 162.127 164.665 163.067 164.69 164.106C164.765 167.792 164.715 171.503 164.715 175.189C163.864 175.189 163.014 175.189 162.163 175.189C161.788 175.189 161.513 175.09 161.213 174.793C159.461 173.012 157.71 171.28 155.934 169.524C154.133 167.743 152.281 165.986 150.505 164.18C150.08 163.735 149.88 163.834 149.53 164.205C146.052 167.669 142.55 171.107 139.072 174.571C138.672 174.991 138.247 175.189 137.671 175.14C137.121 175.09 136.546 175.14 135.995 175.164L135.97 175.115C135.895 172.864 136.145 170.613 135.795 168.361C135.645 167.372 135.445 166.407 135.07 165.467C134.244 163.414 132.743 161.904 130.967 160.643C129.566 159.653 127.99 159.084 126.239 159.084C125.263 159.084 125.263 159.084 125.263 160.074C125.188 160.074 125.138 160.074 125.063 160.074C125.063 159.975 125.063 159.876 125.063 159.777C125.063 158.886 125.063 158.886 125.963 158.886C128.79 158.886 131.592 158.886 134.419 158.886C134.619 158.886 134.819 158.862 135.045 158.837C139.072 158.787 143.15 158.787 147.203 158.787Z" fill="#00B493"/>
<path d="M133.218 205.296C131.917 204.431 130.792 203.367 129.616 202.352C129.441 202.204 129.466 202.056 129.516 201.932C129.816 200.769 130.116 199.606 130.416 198.444C130.617 197.652 130.792 196.836 130.992 196.019C131.117 195.45 131.242 194.906 131.417 194.337C131.617 193.719 131.592 193.051 131.392 192.407C131.167 191.641 130.942 190.874 130.742 190.082C130.441 188.919 130.116 187.757 129.816 186.594C129.616 185.802 129.366 185.011 129.216 184.194C129.041 183.378 128.74 182.586 128.565 181.77C128.465 181.275 128.29 180.805 128.19 180.31C130.592 180.31 133.018 180.31 135.42 180.285C135.87 180.285 136.02 180.459 135.995 180.879C135.97 181.423 135.995 181.943 135.995 182.487C135.995 182.834 136.12 183.007 136.496 183.031C137.772 183.031 139.072 183.031 140.348 183.106C140.924 183.13 141.424 182.834 141.999 182.883C142.375 182.932 142.7 183.13 143.075 183.13C144.176 183.106 145.277 182.982 146.402 183.106C146.753 183.155 147.503 183.427 147.478 182.561C148.279 183.056 148.854 183.798 149.505 184.466C149.855 184.837 150.105 184.837 150.455 184.466C151.006 183.897 151.506 183.229 152.206 182.809C152.231 183.007 152.307 183.229 152.557 183.13C153.282 182.809 154.008 183.229 154.758 183.155C155.934 183.031 157.16 183.452 158.336 182.982C158.486 182.932 158.661 182.957 158.836 182.932C159.336 182.858 159.536 183.106 159.486 183.576C159.036 185.035 158.386 186.445 157.785 187.88C157.41 188.82 157.11 189.785 156.71 190.7C156.259 191.69 155.909 192.729 155.459 193.719C149.204 193.719 142.925 193.719 136.671 193.719C136.521 193.719 136.371 193.719 136.245 193.719C135.92 193.694 135.795 193.867 135.745 194.189C135.445 195.574 135.095 196.935 134.819 198.345C134.719 198.815 134.569 199.235 134.494 199.705C134.319 200.695 134.044 201.685 133.844 202.674C133.669 203.515 133.293 204.381 133.218 205.296Z" fill="#1CE7C2"/>
<path d="M125.288 147.407C125.538 148.075 125.688 148.842 126.239 149.411C127.089 149.584 127.74 150.129 128.44 150.549C130.416 151.712 132.543 152.108 134.769 151.836C135.77 151.712 136.746 151.316 137.721 151.044C138.747 150.747 139.798 150.45 140.824 150.129C141.724 149.856 142.6 149.51 143.5 149.287C144.651 148.991 145.727 148.446 146.928 148.372C147.478 147.828 148.204 147.556 148.854 147.185C151.381 145.75 153.933 144.34 156.459 142.905C156.534 142.855 156.609 142.781 156.684 142.707C156.709 142.435 156.634 142.187 156.509 141.94C156.209 141.272 155.909 140.604 155.684 139.911L149.812 126.375C148.761 126.746 138.072 132.218 136.996 132.564C135.97 132.886 134.944 133.232 133.944 133.603C134.894 134.741 135.895 135.805 136.971 136.819C138.372 138.13 139.723 139.491 141.074 140.827C141.299 141.049 141.274 141.247 140.899 141.247C139.473 141.247 138.022 141.247 136.596 141.272C136.295 141.272 136.17 141.074 135.995 140.901C134.644 139.615 133.318 138.303 131.992 136.967C131.692 136.671 131.417 136.547 131.017 136.547C128.99 136.572 126.989 136.572 124.963 136.572C124.512 136.967 123.937 136.967 123.412 137.19C122.786 137.438 122.136 137.635 121.485 137.833C121.485 137.883 121.46 137.957 121.485 138.007C122.286 139.986 123.111 141.965 123.887 143.944C124.337 145.107 124.863 146.245 125.288 147.407Z" fill="#26385F"/>
<path d="M133.219 205.296C133.294 204.381 133.644 203.515 133.819 202.625C134.019 201.635 134.269 200.645 134.469 199.656C134.544 199.186 134.695 198.741 134.795 198.295C135.07 196.91 135.42 195.524 135.72 194.139C135.795 193.818 135.895 193.644 136.221 193.669C136.371 193.669 136.521 193.669 136.646 193.669C142.9 193.669 149.179 193.669 155.434 193.669C155.584 194.881 155.884 196.093 156.134 197.281C156.234 197.8 156.334 198.32 156.434 198.839C156.635 200.052 156.86 201.264 157.16 202.451C157.26 202.872 157.26 203.243 156.86 203.565C154.833 205.197 152.832 206.855 150.831 208.512C149.405 209.675 148.029 210.937 146.528 212.001C145.252 212.891 143.876 212.99 142.4 212.545C141.124 212.149 140.273 211.209 139.323 210.417C137.296 208.809 135.37 207.078 133.344 205.494C133.269 205.47 133.269 205.371 133.219 205.296Z" fill="#00B493"/>
<path d="M190.958 152.108C194.285 151.291 197.563 150.277 200.915 149.56C200.94 149.757 200.815 149.832 200.64 149.931C198.438 151.118 196.937 152.974 196.061 155.225C195.286 157.154 195.236 159.183 195.686 161.236C196.112 163.215 197.062 164.898 198.513 166.283C199.889 167.619 201.49 168.534 203.417 168.98C204.767 169.301 206.093 169.153 207.419 169.202C207.119 169.573 206.644 169.474 206.268 169.598C204.868 170.043 203.442 170.291 202.041 170.687C200.49 171.132 198.938 171.528 197.362 171.924C197.212 171.973 197.087 172.072 196.937 172.171C196.887 172.171 196.837 172.171 196.787 172.171C195.936 172.245 195.136 172.567 194.285 172.74C193.485 172.888 192.734 173.16 191.959 173.383C190.783 173.705 189.607 174.026 188.431 174.298C187.255 174.571 186.13 174.991 184.929 175.14C184.454 174.546 184.454 173.779 184.253 173.086C183.828 171.676 183.528 170.241 183.153 168.831C182.777 167.446 182.352 166.06 181.977 164.675C181.526 162.943 181.126 161.212 180.651 159.48C180.251 158.02 179.825 156.561 179.425 155.076C180.901 154.656 182.377 154.235 183.878 153.839C185.029 153.543 186.205 153.295 187.355 152.998C188.581 152.776 189.757 152.429 190.958 152.108Z" fill="#F4F4F4"/>
<path d="M164.715 175.164C164.715 171.478 164.765 167.768 164.69 164.081C164.665 163.067 164.215 162.127 163.589 161.212C163.139 160.544 162.338 160.296 161.963 159.579C162.914 159.257 163.914 159.035 164.89 158.787C166.291 158.441 167.667 157.996 169.068 157.625C170.494 157.254 171.945 156.932 173.371 156.561C174.121 156.363 174.872 156.116 175.622 155.893C175.823 155.843 176.023 155.794 176.223 155.868C176.473 156.907 176.698 157.946 177.023 158.961C177.224 159.628 177.374 160.296 177.549 160.94C177.849 162.028 178.149 163.117 178.449 164.205C178.725 165.269 179 166.357 179.275 167.421C179.575 168.534 179.9 169.623 180.176 170.736C180.476 171.899 180.826 173.037 181.101 174.175C181.251 174.793 181.602 175.412 181.426 176.08C180.576 176.302 179.75 176.525 178.9 176.748C178.149 176.946 177.399 177.119 176.648 177.317C175.472 177.614 174.297 177.96 173.121 178.232C171.995 178.504 170.894 178.851 169.768 179.073C168.518 179.345 167.267 179.568 166.041 179.964C165.591 180.112 165.04 180.162 164.565 180.285C163.889 180.459 163.189 180.657 162.488 180.854C161.813 181.052 161.137 181.3 160.412 181.3C160.837 180.36 160.762 180.285 159.737 180.261C159.511 180.261 159.261 180.31 159.161 180.038C159.436 180.063 159.636 180.236 159.937 180.236C161.338 180.211 162.739 180.211 164.115 180.211C164.49 180.211 164.69 180.112 164.665 179.692C164.715 178.207 164.715 176.674 164.715 175.164Z" fill="#1CE7C2"/>
<path d="M140.223 131.451C139.148 131.847 138.097 132.242 137.021 132.589C135.995 132.91 134.97 133.257 133.969 133.628C133.419 133.38 133.093 132.91 132.693 132.49C132.293 132.069 131.868 131.748 131.242 131.847C131.417 131.599 131.392 131.401 131.167 131.154C129.491 129.521 127.84 127.888 126.189 126.256C126.064 126.132 125.913 125.909 125.738 125.984C125.313 126.206 124.838 126.107 124.412 126.231C123.537 126.454 122.686 126.701 121.761 126.676C121.961 125.959 122.411 125.39 122.786 124.747C123.086 124.227 123.086 124.103 122.536 123.955C121.135 123.609 119.709 123.287 118.308 122.916C116.907 122.545 115.531 122.124 114.13 121.753C113.98 121.704 113.805 121.728 113.63 121.679C113.205 121.58 112.879 121.481 113.155 120.863C113.48 120.12 113.555 119.304 113.755 118.512C113.905 117.919 114.105 117.3 114.255 116.706C114.305 116.484 114.481 116.533 114.606 116.558C116.307 116.756 118.008 116.756 119.709 116.904C120.134 116.954 120.56 117.028 121.01 117.028C123.387 117.102 125.738 117.251 128.09 117.498C128.715 117.548 129.341 117.523 129.966 117.523C132.143 117.795 134.319 117.869 136.521 117.77C138.497 117.671 140.398 118.117 142.25 118.76C144.376 119.749 146.352 120.962 147.879 122.767C148.204 123.163 148.579 123.51 148.779 124.004C148.529 124.326 148.404 123.98 148.329 123.881C147.203 122.693 145.977 121.629 144.626 120.739C143.3 119.848 141.924 119.032 140.298 118.735C139.823 118.636 139.773 118.76 139.798 119.131C139.873 120.689 139.873 122.223 139.973 123.782C140.148 126.305 140.098 128.853 140.298 131.377C140.223 131.401 140.223 131.426 140.223 131.451Z" fill="#1CE7C2"/>
<path d="M98.7697 197.825C98.7446 197.231 98.9948 196.687 98.9948 196.069C98.8948 192.111 97.2686 189.043 93.8663 186.891C91.5647 185.431 89.038 185.159 86.4862 185.579C83.3341 186.099 80.9324 187.905 79.2813 190.626C79.2062 190.775 79.1312 190.923 78.9561 190.948C79.1812 189.513 79.9067 188.251 80.6322 187.039C82.3834 184.07 84.8851 181.844 87.8121 180.038C90.2888 178.504 92.7155 176.847 95.1672 175.239C95.2923 175.164 95.4174 175.115 95.5675 175.065C95.8176 175.412 96.0678 175.758 96.293 176.104C97.769 178.331 99.245 180.557 100.721 182.809C101.922 184.615 103.098 186.445 104.298 188.251C105.224 189.637 106.05 191.071 107.075 192.383C106.125 193.051 105.174 193.719 104.198 194.362C102.372 195.524 100.546 196.662 98.7697 197.825Z" fill="#F4F4F4"/>
<path d="M131.242 131.847C131.867 131.748 132.293 132.069 132.693 132.49C133.093 132.886 133.418 133.38 133.969 133.628C134.92 134.766 135.945 135.83 136.996 136.844C138.372 138.155 139.723 139.516 141.099 140.852C141.324 141.074 141.299 141.272 140.924 141.272C139.498 141.272 138.047 141.272 136.621 141.297C136.32 141.297 136.195 141.099 136.02 140.926C134.669 139.615 133.343 138.303 132.018 136.992C131.742 136.695 131.467 136.572 131.042 136.572C129.015 136.597 127.014 136.597 124.988 136.597C123.662 136.522 122.336 136.572 121.01 136.597C120.76 136.597 120.51 136.572 120.259 136.572C113.53 136.572 106.775 136.572 100.046 136.597C99.4201 136.597 99.195 136.448 99.245 135.805C99.3201 134.84 99.27 133.875 99.295 132.91C109.952 132.713 120.585 132.119 131.242 131.847Z" fill="#F4F4F4"/>
<path d="M125.038 160.024C125.113 160.024 125.163 160.024 125.238 160.024C125.263 160.173 125.338 160.222 125.488 160.272C126.939 160.692 128.215 161.484 129.316 162.498C130.542 163.587 131.417 164.922 131.993 166.432C132.468 167.669 132.743 168.93 132.743 170.241C132.743 170.81 132.618 171.379 132.518 171.924C132.368 172.715 132.193 173.457 131.842 174.2C131.692 174.496 131.467 174.744 131.517 175.115C131.467 175.164 131.392 175.214 131.342 175.288C130.617 176.649 129.566 177.688 128.365 178.628C128.19 178.776 128.015 178.9 127.765 178.85C127.59 178.084 126.989 177.515 126.589 176.896C124.638 173.878 122.661 170.86 120.685 167.866C119.284 165.739 117.883 163.636 116.482 161.509C116.807 160.964 117.433 160.841 117.933 160.593C119.759 159.752 121.711 159.703 123.662 159.826C124.137 159.826 124.537 160.173 125.038 160.024Z" fill="#F4F4F4"/>
<path d="M131.242 131.847C120.585 132.119 109.953 132.712 99.2952 132.91C99.2952 132.811 99.2702 132.712 99.2702 132.613C99.2452 131.104 99.2702 131.104 100.796 130.906C101.972 130.758 103.123 130.436 104.299 130.239C105.324 130.041 106.35 129.843 107.376 129.645C108.426 129.447 109.452 129.249 110.503 129.002C111.429 128.804 112.404 128.63 113.33 128.433C114.481 128.21 115.606 127.963 116.757 127.74C117.758 127.542 118.759 127.344 119.784 127.171C120.435 127.047 121.135 127.022 121.736 126.701C122.661 126.726 123.512 126.478 124.387 126.256C124.813 126.132 125.288 126.231 125.713 126.008C125.888 125.909 126.039 126.132 126.164 126.28C127.815 127.913 129.466 129.571 131.142 131.179C131.392 131.401 131.417 131.574 131.242 131.847Z" fill="#00B493"/>
<path d="M126.239 149.411C127.089 149.584 127.74 150.129 128.44 150.549C130.416 151.712 132.518 152.108 134.769 151.836C135.77 151.712 136.746 151.316 137.721 151.044C138.747 150.747 139.798 150.45 140.824 150.129C141.724 149.856 142.6 149.535 143.5 149.287C144.651 148.991 145.727 148.471 146.928 148.372C147.178 148.446 147.328 148.669 147.503 148.817C148.379 149.535 148.929 150.524 149.73 151.291C150.255 151.786 150.83 152.231 151.206 152.85C150.956 153.246 150.48 153.147 150.105 153.295C149.204 153.641 148.229 153.864 147.278 154.136C147.228 154.161 147.203 154.26 147.153 154.334C146.878 154.334 146.628 154.359 146.352 154.433C145.127 154.829 143.901 155.2 142.675 155.596C141.424 155.992 140.198 156.387 138.947 156.759C137.872 157.08 136.796 157.451 135.645 157.377C135.395 157.352 135.145 157.303 134.919 157.451C134.369 157.179 133.744 157.303 133.143 157.13C131.342 156.61 129.841 155.695 128.615 154.285C127.69 153.196 127.139 151.934 126.689 150.623C126.589 150.203 126.264 149.881 126.239 149.411Z" fill="#00B493"/>
<path d="M71.2759 220.585C72.3016 220.634 73.2523 221.03 74.2529 221.253C75.0535 221.451 75.829 221.649 76.6296 221.847C77.8554 222.144 79.0813 222.44 80.3071 222.762C81.4329 223.084 82.6087 223.306 83.7595 223.578C84.9353 223.875 86.0861 224.197 87.2619 224.469C87.9373 224.642 88.6128 224.84 89.2883 224.964C90.1138 225.112 90.8894 225.508 91.74 225.533C91.5648 226.349 91.3897 227.19 91.1896 228.007C90.9894 228.872 90.6892 229.714 90.5141 230.579C90.4391 231 90.2389 231 89.9637 230.901C88.6628 230.505 87.3369 230.233 86.036 229.912C84.3599 229.491 82.7088 229.095 81.0326 228.675C79.3565 228.254 77.7053 227.858 76.0292 227.438C74.353 227.017 72.7019 226.547 71.0257 226.225C70.9757 226.225 70.9257 226.225 70.9006 226.201C70.7255 225.83 69.8499 226.3 70.0501 225.557C70.1501 225.162 70.2252 224.766 70.3252 224.395C70.5254 223.578 70.8256 222.787 70.9757 221.97C71.0507 221.525 71.3009 221.08 71.2759 220.585Z" fill="#F4F4F4"/>
<path d="M159.236 180.063C159.361 180.335 159.587 180.285 159.812 180.285C160.837 180.31 160.887 180.409 160.487 181.324C160.287 182.017 159.787 182.611 159.712 183.353C159.687 183.477 159.587 183.502 159.486 183.526C159.537 183.056 159.336 182.834 158.836 182.883C158.661 182.908 158.486 182.858 158.336 182.933C157.16 183.427 155.934 182.982 154.758 183.106C154.008 183.18 153.282 182.759 152.557 183.081C152.332 183.18 152.257 182.957 152.206 182.759C152.357 182.735 152.432 182.66 152.457 182.512C152.607 182.487 152.682 182.413 152.707 182.265C152.857 182.24 152.932 182.166 152.957 182.017C153.107 181.992 153.182 181.918 153.207 181.77C153.632 181.151 154.258 180.706 154.758 180.162C154.958 179.939 155.033 179.791 154.808 179.568C153.357 178.158 151.906 176.748 150.48 175.313C150.13 174.967 149.88 175.016 149.555 175.338C148.154 176.748 146.753 178.133 145.327 179.519C145.002 179.84 145.052 180.013 145.352 180.31C145.902 180.854 146.528 181.349 146.978 181.992C147.003 182.141 147.078 182.24 147.228 182.265C147.253 182.413 147.328 182.487 147.478 182.512C147.503 183.403 146.753 183.106 146.403 183.056C145.277 182.933 144.176 183.056 143.075 183.081C142.7 183.081 142.375 182.883 141.999 182.834C141.424 182.784 140.924 183.081 140.348 183.056C139.072 183.007 137.772 183.007 136.496 182.982C136.12 182.982 135.995 182.809 135.995 182.438C135.995 181.893 135.97 181.374 135.995 180.83C136.02 180.409 135.87 180.236 135.42 180.236C133.018 180.261 130.592 180.261 128.19 180.261C127.69 180.236 127.189 180.236 126.689 180.211C126.914 179.914 127.264 180.013 127.565 180.013C130.366 179.989 133.168 179.989 135.97 179.989C137.346 179.989 138.722 179.989 140.098 180.038C140.574 180.063 140.899 179.89 141.224 179.543C144.026 176.773 146.828 174.002 149.63 171.231C149.98 170.885 150.13 170.86 150.505 171.231C152.682 173.433 154.908 175.585 157.11 177.787C157.81 178.578 158.636 179.222 159.236 180.063Z" fill="#00B493"/>
<path d="M150.205 126.231C150.205 126.28 150.205 126.33 150.205 126.379C148.929 127.047 147.628 127.715 146.352 128.383C144.376 129.373 142.4 130.387 140.423 131.377C140.373 131.401 140.298 131.377 140.248 131.377C140.048 128.853 140.073 126.305 139.923 123.782C139.823 122.223 139.823 120.689 139.748 119.131C139.723 118.76 139.773 118.636 140.248 118.735C141.874 119.032 143.25 119.848 144.576 120.739C145.927 121.654 147.153 122.718 148.279 123.881C148.379 123.98 148.479 124.326 148.729 124.004C149.204 124.722 149.73 125.39 150.03 126.182C150.055 126.206 150.155 126.206 150.205 126.231Z" fill="#00B493"/>
<path d="M107.025 192.407C106 191.096 105.174 189.661 104.248 188.276C103.048 186.47 101.872 184.639 100.671 182.833C99.195 180.607 97.7189 178.356 96.2429 176.129C96.0178 175.783 95.7426 175.436 95.5174 175.09C95.4674 174.966 95.5174 174.818 95.6175 174.769C96.4181 174.249 97.2436 173.729 98.0442 173.21C98.0942 173.185 98.1693 173.21 98.2193 173.21C99.295 174.793 100.371 176.377 101.421 177.985C102.772 180.013 104.098 182.066 105.449 184.095C106.775 186.124 108.126 188.127 109.402 190.181C109.577 190.453 109.727 190.502 110.002 190.478C109.452 191.121 108.626 191.443 107.951 191.913C107.676 192.086 107.451 192.457 107.025 192.407Z" fill="#26385F"/>
<path d="M181.452 176.105C181.627 175.437 181.277 174.818 181.126 174.2C180.851 173.037 180.501 171.899 180.201 170.761C179.926 169.648 179.575 168.559 179.3 167.446C179.025 166.382 178.75 165.294 178.475 164.23C178.174 163.141 177.874 162.053 177.574 160.964C177.399 160.296 177.249 159.628 177.049 158.985C176.723 157.971 176.523 156.932 176.248 155.893C177.274 155.472 178.349 155.299 179.4 155.052C179.4 155.052 179.425 155.126 179.45 155.151C179.851 156.61 180.301 158.07 180.676 159.554C181.126 161.286 181.527 163.018 182.002 164.749C182.377 166.135 182.803 167.52 183.178 168.906C183.553 170.316 183.853 171.75 184.279 173.161C184.479 173.853 184.479 174.595 184.954 175.214C184.829 175.61 184.429 175.437 184.178 175.511C183.253 175.709 182.377 176.03 181.452 176.105Z" fill="#474D57"/>
<path d="M151.231 152.899C150.856 152.256 150.28 151.811 149.755 151.341C148.929 150.574 148.404 149.584 147.528 148.867C147.328 148.718 147.203 148.496 146.953 148.422C147.503 147.877 148.229 147.605 148.879 147.234C151.406 145.799 153.958 144.389 156.484 142.954C156.559 142.905 156.635 142.831 156.71 142.756C156.985 142.831 156.96 143.053 156.96 143.251C156.985 144.958 157.01 146.665 157.035 148.372C157.035 148.694 156.935 148.941 156.685 149.139C155.033 150.326 153.382 151.514 151.731 152.701C151.556 152.776 151.456 152.924 151.231 152.899Z" fill="#1CE7C2"/>
<path d="M150.755 140.456C150.63 141.025 150.255 140.827 149.955 140.703C149.179 140.406 148.429 140.085 147.678 139.763C146.778 139.367 145.902 138.947 145.001 138.576C144.651 138.427 144.701 138.279 144.826 138.031C145.552 136.374 146.277 134.716 147.003 133.059C147.128 132.762 147.203 132.638 147.578 132.812C149.029 133.455 150.53 133.999 151.981 134.642C152.306 134.791 152.907 134.667 152.982 135.236C153.032 135.632 152.682 135.904 152.557 136.275C152.106 137.487 151.556 138.65 151.031 139.837C151.031 139.887 151.031 139.912 151.031 139.961C151.006 140.06 150.956 140.184 150.93 140.283C150.73 140.233 150.73 140.332 150.755 140.456Z" fill="#1CE7C2"/>
<path d="M134.97 157.476C135.195 157.328 135.47 157.377 135.695 157.402C136.846 157.476 137.922 157.105 138.997 156.783C140.248 156.412 141.474 156.016 142.725 155.621C143.951 155.249 145.177 154.854 146.403 154.458C146.678 154.384 146.928 154.359 147.203 154.359C147.203 155.843 147.203 157.328 147.203 158.787C143.125 158.787 139.073 158.787 134.995 158.787C134.995 158.342 134.995 157.897 134.97 157.476Z" fill="#474D57"/>
<path d="M135.945 180.063C133.143 180.063 130.341 180.063 127.54 180.087C127.239 180.087 126.914 179.988 126.664 180.285C126.489 180.31 126.264 180.384 126.214 180.087C126.464 179.543 127.064 179.444 127.49 179.098C127.59 179.024 127.69 178.974 127.74 178.85C127.99 178.9 128.165 178.751 128.34 178.628C129.541 177.712 130.617 176.649 131.317 175.288C131.342 175.214 131.442 175.164 131.492 175.115C132.968 175.115 134.444 175.189 135.92 175.09L135.945 175.14C135.97 176.772 135.97 178.43 135.945 180.063Z" fill="#26385F"/>
<path d="M236.439 140.753C236.239 140.753 236.064 140.777 235.989 140.481C235.514 138.749 235.013 137.017 234.538 135.261C234.488 135.038 234.513 134.815 234.488 134.593C235.864 134.469 236.915 134.989 237.565 136.225C238.216 137.438 237.79 138.477 237.14 139.516C236.865 139.912 236.439 140.233 236.439 140.753Z" fill="#00B493"/>
<path d="M196.762 172.196C196.812 172.196 196.862 172.196 196.912 172.196C196.912 176.105 196.912 180.013 196.912 183.922C196.912 184.392 197.012 184.887 196.837 185.481C196.687 184.912 196.762 184.442 196.762 183.972C196.762 180.261 196.737 176.525 196.737 172.814C196.737 172.592 196.762 172.394 196.762 172.196Z" fill="#474D57"/>
<path d="M121.01 136.572C122.336 136.547 123.662 136.497 124.988 136.572C124.537 136.967 123.962 136.967 123.437 137.19C122.811 137.438 122.161 137.611 121.51 137.833C121.235 137.438 121.16 136.992 121.01 136.572Z" fill="#1CE7C2"/>
<path d="M200.715 71.9291C200.465 72.3496 200.214 72.7455 199.989 73.1165C199.589 73.8092 199.164 74.5019 198.788 75.2193C198.613 75.5409 198.488 75.5409 198.188 75.3678C196.337 74.304 194.435 73.2897 192.584 72.2012C192.134 71.9538 191.959 71.9785 191.734 72.3991C190.658 74.2298 189.557 76.0605 188.531 77.9159C188.306 78.3117 188.106 78.287 187.806 78.1138C186.83 77.5695 185.88 77.0253 184.904 76.4563C184.629 76.2831 184.454 76.1842 184.704 75.7389C186.155 73.3639 187.481 70.9395 188.932 68.5646C189.357 67.8719 189.782 67.1792 190.132 66.4618C190.333 66.066 190.583 66.0165 190.908 66.2144C193.535 67.7235 196.137 69.282 198.788 70.7663C199.289 71.0385 199.789 71.3601 200.314 71.6075C200.465 71.6569 200.59 71.8054 200.715 71.9291Z" fill="#0B0E11"/>
<path d="M184.304 84.6697C183.953 84.5707 183.703 84.3233 183.378 84.1502C182.602 83.7296 181.852 83.309 181.076 82.8885C180.776 82.7153 180.651 82.5916 180.901 82.1958C181.502 81.2804 181.977 80.3156 182.527 79.3756C182.703 79.0539 182.828 78.8066 183.328 79.1529C184.204 79.7466 185.179 80.2167 186.155 80.7115C186.555 80.9341 186.605 81.231 186.405 81.5526C185.78 82.4927 185.254 83.4822 184.704 84.447C184.604 84.6449 184.454 84.6449 184.304 84.6697Z" fill="#0B0E11"/>
<path d="M196.937 78.3612C196.762 78.6581 196.637 78.9302 196.462 79.2024C195.986 80.0187 195.486 80.8351 195.036 81.6515C194.836 81.9979 194.61 82.0226 194.335 81.8742C193.335 81.3299 192.334 80.7362 191.358 80.1672C191.083 80.0187 190.983 79.8703 191.183 79.524C191.809 78.5344 192.384 77.5201 192.934 76.5058C193.084 76.209 193.26 76.209 193.46 76.3327C194.535 76.9511 195.586 77.5696 196.637 78.1881C196.762 78.2128 196.937 78.2128 196.937 78.3612Z" fill="#0B0E11"/>
<path d="M207.219 75.7388C207.244 75.8872 207.044 75.9614 206.969 76.0851C206.394 77.0499 205.793 77.99 205.268 78.9796C205.093 79.3259 204.918 79.2269 204.743 79.128C203.717 78.559 202.716 77.99 201.716 77.3963C201.415 77.2231 201.34 77.0004 201.54 76.6788C202.116 75.7388 202.666 74.7987 203.217 73.8339C203.417 73.4875 203.567 73.3886 203.967 73.636C204.893 74.205 205.868 74.6997 206.819 75.2687C206.969 75.3924 207.219 75.4419 207.219 75.7388Z" fill="#0B0E11"/>
<path d="M135.945 180.063C135.945 178.43 135.97 176.772 135.97 175.14C136.521 175.14 137.096 175.09 137.646 175.115C138.247 175.164 138.647 174.942 139.047 174.546C142.525 171.083 146.027 167.644 149.505 164.18C149.855 163.809 150.055 163.71 150.48 164.156C152.257 165.962 154.108 167.718 155.909 169.499C157.685 171.256 159.436 172.987 161.188 174.769C161.463 175.065 161.738 175.164 162.138 175.164C162.989 175.14 163.839 175.164 164.69 175.164C164.69 176.698 164.69 178.207 164.715 179.741C164.715 180.162 164.54 180.261 164.165 180.261C162.764 180.261 161.363 180.261 159.987 180.285C159.687 180.285 159.486 180.112 159.211 180.087C158.611 179.246 157.81 178.603 157.085 177.886C154.883 175.684 152.657 173.532 150.48 171.33C150.105 170.934 149.955 170.984 149.605 171.33C146.803 174.101 144.001 176.871 141.199 179.642C140.874 179.964 140.548 180.137 140.073 180.137C138.697 180.063 137.321 180.063 135.945 180.063Z" fill="#0B1F4B"/>
<path d="M135.945 175.09C134.469 175.189 132.993 175.115 131.517 175.115C131.492 174.769 131.717 174.496 131.843 174.2C132.193 173.482 132.368 172.715 132.518 171.924C132.618 171.355 132.743 170.81 132.743 170.241C132.743 168.93 132.468 167.669 131.993 166.432C131.417 164.898 130.542 163.587 129.316 162.498C128.19 161.484 126.939 160.717 125.488 160.272C125.363 160.222 125.263 160.173 125.238 160.024C125.238 159.035 125.238 159.035 126.214 159.035C127.965 159.059 129.541 159.604 130.942 160.593C132.718 161.83 134.219 163.364 135.045 165.417C135.42 166.333 135.62 167.297 135.77 168.312C136.146 170.588 135.895 172.839 135.945 175.09Z" fill="#1CE7C2"/>
<path d="M146.978 182.042C146.528 181.399 145.902 180.904 145.352 180.36C145.052 180.063 144.977 179.889 145.327 179.568C146.753 178.182 148.154 176.797 149.555 175.387C149.88 175.065 150.155 175.041 150.48 175.362C151.906 176.772 153.357 178.207 154.808 179.617C155.059 179.865 154.958 180.013 154.758 180.211C154.258 180.755 153.633 181.201 153.207 181.819C153.057 181.819 152.957 181.893 152.957 182.066C152.782 182.066 152.707 182.141 152.707 182.314C152.532 182.314 152.457 182.388 152.457 182.561C152.282 182.561 152.207 182.635 152.207 182.809C151.506 183.229 151.006 183.872 150.455 184.466C150.105 184.837 149.855 184.837 149.505 184.466C148.854 183.798 148.279 183.056 147.478 182.561C147.478 182.388 147.403 182.314 147.228 182.314C147.253 182.116 147.153 182.042 146.978 182.042Z" fill="#F4F4F4"/>
<path d="M152.982 182.042C152.982 181.869 153.057 181.794 153.232 181.794C153.207 181.943 153.132 182.042 152.982 182.042Z" fill="#1CE7C2"/>
<path d="M146.978 182.042C147.153 182.042 147.253 182.116 147.228 182.314C147.078 182.264 147.003 182.19 146.978 182.042Z" fill="#1CE7C2"/>
<path d="M152.732 182.289C152.732 182.116 152.807 182.042 152.982 182.042C152.957 182.19 152.882 182.289 152.732 182.289Z" fill="#1CE7C2"/>
<path d="M147.228 182.289C147.403 182.289 147.478 182.363 147.478 182.536C147.328 182.512 147.253 182.437 147.228 182.289Z" fill="#1CE7C2"/>
<path d="M152.482 182.536C152.482 182.363 152.557 182.289 152.732 182.289C152.707 182.437 152.632 182.536 152.482 182.536Z" fill="#1CE7C2"/>
<path d="M152.231 182.784C152.231 182.611 152.306 182.537 152.482 182.537C152.457 182.685 152.382 182.784 152.231 182.784Z" fill="#1CE7C2"/>
<path d="M183.536 99.375L174.543 66.75L204.894 62.25L215.011 88.125L183.536 99.375Z" fill="#1CE7C2"/>
<path d="M198.534 89.2505L193.76 70.3472L201.212 68.4622C202.645 68.0998 203.935 68.065 205.081 68.3576C206.226 68.644 207.185 69.2034 207.958 70.0357C208.735 70.8603 209.283 71.9003 209.6 73.1556C209.917 74.4109 209.926 75.5869 209.627 76.6837C209.329 77.7805 208.733 78.7265 207.842 79.5215C206.956 80.3151 205.788 80.8953 204.337 81.2624L199.587 82.4638L198.778 79.2609L202.883 78.2228C203.651 78.0284 204.251 77.7359 204.682 77.3454C205.118 76.9471 205.399 76.4799 205.525 75.9439C205.656 75.4002 205.643 74.8176 205.486 74.1961C205.328 73.5684 205.063 73.0526 204.693 72.6487C204.328 72.2371 203.86 71.9659 203.291 71.835C202.72 71.6979 202.047 71.7273 201.272 71.9233L198.579 72.6045L202.528 88.2403L198.534 89.2505Z" fill="black"/>
<path d="M186.511 72.1807L190.459 71.1823L193.787 84.3629C194.095 85.5813 194.089 86.7088 193.768 87.7457C193.454 88.7809 192.876 89.6637 192.033 90.394C191.191 91.1243 190.13 91.6512 188.851 91.9747C187.713 92.2624 186.63 92.3237 185.601 92.1585C184.576 91.9857 183.689 91.5554 182.939 90.8677C182.188 90.1739 181.658 89.1985 181.347 87.9417L185.322 86.9362C185.46 87.4315 185.669 87.8335 185.95 88.1422C186.235 88.4432 186.571 88.6463 186.958 88.7515C187.349 88.849 187.778 88.8387 188.245 88.7205C188.737 88.5961 189.125 88.3865 189.411 88.0917C189.701 87.7893 189.883 87.4093 189.957 86.952C190.031 86.4946 189.992 85.9644 189.84 85.3613L186.511 72.1807Z" fill="black"/>
</g>
<mask id="path-63-inside-1_430_27463" fill="white">
<path fill-rule="evenodd" clip-rule="evenodd" d="M62.5666 132.928C68.2067 127.569 64.8273 114.856 55.0184 104.532C45.2094 94.2085 32.6855 90.1837 27.0454 95.5427C24.3874 98.0682 23.7325 102.227 24.8098 106.999L31.7553 103.031L32.0034 103.465L24.9303 107.506C25.2242 108.687 25.6217 109.902 26.1188 111.136L33.1231 107.134L33.3712 107.568L26.3108 111.603C26.7795 112.715 27.328 113.843 27.9535 114.973L34.4912 111.238L34.7392 111.672L28.1984 115.409C28.8273 116.512 29.5288 117.617 30.3005 118.713L38.5948 113.973L38.8429 114.408L30.592 119.122C31.217 119.989 31.8857 120.85 32.5968 121.7L41.3307 116.709L41.5788 117.143L32.9252 122.088C33.4586 122.712 34.0149 123.329 34.5936 123.938C34.7835 124.138 34.9745 124.336 35.1664 124.531L44.0665 119.445L44.3146 119.879L35.5314 124.898C36.3461 125.709 37.1769 126.477 38.0185 127.201L46.8024 122.181L47.0505 122.615L38.4238 127.545C39.3368 128.311 40.2615 129.026 41.1912 129.686L49.5377 124.916L49.7858 125.35L41.6442 130.003C42.9162 130.88 44.1957 131.656 45.4659 132.324L53.6414 127.652L53.8895 128.087L45.996 132.597C47.3356 133.272 48.6621 133.826 49.9558 134.253L59.1136 129.02L59.3617 129.454L50.6055 134.458C52.0249 134.883 53.3998 135.151 54.7033 135.253L63.2173 130.388L63.4653 130.822L55.6323 135.298C58.4138 135.347 60.8202 134.587 62.5666 132.928Z"/>
</mask>
<path fill-rule="evenodd" clip-rule="evenodd" d="M62.5666 132.928C68.2067 127.569 64.8273 114.856 55.0184 104.532C45.2094 94.2085 32.6855 90.1837 27.0454 95.5427C24.3874 98.0682 23.7325 102.227 24.8098 106.999L31.7553 103.031L32.0034 103.465L24.9303 107.506C25.2242 108.687 25.6217 109.902 26.1188 111.136L33.1231 107.134L33.3712 107.568L26.3108 111.603C26.7795 112.715 27.328 113.843 27.9535 114.973L34.4912 111.238L34.7392 111.672L28.1984 115.409C28.8273 116.512 29.5288 117.617 30.3005 118.713L38.5948 113.973L38.8429 114.408L30.592 119.122C31.217 119.989 31.8857 120.85 32.5968 121.7L41.3307 116.709L41.5788 117.143L32.9252 122.088C33.4586 122.712 34.0149 123.329 34.5936 123.938C34.7835 124.138 34.9745 124.336 35.1664 124.531L44.0665 119.445L44.3146 119.879L35.5314 124.898C36.3461 125.709 37.1769 126.477 38.0185 127.201L46.8024 122.181L47.0505 122.615L38.4238 127.545C39.3368 128.311 40.2615 129.026 41.1912 129.686L49.5377 124.916L49.7858 125.35L41.6442 130.003C42.9162 130.88 44.1957 131.656 45.4659 132.324L53.6414 127.652L53.8895 128.087L45.996 132.597C47.3356 133.272 48.6621 133.826 49.9558 134.253L59.1136 129.02L59.3617 129.454L50.6055 134.458C52.0249 134.883 53.3998 135.151 54.7033 135.253L63.2173 130.388L63.4653 130.822L55.6323 135.298C58.4138 135.347 60.8202 134.587 62.5666 132.928Z" fill="#1CE7C2"/>
<path d="M55.0184 104.532L54.2934 105.221L55.0184 104.532ZM62.5666 132.928L61.8778 132.203L62.5666 132.928ZM27.0454 95.5427L27.7342 96.2676L27.0454 95.5427ZM24.8098 106.999L23.8344 107.22L24.1321 108.538L25.306 107.868L24.8098 106.999ZM31.7553 103.031L32.6236 102.534L32.1274 101.666L31.2592 102.162L31.7553 103.031ZM32.0034 103.465L32.4995 104.333L33.3678 103.837L32.8716 102.969L32.0034 103.465ZM24.9303 107.506L24.4341 106.638L23.777 107.014L23.9599 107.748L24.9303 107.506ZM26.1188 111.136L25.1911 111.51L25.6193 112.574L26.6149 112.005L26.1188 111.136ZM33.1231 107.134L33.9914 106.638L33.4952 105.77L32.627 106.266L33.1231 107.134ZM33.3712 107.568L33.8673 108.436L34.7356 107.94L34.2394 107.072L33.3712 107.568ZM26.3108 111.603L25.8146 110.734L25.0452 111.174L25.3892 111.991L26.3108 111.603ZM27.9535 114.973L27.0785 115.457L27.5693 116.345L28.4497 115.842L27.9535 114.973ZM34.4912 111.238L35.3594 110.741L34.8633 109.873L33.995 110.369L34.4912 111.238ZM34.7392 111.672L35.2354 112.54L36.1036 112.044L35.6075 111.176L34.7392 111.672ZM28.1984 115.409L27.7023 114.541L26.8348 115.037L27.3298 115.905L28.1984 115.409ZM30.3005 118.713L29.4827 119.289L30.0064 120.033L30.7966 119.581L30.3005 118.713ZM38.5948 113.973L39.4631 113.477L38.9669 112.609L38.0987 113.105L38.5948 113.973ZM38.8429 114.408L39.339 115.276L40.2073 114.78L39.7111 113.911L38.8429 114.408ZM30.592 119.122L30.0959 118.254L29.1308 118.806L29.7809 119.707L30.592 119.122ZM32.5968 121.7L31.8298 122.342L32.3666 122.983L33.093 122.568L32.5968 121.7ZM41.3307 116.709L42.1989 116.213L41.7028 115.345L40.8345 115.841L41.3307 116.709ZM41.5788 117.143L42.0749 118.012L42.9431 117.516L42.447 116.647L41.5788 117.143ZM32.9252 122.088L32.4291 121.22L31.3797 121.82L32.1652 122.738L32.9252 122.088ZM34.5936 123.938L35.3186 123.25L35.3186 123.25L34.5936 123.938ZM35.1664 124.531L34.4533 125.232L34.9935 125.782L35.6625 125.399L35.1664 124.531ZM44.0665 119.445L44.9348 118.949L44.4386 118.081L43.5704 118.577L44.0665 119.445ZM44.3146 119.879L44.8107 120.748L45.679 120.251L45.1828 119.383L44.3146 119.879ZM35.5314 124.898L35.0353 124.03L33.8957 124.681L34.826 125.607L35.5314 124.898ZM38.0185 127.201L37.3666 127.959L37.9018 128.419L38.5147 128.069L38.0185 127.201ZM46.8024 122.181L47.6706 121.685L47.1745 120.817L46.3063 121.313L46.8024 122.181ZM47.0505 122.615L47.5466 123.484L48.4148 122.988L47.9187 122.119L47.0505 122.615ZM38.4238 127.545L37.9276 126.677L36.6821 127.388L37.7808 128.311L38.4238 127.545ZM41.1912 129.686L40.6124 130.501L41.133 130.871L41.6874 130.554L41.1912 129.686ZM49.5377 124.916L50.406 124.42L49.9098 123.552L49.0416 124.048L49.5377 124.916ZM49.7858 125.35L50.2819 126.219L51.1502 125.723L50.654 124.854L49.7858 125.35ZM41.6442 130.003L41.1481 129.135L39.7678 129.923L41.0764 130.826L41.6442 130.003ZM45.4659 132.324L45.0003 133.209L45.4857 133.465L45.962 133.192L45.4659 132.324ZM53.6414 127.652L54.5096 127.156L54.0135 126.288L53.1452 126.784L53.6414 127.652ZM53.8895 128.087L54.3856 128.955L55.2538 128.459L54.7577 127.59L53.8895 128.087ZM45.996 132.597L45.4998 131.729L43.8833 132.653L45.5461 133.49L45.996 132.597ZM49.9558 134.253L49.6424 135.203L50.0653 135.342L50.4519 135.121L49.9558 134.253ZM59.1136 129.02L59.9819 128.524L59.4857 127.656L58.6175 128.152L59.1136 129.02ZM59.3617 129.454L59.8578 130.322L60.7261 129.826L60.2299 128.958L59.3617 129.454ZM50.6055 134.458L50.1094 133.589L48.0847 134.746L50.3185 135.416L50.6055 134.458ZM54.7033 135.253L54.625 136.25L54.9321 136.275L55.1995 136.122L54.7033 135.253ZM63.2173 130.388L64.0855 129.892L63.5894 129.024L62.7211 129.52L63.2173 130.388ZM63.4653 130.822L63.9615 131.691L64.8297 131.195L64.3336 130.326L63.4653 130.822ZM55.6323 135.298L55.1362 134.43L51.9779 136.235L55.6149 136.298L55.6323 135.298ZM54.2934 105.221C59.1052 110.285 62.3043 115.901 63.6194 120.849C64.9456 125.838 64.3088 129.893 61.8778 132.203L63.2554 133.653C66.4645 130.604 66.9581 125.623 65.5523 120.335C64.1356 115.005 60.7405 109.103 55.7433 103.843L54.2934 105.221ZM27.7342 96.2676C30.1652 93.9578 34.2481 93.5291 39.1626 95.1085C44.0366 96.6748 49.4817 100.157 54.2934 105.221L55.7433 103.843C50.7461 98.5839 45.0248 94.8916 39.7745 93.2044C34.5649 91.5302 29.5657 91.7686 26.3566 94.8177L27.7342 96.2676ZM25.7853 106.779C24.7443 102.168 25.443 98.4446 27.7342 96.2676L26.3566 94.8177C23.3317 97.6917 22.7208 102.286 23.8344 107.22L25.7853 106.779ZM31.2592 102.162L24.3137 106.131L25.306 107.868L32.2514 103.899L31.2592 102.162ZM32.8716 102.969L32.6236 102.534L30.8871 103.527L31.1351 103.961L32.8716 102.969ZM25.4264 108.375L32.4995 104.333L31.5072 102.596L24.4341 106.638L25.4264 108.375ZM27.0464 110.763C26.5651 109.567 26.1825 108.396 25.9006 107.265L23.9599 107.748C24.266 108.977 24.6783 110.236 25.1911 111.51L27.0464 110.763ZM32.627 106.266L25.6226 110.268L26.6149 112.005L33.6192 108.002L32.627 106.266ZM34.2394 107.072L33.9914 106.638L32.2549 107.63L32.5029 108.064L34.2394 107.072ZM26.8069 112.471L33.8673 108.436L32.875 106.7L25.8146 110.734L26.8069 112.471ZM28.8286 114.489C28.2194 113.388 27.6866 112.293 27.2324 111.214L25.3892 111.991C25.8724 113.138 26.4367 114.297 27.0785 115.457L28.8286 114.489ZM33.995 110.369L27.4574 114.105L28.4497 115.842L34.9873 112.106L33.995 110.369ZM35.6075 111.176L35.3594 110.741L33.6229 111.734L33.871 112.168L35.6075 111.176ZM28.6946 116.278L35.2354 112.54L34.2431 110.803L27.7023 114.541L28.6946 116.278ZM31.1183 118.138C30.3643 117.066 29.6798 115.988 29.0671 114.914L27.3298 115.905C27.9747 117.036 28.6933 118.167 29.4827 119.289L31.1183 118.138ZM38.0987 113.105L29.8043 117.845L30.7966 119.581L39.091 114.842L38.0987 113.105ZM39.7111 113.911L39.4631 113.477L37.7266 114.47L37.9747 114.904L39.7111 113.911ZM31.0881 119.991L39.339 115.276L38.3468 113.539L30.0959 118.254L31.0881 119.991ZM33.3638 121.058C32.6679 120.227 32.0139 119.385 31.4031 118.538L29.7809 119.707C30.42 120.594 31.1035 121.474 31.8298 122.342L33.3638 121.058ZM40.8345 115.841L32.1007 120.832L33.093 122.568L41.8268 117.578L40.8345 115.841ZM42.447 116.647L42.1989 116.213L40.4624 117.205L40.7105 117.64L42.447 116.647ZM33.4213 122.957L42.0749 118.012L41.0826 116.275L32.4291 121.22L33.4213 122.957ZM35.3186 123.25C34.7519 122.653 34.2072 122.049 33.6852 121.438L32.1652 122.738C32.71 123.375 33.278 124.006 33.8687 124.627L35.3186 123.25ZM35.8794 123.83C35.6915 123.639 35.5045 123.445 35.3186 123.25L33.8687 124.627C34.0625 124.831 34.2574 125.033 34.4533 125.232L35.8794 123.83ZM43.5704 118.577L34.6702 123.663L35.6625 125.399L44.5627 120.313L43.5704 118.577ZM45.1828 119.383L44.9348 118.949L43.1983 119.941L43.4464 120.375L45.1828 119.383ZM36.0276 125.766L44.8107 120.748L43.8185 119.011L35.0353 124.03L36.0276 125.766ZM38.6705 126.442C37.8474 125.735 37.0344 124.983 36.2368 124.189L34.826 125.607C35.6578 126.435 36.5064 127.219 37.3666 127.959L38.6705 126.442ZM46.3063 121.313L37.5224 126.332L38.5147 128.069L47.2985 123.05L46.3063 121.313ZM47.9187 122.119L47.6706 121.685L45.9342 122.677L46.1822 123.112L47.9187 122.119ZM38.9199 128.413L47.5466 123.484L46.5543 121.747L37.9276 126.677L38.9199 128.413ZM41.7701 128.87C40.8628 128.226 39.9595 127.528 39.0668 126.779L37.7808 128.311C38.7141 129.094 39.6601 129.825 40.6124 130.501L41.7701 128.87ZM49.0416 124.048L40.6951 128.818L41.6874 130.554L50.0339 125.785L49.0416 124.048ZM50.654 124.854L50.406 124.42L48.6695 125.413L48.9176 125.847L50.654 124.854ZM42.1404 130.871L50.2819 126.219L49.2897 124.482L41.1481 129.135L42.1404 130.871ZM45.9315 131.439C44.6984 130.79 43.4529 130.036 42.2121 129.18L41.0764 130.826C42.3795 131.725 43.693 132.521 45.0003 133.209L45.9315 131.439ZM53.1452 126.784L44.9698 131.456L45.962 133.192L54.1375 128.521L53.1452 126.784ZM54.7577 127.59L54.5096 127.156L52.7731 128.149L53.0212 128.583L54.7577 127.59ZM46.4921 133.465L54.3856 128.955L53.3933 127.218L45.4998 131.729L46.4921 133.465ZM50.2693 133.303C49.0264 132.893 47.7454 132.359 46.4459 131.704L45.5461 133.49C46.9258 134.185 48.2979 134.759 49.6424 135.203L50.2693 133.303ZM58.6175 128.152L49.4597 133.385L50.4519 135.121L59.6098 129.888L58.6175 128.152ZM60.2299 128.958L59.9819 128.524L58.2454 129.516L58.4935 129.95L60.2299 128.958ZM51.1017 135.326L59.8578 130.322L58.8656 128.586L50.1094 133.589L51.1017 135.326ZM54.7817 134.257C53.5583 134.16 52.2536 133.907 50.8925 133.5L50.3185 135.416C51.7962 135.858 53.2413 136.142 54.625 136.25L54.7817 134.257ZM55.1995 136.122L63.7134 131.257L62.7211 129.52L54.2072 134.385L55.1995 136.122ZM62.349 130.884L62.5971 131.319L64.3336 130.326L64.0855 129.892L62.349 130.884ZM62.9692 129.954L55.1362 134.43L56.1284 136.167L63.9615 131.691L62.9692 129.954ZM61.8778 132.203C60.3686 133.637 58.2418 134.344 55.6497 134.299L55.6149 136.298C58.5858 136.35 61.2717 135.538 63.2554 133.653L61.8778 132.203Z" fill="#1CE7C2" mask="url(#path-63-inside-1_430_27463)"/>
<path d="M57.766 101.767C62.6241 106.88 65.8722 112.568 67.2127 117.611C68.5588 122.674 67.9578 126.961 65.3323 129.456C62.7068 131.95 58.3948 132.332 53.4065 130.729C48.4385 129.132 42.9243 125.598 38.0662 120.484C33.2081 115.371 29.96 109.684 28.6194 104.641C27.2734 99.577 27.8743 95.2902 30.4999 92.7955C33.1254 90.3009 37.4374 89.9198 42.4257 91.5229C47.3937 93.1194 52.9079 96.6539 57.766 101.767Z" fill="#091A3D" stroke="#1CE7C2"/>
<mask id="path-66-inside-2_430_27463" fill="white">
<path fill-rule="evenodd" clip-rule="evenodd" d="M36.2657 238.558C34.0228 234.349 38.4491 227.609 46.1522 223.504C53.8553 219.398 61.9182 219.482 64.1611 223.69C65.2063 225.651 64.8033 228.162 63.2954 230.7L60.0437 227.069L59.6713 227.403L63.021 231.143C62.65 231.719 62.2231 232.295 61.7445 232.865L58.4546 229.191L58.0822 229.525L61.4151 233.246C60.9643 233.755 60.4725 234.258 59.9424 234.75L56.8642 231.313L56.4918 231.647L59.5724 235.086C59.0368 235.563 58.4652 236.028 57.8605 236.479L53.9479 232.11L53.5754 232.443L57.4546 236.775C56.9731 237.119 56.472 237.454 55.9525 237.777L51.8273 233.171L51.4548 233.505L55.5183 238.042C55.1141 238.283 54.6993 238.518 54.2747 238.744C54.1549 238.808 54.0351 238.871 53.9153 238.932L49.7066 234.233L49.3342 234.567L53.4529 239.166C52.8839 239.446 52.3141 239.704 51.746 239.939L47.586 235.294L47.2136 235.628L51.2528 240.138C50.6399 240.378 50.0299 240.592 49.4259 240.779L45.4651 236.356L45.0927 236.69L48.8959 240.936C48.0614 241.175 47.2401 241.362 46.4406 241.498L42.5488 237.152L42.1763 237.486L45.8514 241.589C45.0295 241.705 44.2336 241.765 43.4729 241.769L39.1027 236.889L38.7303 237.223L42.7917 241.758C41.9976 241.727 41.2477 241.631 40.5539 241.472L36.4511 236.89L36.0786 237.224L39.6563 241.219C38.1186 240.699 36.9339 239.811 36.2657 238.558Z"/>
</mask>
<path fill-rule="evenodd" clip-rule="evenodd" d="M36.2657 238.558C34.0228 234.349 38.4491 227.609 46.1522 223.504C53.8553 219.398 61.9182 219.482 64.1611 223.69C65.2063 225.651 64.8033 228.162 63.2954 230.7L60.0437 227.069L59.6713 227.403L63.021 231.143C62.65 231.719 62.2231 232.295 61.7445 232.865L58.4546 229.191L58.0822 229.525L61.4151 233.246C60.9643 233.755 60.4725 234.258 59.9424 234.75L56.8642 231.313L56.4918 231.647L59.5724 235.086C59.0368 235.563 58.4652 236.028 57.8605 236.479L53.9479 232.11L53.5754 232.443L57.4546 236.775C56.9731 237.119 56.472 237.454 55.9525 237.777L51.8273 233.171L51.4548 233.505L55.5183 238.042C55.1141 238.283 54.6993 238.518 54.2747 238.744C54.1549 238.808 54.0351 238.871 53.9153 238.932L49.7066 234.233L49.3342 234.567L53.4529 239.166C52.8839 239.446 52.3141 239.704 51.746 239.939L47.586 235.294L47.2136 235.628L51.2528 240.138C50.6399 240.378 50.0299 240.592 49.4259 240.779L45.4651 236.356L45.0927 236.69L48.8959 240.936C48.0614 241.175 47.2401 241.362 46.4406 241.498L42.5488 237.152L42.1763 237.486L45.8514 241.589C45.0295 241.705 44.2336 241.765 43.4729 241.769L39.1027 236.889L38.7303 237.223L42.7917 241.758C41.9976 241.727 41.2477 241.631 40.5539 241.472L36.4511 236.89L36.0786 237.224L39.6563 241.219C38.1186 240.699 36.9339 239.811 36.2657 238.558Z" fill="#1CE7C2"/>
<path d="M46.1522 223.504L45.6819 222.621L46.1522 223.504ZM36.2657 238.558L35.3832 239.028L35.3832 239.028L36.2657 238.558ZM64.1611 223.69L65.0436 223.22L64.1611 223.69ZM63.2954 230.7L64.155 231.211L63.4592 232.382L62.5504 231.367L63.2954 230.7ZM60.0437 227.069L59.3766 226.324L60.1215 225.657L60.7887 226.402L60.0437 227.069ZM59.6713 227.403L58.9263 228.07L58.2592 227.325L59.0041 226.658L59.6713 227.403ZM63.021 231.143L63.7659 230.476L64.2744 231.044L63.8617 231.685L63.021 231.143ZM61.7445 232.865L62.51 233.508L61.7685 234.39L60.9995 233.532L61.7445 232.865ZM58.4546 229.191L57.7875 228.446L58.5324 227.779L59.1996 228.524L58.4546 229.191ZM58.0822 229.525L57.3372 230.192L56.6701 229.447L57.415 228.78L58.0822 229.525ZM61.4151 233.246L62.16 232.579L62.7542 233.243L62.1637 233.909L61.4151 233.246ZM59.9424 234.75L60.6228 235.483L59.8767 236.176L59.1974 235.417L59.9424 234.75ZM56.8642 231.313L56.1971 230.568L56.942 229.901L57.6092 230.646L56.8642 231.313ZM56.4918 231.647L55.7468 232.314L55.0797 231.569L55.8246 230.902L56.4918 231.647ZM59.5724 235.086L60.3173 234.419L60.9866 235.167L60.2371 235.833L59.5724 235.086ZM57.8605 236.479L58.4576 237.281L57.7249 237.826L57.1155 237.146L57.8605 236.479ZM53.9479 232.11L53.2807 231.365L54.0257 230.698L54.6928 231.443L53.9479 232.11ZM53.5754 232.443L52.8305 233.11L52.1633 232.366L52.9083 231.698L53.5754 232.443ZM57.4546 236.775L58.1995 236.108L58.9438 236.939L58.0366 237.588L57.4546 236.775ZM55.9525 237.777L56.4805 238.626L55.7676 239.07L55.2075 238.444L55.9525 237.777ZM51.8273 233.171L51.1601 232.426L51.9051 231.759L52.5722 232.504L51.8273 233.171ZM51.4548 233.505L50.7099 234.172L50.0427 233.427L50.7877 232.76L51.4548 233.505ZM55.5183 238.042L56.2632 237.375L57.0724 238.278L56.0312 238.9L55.5183 238.042ZM54.2747 238.744L53.8043 237.862L53.8043 237.862L54.2747 238.744ZM53.9153 238.932L54.3734 239.821L53.6862 240.176L53.1704 239.6L53.9153 238.932ZM49.7066 234.233L49.0395 233.488L49.7844 232.821L50.4516 233.566L49.7066 234.233ZM49.3342 234.567L48.5892 235.234L47.9221 234.489L48.667 233.822L49.3342 234.567ZM53.4529 239.166L54.1978 238.498L55.0767 239.48L53.8952 240.062L53.4529 239.166ZM51.746 239.939L52.1286 240.863L51.4738 241.134L51.0011 240.606L51.746 239.939ZM47.586 235.294L46.9189 234.549L47.6638 233.882L48.331 234.627L47.586 235.294ZM47.2136 235.628L46.4686 236.295L45.8015 235.55L46.5464 234.883L47.2136 235.628ZM51.2528 240.138L51.9977 239.471L52.9586 240.544L51.6175 241.069L51.2528 240.138ZM49.4259 240.779L49.7216 241.734L49.1089 241.924L48.681 241.446L49.4259 240.779ZM45.4651 236.356L44.798 235.611L45.5429 234.944L46.2101 235.689L45.4651 236.356ZM45.0927 236.69L44.3477 237.357L43.6806 236.612L44.4255 235.945L45.0927 236.69ZM48.8959 240.936L49.6409 240.269L50.7066 241.459L49.1706 241.898L48.8959 240.936ZM46.4406 241.498L46.6083 242.484L46.064 242.576L45.6956 242.165L46.4406 241.498ZM42.5488 237.152L41.8816 236.407L42.6266 235.74L43.2937 236.485L42.5488 237.152ZM42.1763 237.486L41.4314 238.153L40.7642 237.408L41.5092 236.741L42.1763 237.486ZM45.8514 241.589L46.5963 240.922L47.8471 242.319L45.9905 242.58L45.8514 241.589ZM43.4729 241.769L43.4788 242.769L43.0284 242.772L42.728 242.436L43.4729 241.769ZM39.1027 236.889L38.4356 236.144L39.1805 235.477L39.8477 236.222L39.1027 236.889ZM38.7303 237.223L37.9853 237.89L37.3182 237.145L38.0631 236.478L38.7303 237.223ZM42.7917 241.758L43.5366 241.091L45.1124 242.85L42.7522 242.757L42.7917 241.758ZM40.5539 241.472L40.3299 242.446L40.0207 242.375L39.809 242.139L40.5539 241.472ZM36.4511 236.89L35.784 236.145L36.5289 235.478L37.196 236.223L36.4511 236.89ZM36.0786 237.224L35.3337 237.891L34.6666 237.146L35.4115 236.479L36.0786 237.224ZM39.6563 241.219L40.4013 240.552L42.9375 243.384L39.3361 242.166L39.6563 241.219ZM46.6225 224.386C42.8898 226.376 39.9956 228.982 38.315 231.541C36.611 234.136 36.2792 236.457 37.1482 238.087L35.3832 239.028C34.0094 236.45 34.7692 233.297 36.6433 230.443C38.5409 227.554 41.7115 224.738 45.6819 222.621L46.6225 224.386ZM63.2786 224.161C62.4096 222.53 60.2979 221.512 57.1939 221.479C54.1325 221.448 50.3553 222.397 46.6225 224.386L45.6819 222.621C49.6522 220.505 53.7579 219.444 57.2146 219.479C60.6285 219.515 63.6697 220.642 65.0436 223.22L63.2786 224.161ZM62.4357 230.189C63.8585 227.795 64.0885 225.68 63.2786 224.161L65.0436 223.22C66.3241 225.623 65.7481 228.53 64.155 231.211L62.4357 230.189ZM60.7887 226.402L64.0403 230.033L62.5504 231.367L59.2988 227.736L60.7887 226.402ZM59.0041 226.658L59.3766 226.324L60.7109 227.814L60.3384 228.148L59.0041 226.658ZM62.2761 231.81L58.9263 228.07L60.4162 226.736L63.7659 230.476L62.2761 231.81ZM60.9789 232.221C61.4326 231.681 61.8339 231.139 62.1803 230.602L63.8617 231.685C63.4661 232.299 63.0137 232.909 62.51 233.508L60.9789 232.221ZM59.1996 228.524L62.4894 232.197L60.9995 233.532L57.7097 229.858L59.1996 228.524ZM57.415 228.78L57.7875 228.446L59.1218 229.936L58.7493 230.27L57.415 228.78ZM60.6702 233.913L57.3372 230.192L58.8271 228.857L62.16 232.579L60.6702 233.913ZM59.262 234.017C59.7693 233.546 60.2383 233.067 60.6665 232.583L62.1637 233.909C61.6903 234.444 61.1756 234.97 60.6228 235.483L59.262 234.017ZM57.6092 230.646L60.6873 234.083L59.1974 235.417L56.1193 231.98L57.6092 230.646ZM55.8246 230.902L56.1971 230.568L57.5314 232.058L57.1589 232.391L55.8246 230.902ZM58.8274 235.754L55.7468 232.314L57.2367 230.979L60.3173 234.419L58.8274 235.754ZM57.2633 235.676C57.8454 235.243 58.3943 234.796 58.9076 234.339L60.2371 235.833C59.6792 236.33 59.085 236.814 58.4576 237.281L57.2633 235.676ZM54.6928 231.443L58.6054 235.811L57.1155 237.146L53.203 232.777L54.6928 231.443ZM52.9083 231.698L53.2807 231.365L54.615 232.855L54.2426 233.188L52.9083 231.698ZM56.7096 237.442L52.8305 233.11L54.3204 231.776L58.1995 236.108L56.7096 237.442ZM55.4244 236.928C55.9258 236.616 56.4089 236.293 56.8726 235.962L58.0366 237.588C57.5374 237.945 57.0182 238.292 56.4805 238.626L55.4244 236.928ZM52.5722 232.504L56.6974 237.11L55.2075 238.444L51.0823 233.838L52.5722 232.504ZM50.7877 232.76L51.1601 232.426L52.4944 233.916L52.1219 234.249L50.7877 232.76ZM54.7733 238.709L50.7099 234.172L52.1997 232.837L56.2632 237.375L54.7733 238.709ZM53.8043 237.862C54.2146 237.643 54.6152 237.417 55.0054 237.183L56.0312 238.9C55.6129 239.15 55.184 239.393 54.745 239.627L53.8043 237.862ZM53.4571 238.044C53.5729 237.984 53.6887 237.923 53.8043 237.862L54.745 239.627C54.6212 239.693 54.4974 239.757 54.3734 239.821L53.4571 238.044ZM50.4516 233.566L54.6602 238.265L53.1704 239.6L48.9617 234.9L50.4516 233.566ZM48.667 233.822L49.0395 233.488L50.3738 234.978L50.0013 235.312L48.667 233.822ZM52.708 239.833L48.5892 235.234L50.0791 233.899L54.1978 238.498L52.708 239.833ZM51.3635 239.015C51.9112 238.789 52.4611 238.54 53.0106 238.269L53.8952 240.062C53.3067 240.353 52.717 240.62 52.1286 240.863L51.3635 239.015ZM48.331 234.627L52.491 239.272L51.0011 240.606L46.8411 235.961L48.331 234.627ZM46.5464 234.883L46.9189 234.549L48.2532 236.039L47.8807 236.373L46.5464 234.883ZM50.5079 240.805L46.4686 236.295L47.9585 234.961L51.9977 239.471L50.5079 240.805ZM49.1302 239.823C49.7105 239.644 50.2975 239.438 50.8881 239.207L51.6175 241.069C50.9824 241.318 50.3493 241.54 49.7216 241.734L49.1302 239.823ZM46.2101 235.689L50.1708 240.111L48.681 241.446L44.7202 237.023L46.2101 235.689ZM44.4255 235.945L44.798 235.611L46.1323 237.101L45.7598 237.434L44.4255 235.945ZM48.151 241.603L44.3477 237.357L45.8376 236.022L49.6409 240.269L48.151 241.603ZM46.2729 240.512C47.0347 240.382 47.8203 240.204 48.6213 239.975L49.1706 241.898C48.3025 242.146 47.4456 242.341 46.6083 242.484L46.2729 240.512ZM43.2937 236.485L47.1855 240.831L45.6956 242.165L41.8039 237.819L43.2937 236.485ZM41.5092 236.741L41.8816 236.407L43.2159 237.897L42.8435 238.231L41.5092 236.741ZM45.1064 242.257L41.4314 238.153L42.9213 236.819L46.5963 240.922L45.1064 242.257ZM43.4671 240.769C44.1797 240.765 44.931 240.709 45.7123 240.599L45.9905 242.58C45.1281 242.701 44.2875 242.764 43.4788 242.769L43.4671 240.769ZM39.8477 236.222L44.2179 241.102L42.728 242.436L38.3578 237.556L39.8477 236.222ZM38.0631 236.478L38.4356 236.144L39.7699 237.634L39.3974 237.968L38.0631 236.478ZM42.0467 242.425L37.9853 237.89L39.4752 236.556L43.5366 241.091L42.0467 242.425ZM40.7779 240.497C41.404 240.641 42.0914 240.729 42.8311 240.759L42.7522 242.757C41.9037 242.724 41.0914 242.621 40.3299 242.446L40.7779 240.497ZM39.809 242.139L35.7062 237.558L37.196 236.223L41.2989 240.804L39.809 242.139ZM37.1182 237.635L36.7458 237.969L35.4115 236.479L35.784 236.145L37.1182 237.635ZM36.8236 236.557L40.4013 240.552L38.9114 241.886L35.3337 237.891L36.8236 236.557ZM37.1482 238.087C37.6686 239.064 38.6173 239.812 39.9766 240.271L39.3361 242.166C37.6198 241.586 36.1992 240.559 35.3832 239.028L37.1482 238.087Z" fill="#1CE7C2" mask="url(#path-66-inside-2_430_27463)"/>
<path d="M45.1794 221.535C41.3873 223.556 38.424 226.215 36.6892 228.856C34.9426 231.516 34.5038 234.045 35.499 235.912C36.4943 237.78 38.8384 238.825 42.0199 238.858C45.18 238.891 49.0394 237.914 52.8315 235.893C56.6237 233.871 59.5869 231.213 61.3218 228.571C63.0683 225.912 63.5072 223.383 62.5119 221.515C61.5167 219.648 59.1726 218.602 55.9911 218.569C52.8309 218.536 48.9716 219.514 45.1794 221.535Z" fill="#091A3D" stroke="#1CE7C2"/>
<mask id="path-69-inside-3_430_27463" fill="white">
<path fill-rule="evenodd" clip-rule="evenodd" d="M255.137 135.46C250.306 130.87 253.201 119.98 261.603 111.136C270.006 102.293 280.734 98.8451 285.565 103.436C287.835 105.593 288.4 109.14 287.489 113.213L281.549 109.819L281.301 110.253L287.368 113.72C287.12 114.709 286.787 115.727 286.372 116.76L280.376 113.334L280.128 113.768L286.18 117.226C285.786 118.159 285.327 119.102 284.805 120.049L279.206 116.85L278.957 117.284L284.56 120.485C284.031 121.409 283.443 122.335 282.798 123.254L275.69 119.193L275.442 119.627L282.506 123.664C281.984 124.387 281.426 125.105 280.833 125.815L273.346 121.536L273.098 121.97L280.505 126.203C280.055 126.728 279.586 127.247 279.099 127.76C278.945 127.922 278.791 128.082 278.635 128.241L271.003 123.88L270.755 124.314L278.27 128.608C277.59 129.284 276.897 129.924 276.195 130.529L268.66 126.224L268.412 126.658L275.789 130.874C275.027 131.512 274.256 132.108 273.48 132.66L266.316 128.567L266.068 129.001L273.027 132.977C271.961 133.711 270.888 134.361 269.824 134.923L262.801 130.91L262.553 131.344L269.294 135.196C268.175 135.758 267.067 136.221 265.986 136.58L258.114 132.082L257.866 132.516L265.336 136.785C264.16 137.134 263.02 137.357 261.937 137.447L254.598 133.254L254.35 133.688L261.008 137.492C258.655 137.52 256.619 136.868 255.137 135.46Z"/>
</mask>
<path fill-rule="evenodd" clip-rule="evenodd" d="M255.137 135.46C250.306 130.87 253.201 119.98 261.603 111.136C270.006 102.293 280.734 98.8451 285.565 103.436C287.835 105.593 288.4 109.14 287.489 113.213L281.549 109.819L281.301 110.253L287.368 113.72C287.12 114.709 286.787 115.727 286.372 116.76L280.376 113.334L280.128 113.768L286.18 117.226C285.786 118.159 285.327 119.102 284.805 120.049L279.206 116.85L278.957 117.284L284.56 120.485C284.031 121.409 283.443 122.335 282.798 123.254L275.69 119.193L275.442 119.627L282.506 123.664C281.984 124.387 281.426 125.105 280.833 125.815L273.346 121.536L273.098 121.97L280.505 126.203C280.055 126.728 279.586 127.247 279.099 127.76C278.945 127.922 278.791 128.082 278.635 128.241L271.003 123.88L270.755 124.314L278.27 128.608C277.59 129.284 276.897 129.924 276.195 130.529L268.66 126.224L268.412 126.658L275.789 130.874C275.027 131.512 274.256 132.108 273.48 132.66L266.316 128.567L266.068 129.001L273.027 132.977C271.961 133.711 270.888 134.361 269.824 134.923L262.801 130.91L262.553 131.344L269.294 135.196C268.175 135.758 267.067 136.221 265.986 136.58L258.114 132.082L257.866 132.516L265.336 136.785C264.16 137.134 263.02 137.357 261.937 137.447L254.598 133.254L254.35 133.688L261.008 137.492C258.655 137.52 256.619 136.868 255.137 135.46Z" fill="#1CE7C2"/>
<path d="M261.603 111.136L262.328 111.825L261.603 111.136ZM255.137 135.46L254.448 136.185L255.137 135.46ZM285.565 103.436L286.254 102.711L285.565 103.436ZM287.489 113.213L288.464 113.431L288.169 114.753L286.992 114.081L287.489 113.213ZM281.549 109.819L280.681 109.323L281.177 108.455L282.045 108.951L281.549 109.819ZM281.301 110.253L280.805 111.121L279.936 110.625L280.432 109.757L281.301 110.253ZM287.368 113.72L287.864 112.852L288.523 113.228L288.338 113.964L287.368 113.72ZM286.372 116.76L287.301 117.133L286.873 118.198L285.876 117.629L286.372 116.76ZM280.376 113.334L279.508 112.838L280.004 111.97L280.873 112.466L280.376 113.334ZM280.128 113.768L279.632 114.636L278.764 114.14L279.26 113.272L280.128 113.768ZM286.18 117.226L286.677 116.358L287.447 116.798L287.101 117.616L286.18 117.226ZM284.805 120.049L285.68 120.532L285.19 121.421L284.308 120.917L284.805 120.049ZM279.206 116.85L278.337 116.354L278.833 115.485L279.702 115.981L279.206 116.85ZM278.957 117.284L278.461 118.152L277.593 117.656L278.089 116.788L278.957 117.284ZM284.56 120.485L285.056 119.617L285.924 120.113L285.428 120.981L284.56 120.485ZM282.798 123.254L283.616 123.829L283.092 124.575L282.301 124.123L282.798 123.254ZM275.69 119.193L274.822 118.697L275.318 117.828L276.186 118.325L275.69 119.193ZM275.442 119.627L274.946 120.495L274.077 119.999L274.574 119.131L275.442 119.627ZM282.506 123.664L283.002 122.795L283.968 123.347L283.317 124.249L282.506 123.664ZM280.833 125.815L281.601 126.456L281.064 127.098L280.337 126.683L280.833 125.815ZM273.346 121.536L272.478 121.04L272.974 120.172L273.842 120.668L273.346 121.536ZM273.098 121.97L272.602 122.839L271.734 122.343L272.23 121.474L273.098 121.97ZM280.505 126.203L281.001 125.335L282.051 125.935L281.264 126.854L280.505 126.203ZM279.099 127.76L279.824 128.449L279.824 128.449L279.099 127.76ZM278.635 128.241L279.349 128.941L278.808 129.492L278.139 129.109L278.635 128.241ZM271.003 123.88L270.135 123.383L270.631 122.515L271.499 123.011L271.003 123.88ZM270.755 124.314L270.259 125.182L269.39 124.686L269.887 123.818L270.755 124.314ZM278.27 128.608L278.766 127.74L279.907 128.392L278.975 129.318L278.27 128.608ZM276.195 130.529L276.847 131.287L276.312 131.748L275.699 131.398L276.195 130.529ZM268.66 126.224L267.791 125.727L268.288 124.859L269.156 125.355L268.66 126.224ZM268.412 126.658L267.915 127.526L267.047 127.03L267.543 126.162L268.412 126.658ZM275.789 130.874L276.286 130.005L277.532 130.718L276.432 131.64L275.789 130.874ZM273.48 132.66L274.06 133.475L273.539 133.846L272.984 133.529L273.48 132.66ZM266.316 128.567L265.448 128.071L265.944 127.203L266.813 127.699L266.316 128.567ZM266.068 129.001L265.572 129.869L264.704 129.373L265.2 128.505L266.068 129.001ZM273.027 132.977L273.523 132.109L274.905 132.899L273.594 133.801L273.027 132.977ZM269.824 134.923L270.291 135.808L269.805 136.064L269.328 135.792L269.824 134.923ZM262.801 130.91L261.933 130.414L262.429 129.546L263.297 130.042L262.801 130.91ZM262.553 131.344L262.057 132.213L261.188 131.717L261.685 130.848L262.553 131.344ZM269.294 135.196L269.79 134.328L271.409 135.254L269.742 136.09L269.294 135.196ZM265.986 136.58L266.302 137.529L265.878 137.67L265.49 137.449L265.986 136.58ZM258.114 132.082L257.246 131.586L257.742 130.718L258.61 131.214L258.114 132.082ZM257.866 132.516L257.37 133.384L256.501 132.888L256.998 132.02L257.866 132.516ZM265.336 136.785L265.832 135.917L267.864 137.077L265.621 137.743L265.336 136.785ZM261.937 137.447L262.02 138.444L261.711 138.47L261.441 138.316L261.937 137.447ZM254.598 133.254L253.73 132.757L254.226 131.889L255.094 132.385L254.598 133.254ZM254.35 133.688L253.854 134.556L252.986 134.06L253.482 133.192L254.35 133.688ZM261.008 137.492L261.504 136.624L264.697 138.449L261.02 138.492L261.008 137.492ZM262.328 111.825C258.22 116.149 255.493 120.939 254.374 125.15C253.244 129.402 253.799 132.81 255.826 134.736L254.448 136.185C251.644 133.52 251.231 129.188 252.441 124.636C253.662 120.043 256.584 114.967 260.878 110.447L262.328 111.825ZM284.877 104.161C282.85 102.235 279.418 101.854 275.229 103.2C271.081 104.533 266.437 107.501 262.328 111.825L260.878 110.447C265.172 105.928 270.093 102.75 274.617 101.296C279.101 99.8551 283.449 100.046 286.254 102.711L284.877 104.161ZM286.513 112.995C287.388 109.083 286.781 105.97 284.877 104.161L286.254 102.711C288.89 105.215 289.412 109.197 288.464 113.431L286.513 112.995ZM282.045 108.951L287.985 112.345L286.992 114.081L281.053 110.687L282.045 108.951ZM280.432 109.757L280.681 109.323L282.417 110.315L282.169 110.749L280.432 109.757ZM286.872 114.588L280.805 111.121L281.797 109.385L287.864 112.852L286.872 114.588ZM285.444 116.388C285.843 115.393 286.162 114.418 286.398 113.477L288.338 113.964C288.078 115 287.73 116.061 287.301 117.133L285.444 116.388ZM280.873 112.466L286.869 115.892L285.876 117.629L279.88 114.202L280.873 112.466ZM279.26 113.272L279.508 112.838L281.245 113.83L280.997 114.264L279.26 113.272ZM285.684 118.095L279.632 114.636L280.624 112.9L286.677 116.358L285.684 118.095ZM283.929 119.566C284.435 118.648 284.879 117.736 285.259 116.837L287.101 117.616C286.693 118.582 286.218 119.557 285.68 120.532L283.929 119.566ZM279.702 115.981L285.301 119.181L284.308 120.917L278.709 117.718L279.702 115.981ZM278.089 116.788L278.337 116.354L280.074 117.346L279.826 117.78L278.089 116.788ZM284.064 121.353L278.461 118.152L279.454 116.416L285.056 119.617L284.064 121.353ZM281.979 122.68C282.608 121.785 283.179 120.885 283.692 119.989L285.428 120.981C284.884 121.933 284.279 122.885 283.616 123.829L281.979 122.68ZM276.186 118.325L283.294 122.386L282.301 124.123L275.194 120.061L276.186 118.325ZM274.574 119.131L274.822 118.697L276.558 119.689L276.31 120.123L274.574 119.131ZM282.01 124.532L274.946 120.495L275.938 118.759L283.002 122.795L282.01 124.532ZM280.066 125.174C280.643 124.482 281.187 123.782 281.695 123.078L283.317 124.249C282.78 124.992 282.208 125.728 281.601 126.456L280.066 125.174ZM273.842 120.668L281.329 124.946L280.337 126.683L272.85 122.405L273.842 120.668ZM272.23 121.474L272.478 121.04L274.214 122.032L273.966 122.467L272.23 121.474ZM280.009 127.071L272.602 122.839L273.594 121.102L281.001 125.335L280.009 127.071ZM278.374 127.071C278.85 126.571 279.307 126.064 279.745 125.552L281.264 126.854C280.803 127.391 280.323 127.924 279.824 128.449L278.374 127.071ZM277.921 127.54C278.073 127.386 278.224 127.229 278.374 127.071L279.824 128.449C279.667 128.615 279.508 128.779 279.349 128.941L277.921 127.54ZM271.499 123.011L279.131 127.373L278.139 129.109L270.507 124.748L271.499 123.011ZM269.887 123.818L270.135 123.383L271.871 124.376L271.623 124.81L269.887 123.818ZM277.774 129.476L270.259 125.182L271.251 123.445L278.766 127.74L277.774 129.476ZM275.542 129.772C276.226 129.182 276.902 128.558 277.565 127.899L278.975 129.318C278.278 130.01 277.567 130.667 276.847 131.287L275.542 129.772ZM269.156 125.355L276.691 129.661L275.699 131.398L268.164 127.092L269.156 125.355ZM267.543 126.162L267.791 125.727L269.528 126.72L269.28 127.154L267.543 126.162ZM275.293 131.742L267.915 127.526L268.908 125.789L276.286 130.005L275.293 131.742ZM272.9 131.846C273.654 131.309 274.405 130.729 275.147 130.107L276.432 131.64C275.65 132.295 274.857 132.908 274.06 133.475L272.9 131.846ZM266.813 127.699L273.976 131.792L272.984 133.529L265.82 129.435L266.813 127.699ZM265.2 128.505L265.448 128.071L267.185 129.063L266.937 129.497L265.2 128.505ZM272.531 133.846L265.572 129.869L266.565 128.133L273.523 132.109L272.531 133.846ZM269.357 134.039C270.385 133.496 271.424 132.866 272.46 132.154L273.594 133.801C272.497 134.556 271.392 135.226 270.291 135.808L269.357 134.039ZM263.297 130.042L270.32 134.055L269.328 135.792L262.305 131.779L263.297 130.042ZM261.685 130.848L261.933 130.414L263.669 131.406L263.421 131.841L261.685 130.848ZM268.798 136.065L262.057 132.213L263.049 130.476L269.79 134.328L268.798 136.065ZM265.67 135.631C266.702 135.288 267.766 134.844 268.845 134.303L269.742 136.09C268.584 136.671 267.432 137.153 266.302 137.529L265.67 135.631ZM258.61 131.214L266.482 135.712L265.49 137.449L257.618 132.95L258.61 131.214ZM256.998 132.02L257.246 131.586L258.982 132.578L258.734 133.012L256.998 132.02ZM264.84 137.653L257.37 133.384L258.362 131.648L265.832 135.917L264.84 137.653ZM261.854 136.451C262.86 136.367 263.932 136.159 265.052 135.826L265.621 137.743C264.388 138.11 263.181 138.347 262.02 138.444L261.854 136.451ZM261.441 138.316L254.102 134.122L255.094 132.385L262.434 136.579L261.441 138.316ZM255.466 133.75L255.218 134.184L253.482 133.192L253.73 132.757L255.466 133.75ZM254.846 132.819L261.504 136.624L260.512 138.36L253.854 134.556L254.846 132.819ZM255.826 134.736C257.073 135.92 258.832 136.518 260.996 136.492L261.02 138.492C258.477 138.522 256.165 137.816 254.448 136.185L255.826 134.736Z" fill="#1CE7C2" mask="url(#path-69-inside-3_430_27463)"/>
<path d="M259.303 108.816C255.148 113.189 252.373 118.051 251.228 122.357C250.078 126.684 250.598 130.323 252.819 132.434C255.04 134.544 258.701 134.877 262.964 133.508C267.206 132.144 271.919 129.124 276.074 124.751C280.229 120.378 283.005 115.517 284.149 111.21C285.3 106.883 284.78 103.244 282.558 101.134C280.337 99.0234 276.676 98.6901 272.414 100.06C268.172 101.423 263.458 104.443 259.303 108.816Z" fill="#091A3D" stroke="#1CE7C2"/>
<path d="M-6 289.52V226L56.999 289.52H-6Z" fill="url(#paint2_linear_430_27463)" stroke="url(#paint3_linear_430_27463)" stroke-width="0.5"/>
<path d="M56 34V37H46V34H56Z" fill="#1CE7C2"/>
<path d="M24.8924 19.5455H28.5401V31.7159C28.5401 32.8409 28.2873 33.8182 27.7816 34.6477C27.2816 35.4773 26.5856 36.1165 25.6935 36.5653C24.8015 37.0142 23.7646 37.2386 22.5827 37.2386C21.5316 37.2386 20.5771 37.054 19.7191 36.6847C18.8668 36.3097 18.1907 35.7415 17.6907 34.9801C17.1907 34.2131 16.9435 33.25 16.9492 32.0909H20.6225C20.6339 32.5511 20.7276 32.946 20.9038 33.2756C21.0856 33.5994 21.3327 33.8494 21.6452 34.0256C21.9634 34.196 22.3384 34.2812 22.7702 34.2812C23.2248 34.2812 23.6083 34.1847 23.9208 33.9915C24.239 33.7926 24.4805 33.5028 24.6452 33.1222C24.81 32.7415 24.8924 32.2727 24.8924 31.7159V19.5455ZM31.5913 37V19.5455H38.4776C39.8015 19.5455 40.9293 19.7983 41.8612 20.304C42.793 20.804 43.5032 21.5 43.9918 22.392C44.4862 23.2784 44.7333 24.3011 44.7333 25.4602C44.7333 26.6193 44.4833 27.642 43.9833 28.5284C43.4833 29.4148 42.7589 30.1051 41.81 30.5994C40.8668 31.0937 39.7248 31.3409 38.3839 31.3409H33.9947V28.3835H37.7873C38.4975 28.3835 39.0827 28.2614 39.543 28.017C40.0089 27.767 40.3555 27.4233 40.5827 26.9858C40.8157 26.5426 40.9322 26.0341 40.9322 25.4602C40.9322 24.8807 40.8157 24.375 40.5827 23.9432C40.3555 23.5057 40.0089 23.1676 39.543 22.929C39.0771 22.6847 38.4862 22.5625 37.7702 22.5625H35.2816V37H31.5913Z" fill="white"/>
<path d="M274.647 22.097L249 -4H306L280.353 22.097C278.785 23.6921 276.215 23.6921 274.647 22.097Z" fill="url(#paint4_linear_430_27463)" stroke="url(#paint5_linear_430_27463)" stroke-width="0.5"/>
<rect width="310" height="72" transform="translate(0 271)" fill="url(#paint6_linear_430_27463)"/>
</g>
<defs>
<linearGradient id="paint0_linear_430_27463" x1="155" y1="0" x2="155" y2="343" gradientUnits="userSpaceOnUse">
<stop stop-color="#122B60"/>
<stop offset="1" stop-color="#0F224A"/>
</linearGradient>
<linearGradient id="paint1_linear_430_27463" x1="151.934" y1="0.358887" x2="151.934" y2="347.709" gradientUnits="userSpaceOnUse">
<stop stop-color="#1B3364"/>
<stop offset="1" stop-color="#142853"/>
</linearGradient>
<linearGradient id="paint2_linear_430_27463" x1="25.4995" y1="226" x2="25.4995" y2="289.52" gradientUnits="userSpaceOnUse">
<stop stop-color="#162B58"/>
<stop offset="1" stop-color="#1B3367"/>
</linearGradient>
<linearGradient id="paint3_linear_430_27463" x1="25.4995" y1="226" x2="25.4995" y2="289.52" gradientUnits="userSpaceOnUse">
<stop stop-color="#C5C5C7"/>
<stop offset="1" stop-color="#28498F"/>
</linearGradient>
<linearGradient id="paint4_linear_430_27463" x1="259.028" y1="4.59259" x2="292.542" y2="4.59259" gradientUnits="userSpaceOnUse">
<stop stop-color="#2A4272"/>
<stop offset="1" stop-color="#122A5D"/>
</linearGradient>
<linearGradient id="paint5_linear_430_27463" x1="257.181" y1="5.12963" x2="295.972" y2="5.12963" gradientUnits="userSpaceOnUse">
<stop stop-color="#546EA4"/>
<stop offset="0.493211" stop-color="#4262A5"/>
<stop offset="0.984375" stop-color="#54978B"/>
</linearGradient>
<linearGradient id="paint6_linear_430_27463" x1="7" y1="36" x2="303" y2="36" gradientUnits="userSpaceOnUse">
<stop stop-color="#1BD7B4"/>
<stop offset="1" stop-color="#11C5A4"/>
</linearGradient>
<clipPath id="clip0_430_27463">
<rect width="310" height="343" fill="white"/>
</clipPath>
<clipPath id="clip1_430_27463">
<rect width="182" height="180" fill="white" transform="translate(70 51)"/>
</clipPath>
</defs>
</svg>
