<svg width="24" height="24" viewBox="0 0 24 24" fill="none" xmlns="http://www.w3.org/2000/svg">
<rect width="24" height="24" rx="12" fill="#30313D"/>
<path d="M9.06136 10.9552L12.2758 7.74069L15.4918 10.9566L17.3622 9.08621L12.2758 4L7.19116 9.08469L9.06143 10.955L9.06136 10.9552ZM4 12.2759L5.8704 10.4052L7.74067 12.2755L5.87027 14.1459L4 12.2759ZM9.06136 13.5968L12.2758 16.811L15.4918 13.5952L17.3631 15.4646L17.3622 15.4656L12.2758 20.5517L7.19116 15.467L7.18851 15.4644L9.06156 13.5966L9.06136 13.5968ZM16.811 12.2767L18.6814 10.4062L20.5517 12.2765L18.6813 14.1469L16.811 12.2767Z" fill="#F3BA2F"/>
<path d="M14.1728 12.2748H14.1736L12.2758 10.377L10.8731 11.7793L10.712 11.9405L10.3796 12.2729L10.377 12.2755L10.3796 12.2782L12.2758 14.1747L14.1737 12.2768L14.1747 12.2758L14.1729 12.2748" fill="#F3BA2F"/>
</svg>
