<svg width="24" height="24" viewBox="0 0 24 24" fill="none" xmlns="http://www.w3.org/2000/svg">
<g clip-path="url(#clip0_344_23762)">
<path fill-rule="evenodd" clip-rule="evenodd" d="M12 0C18.6271 0 24 5.37288 24 12C24 18.6271 18.6269 24 12 24C5.37312 24 0 18.6286 0 12C0 5.37144 5.37216 0 12 0Z" fill="#409092"/>
<path fill-rule="evenodd" clip-rule="evenodd" d="M6.92945 6.06836L4.01199 12.1965C4.00089 12.2193 3.99737 12.245 4.00195 12.27C4.00653 12.2949 4.01897 12.3177 4.03745 12.3351L11.9168 19.8854C11.9392 19.9069 11.969 19.9188 12 19.9188C12.031 19.9188 12.0608 19.9069 12.0832 19.8854L19.9626 12.3355C19.981 12.3182 19.9935 12.2954 19.998 12.2704C20.0026 12.2455 19.9991 12.2197 19.988 12.197L17.0705 6.06883C17.0611 6.04825 17.046 6.03082 17.0269 6.01861C17.0079 6.00641 16.9857 5.99995 16.9631 6.00001H7.03787C7.01513 5.99973 6.99279 6.00603 6.97356 6.01816C6.95432 6.03029 6.939 6.04772 6.92945 6.06836Z" fill="white"/>
<path fill-rule="evenodd" clip-rule="evenodd" d="M13.0122 12.8259C12.9557 12.8301 12.6634 12.8475 12.0115 12.8475C11.4929 12.8475 11.1248 12.832 10.9956 12.8259C8.99171 12.7377 7.49598 12.3889 7.49598 11.9712C7.49598 11.5536 8.99171 11.2052 10.9956 11.1156V12.4784C11.1267 12.4879 11.5019 12.51 12.0204 12.51C12.6427 12.51 12.9543 12.4841 13.0103 12.4789V11.1166C15.01 11.2057 16.5024 11.5545 16.5024 11.9712C16.5024 12.3879 15.0105 12.7368 13.0103 12.8254L13.0122 12.8259ZM13.0122 10.9756V9.75613H15.8029V7.89648H8.20496V9.75613H10.9951V10.9752C8.72726 11.0793 7.02176 11.5286 7.02176 12.0669C7.02176 12.6052 8.72726 13.054 10.9951 13.1587V17.0665H13.0118V13.1572C15.2745 13.0531 16.9771 12.6043 16.9771 12.0664C16.9771 11.5286 15.2759 11.0798 13.0118 10.9752L13.0122 10.9756Z" fill="#409092"/>
</g>
<defs>
<clipPath id="clip0_344_23762">
<rect width="24" height="24" fill="white"/>
</clipPath>
</defs>
</svg>
