<svg width="160" height="104" viewBox="0 0 160 104" fill="none" xmlns="http://www.w3.org/2000/svg">
<rect x="0.25" y="0.25" width="159.5" height="103.5" fill="#091A3D"/>
<rect x="0.25" y="0.25" width="159.5" height="103.5" stroke="#243761" stroke-width="0.5"/>
<rect x="56" y="68" width="88" height="6" rx="3" fill="#32456F"/>
<rect x="56" y="82" width="88" height="6" rx="3" fill="#32456F"/>
<path d="M30.3438 71C30.3438 69.3431 31.6869 68 33.3438 68H43.3438C45.0006 68 46.3438 69.3431 46.3438 71C46.3438 72.6569 45.0006 74 43.3438 74H33.3438C31.6869 74 30.3438 72.6569 30.3438 71Z" fill="#32456F"/>
<path d="M30.3438 85C30.3438 83.3431 31.6869 82 33.3438 82H43.3438C45.0006 82 46.3438 83.3431 46.3438 85C46.3438 86.6569 45.0006 88 43.3438 88H33.3438C31.6869 88 30.3438 86.6569 30.3438 85Z" fill="#32456F"/>
<rect x="72" y="24" width="72" height="6" rx="3" fill="#32456F"/>
<rect x="84" y="42.2534" width="48" height="6" rx="3" fill="#32456F"/>
<path d="M61.6522 54.6686L60.2377 43.1827C60.1996 42.8745 60.0502 42.5909 59.8177 42.3852C59.5851 42.1795 59.2854 42.0658 58.9749 42.0656H56.8342C58.5415 39.5759 59.5959 36.6971 59.9008 33.6936C60.2056 30.6901 59.751 27.6581 58.5788 24.8761C57.6591 22.6991 56.3196 20.7245 54.6367 19.0651C52.9539 17.4057 50.9607 16.0941 48.771 15.205C44.3486 13.4095 39.394 13.4443 34.9973 15.3017C30.6005 17.1592 27.1217 20.6872 25.3262 25.1096C23.5306 29.532 23.5654 34.4866 25.4229 38.8833C25.8942 40.0009 26.4788 41.0673 27.1676 42.0656H24.9778C24.6663 42.0656 24.3655 42.1799 24.1326 42.3867C23.8996 42.5935 23.7505 42.8785 23.7136 43.1879L22.3462 54.6743C22.3247 54.8539 22.3412 55.0361 22.3947 55.2089C22.4482 55.3818 22.5374 55.5414 22.6567 55.6775C22.7759 55.8136 22.9224 55.923 23.0867 55.9988C23.251 56.0745 23.4294 56.1149 23.6104 56.1172H30.4857C30.7376 56.1167 30.9838 56.0416 31.193 55.9012L33.3342 54.4668H50.6661L52.8054 55.9012C53.0146 56.0416 53.2608 56.1167 53.5127 56.1172H60.3895C60.5709 56.1149 60.7498 56.0744 60.9145 55.9983C61.0792 55.9221 61.2259 55.8121 61.3452 55.6754C61.4645 55.5387 61.5535 55.3784 61.6066 55.2049C61.6597 55.0314 61.6756 54.8487 61.6532 54.6686H61.6522ZM31.0784 20.9582C33.605 18.4315 36.9295 16.859 40.4854 16.5086C44.0414 16.1582 47.6089 17.0516 50.58 19.0367C53.5511 21.0217 55.742 23.9755 56.7795 27.3947C57.8169 30.814 57.6367 34.4873 56.2695 37.7886C54.9024 41.0899 52.4328 43.815 49.2816 45.4996C46.1305 47.1843 42.4927 47.7242 38.9881 47.0274C35.4835 46.3306 32.3289 44.4402 30.0618 41.6783C27.7947 38.9164 26.5554 35.4539 26.555 31.8806C26.5493 29.8514 26.9461 27.8411 27.7226 25.9663C28.499 24.0914 29.6396 22.3892 31.0784 20.9582Z" fill="#32456F"/>
<path d="M39.7106 28.7055L42.214 26.963L44.7174 28.7055L43.8346 25.7861L46.2646 23.9434L43.2152 23.881L42.214 21L41.2128 23.881L38.1634 23.9434L40.5935 25.7861L39.7106 28.7055ZM45.0746 33.9715L45.5081 35.8237L46.3169 34.1022L48.2119 34.2627L46.8251 32.9616L47.5628 31.2082L45.8965 32.1259L44.4575 30.8822L44.8154 32.7503L43.1876 33.7341L45.0746 33.9715ZM38.1111 34.1022L38.9199 35.8237L39.3534 33.9715L41.2404 33.7341L39.6133 32.7503L39.9705 30.8822L38.5315 32.1259L36.8652 31.2082L37.6029 32.9616L36.2161 34.2627L38.1111 34.1022ZM49.2879 28.3505L50.0364 30.0995L50.5338 28.2634L52.428 28.092L50.8358 27.0516L51.2584 25.1973L49.7765 26.3902L48.1436 25.4151L48.8196 27.1924L47.3878 28.4449L49.2879 28.3505ZM33.8943 28.2525L34.3916 30.0886L35.1401 28.3396L37.0402 28.434L35.6084 27.1816L36.2844 25.4042L34.6515 26.3785L33.1697 25.1864L33.5922 27.0407L32 28.0811L33.8943 28.2525ZM49.5101 37.8348H34.9165C34.3966 37.8348 33.898 38.0414 33.5304 38.409C33.1627 38.7766 32.9562 39.2752 32.9562 39.7952C32.9562 40.3151 33.1627 40.8137 33.5304 41.1813C33.898 41.5489 34.3966 41.7555 34.9165 41.7555H49.5101C50.03 41.7555 50.5286 41.5489 50.8962 41.1813C51.2638 40.8137 51.4704 40.3151 51.4704 39.7952C51.4704 39.2752 51.2638 38.7766 50.8962 38.409C50.5286 38.0414 50.03 37.8348 49.5101 37.8348Z" fill="#32456F"/>
<rect x="64" y="36" width="32" height="32" rx="16" fill="#1CE7C2"/>
<path d="M75.2 47.125C75.5033 47.125 76.0087 46.9322 76.3367 46.6895L77.3549 45.9355C77.6793 45.695 78.2655 45.5 78.6691 45.5H81.3309C81.7324 45.5 82.3178 45.6928 82.6451 45.9355L83.6633 46.6895C83.9884 46.93 84.5767 47.125 84.8 47.125H86.4C87.2815 47.125 88 47.8024 88 48.6417V56.9833C88 57.824 87.2815 58.5 86.4 58.5H73.6C72.7127 58.5 72 57.8226 72 56.9833V48.6417C72 47.801 72.7156 47.125 73.6 47.125H75.2ZM80 55.6111C80.4775 55.6111 80.9504 55.5177 81.3916 55.3362C81.8328 55.1548 82.2336 54.8888 82.5713 54.5534C82.909 54.2181 83.1768 53.82 83.3596 53.3819C83.5423 52.9438 83.6364 52.4742 83.6364 52C83.6364 51.5258 83.5423 51.0562 83.3596 50.6181C83.1768 50.18 82.909 49.7819 82.5713 49.4466C82.2336 49.1112 81.8328 48.8452 81.3916 48.6638C80.9504 48.4823 80.4775 48.3889 80 48.3889C79.0356 48.3889 78.1107 48.7693 77.4287 49.4466C76.7468 50.1238 76.3636 51.0423 76.3636 52C76.3636 52.9577 76.7468 53.8762 77.4287 54.5534C78.1107 55.2307 79.0356 55.6111 80 55.6111ZM80 54.1667C79.4213 54.1667 78.8664 53.9384 78.4572 53.5321C78.0481 53.1257 77.8182 52.5746 77.8182 52C77.8182 51.4254 78.0481 50.8743 78.4572 50.4679C78.8664 50.0616 79.4213 49.8333 80 49.8333C80.5787 49.8333 81.1336 50.0616 81.5428 50.4679C81.9519 50.8743 82.1818 51.4254 82.1818 52C82.1818 52.5746 81.9519 53.1257 81.5428 53.5321C81.1336 53.9384 80.5787 54.1667 80 54.1667Z" fill="#051537"/>
</svg>
