<svg width="160" height="104" viewBox="0 0 160 104" fill="none" xmlns="http://www.w3.org/2000/svg">
<rect x="0.25" y="0.25" width="159.5" height="103.5" fill="#091A3D"/>
<rect x="0.25" y="0.25" width="159.5" height="103.5" stroke="#243761" stroke-width="0.5"/>
<path d="M47.4813 32.352C47.2435 32.3159 47.0062 32.352 46.7781 32.4246C46.8551 31.0017 46.8919 29.4795 46.7901 28.3503C46.6174 26.5221 45.4699 24.5848 44.3808 23.8039C42.647 22.5688 39.9662 22 38.9542 22C37.9482 22 35.2614 22.5688 33.5306 23.8039C32.4385 24.5848 31.294 26.5221 31.1243 28.3503C31.0195 29.4795 31.0563 31.0017 31.1333 32.4246C30.9052 32.352 30.6679 32.3154 30.4271 32.352C29.73 32.4548 29.2484 33.1363 29.5909 34.7949C29.9304 36.4565 30.4241 37.5586 31.2573 37.4948C31.3066 37.4919 31.3343 37.4736 31.3807 37.4647C31.6557 39.5745 33.7809 42.913 35.6225 44.1055C36.0915 44.75 37.4088 45.2892 38.9547 45.2437C40.5006 45.2892 41.8239 44.7505 42.2868 44.1055C44.1345 42.913 46.2542 39.5745 46.5287 37.4647C46.5751 37.4736 46.6028 37.4919 46.6521 37.4948C47.4883 37.5586 47.982 36.4565 48.3184 34.7949C48.663 33.1358 48.1819 32.4548 47.4813 32.352ZM53.1703 49.8958C50.0145 48.346 45.2724 46.7966 45.2724 46.7966C44.7077 50.223 43.1996 54.2005 41.095 57.663C41.0009 55.6862 40.8147 53.7147 40.5369 51.7546C41.0703 50.9312 41.4194 50.2532 41.6446 49.7145C41.9095 49.0576 41.435 48.3464 40.7313 48.3464H37.1836C36.4738 48.3464 36.0079 49.067 36.2703 49.7145C36.4955 50.2532 36.8441 50.9312 37.378 51.7546C37.0692 53.8975 36.906 55.9194 36.8164 57.663C34.7123 54.2064 33.2006 50.223 32.6365 46.7966C32.6365 46.7966 27.8979 48.3464 24.7385 49.8958C21.5827 51.4457 20 53.5279 20 57.6447V59.9695C20.0001 60.4786 20.1024 60.9826 20.301 61.4529C20.4997 61.9231 20.7909 62.3503 21.1579 62.7101C21.525 63.0699 21.9607 63.3552 22.4401 63.5497C22.9196 63.7442 23.4334 63.8441 23.9522 63.8437H53.9571C54.476 63.8441 54.9898 63.7442 55.4693 63.5497C55.9487 63.3552 56.3844 63.0699 56.7514 62.7101C57.1185 62.3503 57.4097 61.9231 57.6083 61.4529C57.807 60.9826 57.9093 60.4786 57.9094 59.9695V57.6447C57.9089 53.5279 56.3262 51.4452 53.1703 49.8958Z" fill="#32456F"/>
<rect x="91.8125" y="22.7969" width="48" height="6" rx="3" fill="#32456F"/>
<rect x="91.8125" y="39.9219" width="48" height="6" rx="3" fill="#32456F"/>
<rect x="91.8125" y="57.7969" width="48" height="6" rx="3" fill="#32456F"/>
<path d="M20 79.3984C20 77.7416 21.3431 76.3984 23 76.3984H137C138.657 76.3984 140 77.7416 140 79.3984C140 81.0553 138.657 82.3984 137 82.3984H23C21.3431 82.3984 20 81.0553 20 79.3984Z" fill="#32456F"/>
<path d="M68 25.7969C68 24.14 69.3431 22.7969 71 22.7969H81C82.6569 22.7969 84 24.14 84 25.7969C84 27.4537 82.6569 28.7969 81 28.7969H71C69.3431 28.7969 68 27.4537 68 25.7969Z" fill="#32456F"/>
<path d="M68 42.9219C68 41.265 69.3431 39.9219 71 39.9219H81C82.6569 39.9219 84 41.265 84 42.9219C84 44.5787 82.6569 45.9219 81 45.9219H71C69.3431 45.9219 68 44.5787 68 42.9219Z" fill="#32456F"/>
<path d="M68 60.7969C68 59.14 69.3431 57.7969 71 57.7969H81C82.6569 57.7969 84 59.14 84 60.7969C84 62.4537 82.6569 63.7969 81 63.7969H71C69.3431 63.7969 68 62.4537 68 60.7969Z" fill="#32456F"/>
<rect x="64" y="36" width="32" height="32" rx="16" fill="#1CE7C2"/>
<path d="M75.2 47.125C75.5033 47.125 76.0087 46.9322 76.3367 46.6895L77.3549 45.9355C77.6793 45.695 78.2655 45.5 78.6691 45.5H81.3309C81.7324 45.5 82.3178 45.6928 82.6451 45.9355L83.6633 46.6895C83.9884 46.93 84.5767 47.125 84.8 47.125H86.4C87.2815 47.125 88 47.8024 88 48.6417V56.9833C88 57.824 87.2815 58.5 86.4 58.5H73.6C72.7127 58.5 72 57.8226 72 56.9833V48.6417C72 47.801 72.7156 47.125 73.6 47.125H75.2ZM80 55.6111C80.4775 55.6111 80.9504 55.5177 81.3916 55.3362C81.8328 55.1548 82.2336 54.8888 82.5713 54.5534C82.909 54.2181 83.1768 53.82 83.3596 53.3819C83.5423 52.9438 83.6364 52.4742 83.6364 52C83.6364 51.5258 83.5423 51.0562 83.3596 50.6181C83.1768 50.18 82.909 49.7819 82.5713 49.4466C82.2336 49.1112 81.8328 48.8452 81.3916 48.6638C80.9504 48.4823 80.4775 48.3889 80 48.3889C79.0356 48.3889 78.1107 48.7693 77.4287 49.4466C76.7468 50.1238 76.3636 51.0423 76.3636 52C76.3636 52.9577 76.7468 53.8762 77.4287 54.5534C78.1107 55.2307 79.0356 55.6111 80 55.6111ZM80 54.1667C79.4213 54.1667 78.8664 53.9384 78.4572 53.5321C78.0481 53.1257 77.8182 52.5746 77.8182 52C77.8182 51.4254 78.0481 50.8743 78.4572 50.4679C78.8664 50.0616 79.4213 49.8333 80 49.8333C80.5787 49.8333 81.1336 50.0616 81.5428 50.4679C81.9519 50.8743 82.1818 51.4254 82.1818 52C82.1818 52.5746 81.9519 53.1257 81.5428 53.5321C81.1336 53.9384 80.5787 54.1667 80 54.1667Z" fill="#051537"/>
</svg>
