<svg width="160" height="104" viewBox="0 0 160 104" fill="none" xmlns="http://www.w3.org/2000/svg">
<rect x="0.25" y="0.25" width="159.5" height="103.5" fill="#091A3D"/>
<rect x="0.25" y="0.25" width="159.5" height="103.5" stroke="#243761" stroke-width="0.5"/>
<path d="M93.5 27.178C93.1514 27.1252 92.8035 27.1781 92.4689 27.2846C92.5819 25.1984 92.6359 22.9665 92.4867 21.3107C92.2333 18.6303 90.5509 15.7898 88.9541 14.6449C86.412 12.834 82.4814 12 80.9976 12C79.5227 12 75.5832 12.834 73.0455 14.6449C71.4443 15.7898 69.7663 18.6303 69.5174 21.3107C69.3637 22.9665 69.4177 25.1984 69.5307 27.2846C69.1961 27.1781 68.8482 27.1244 68.4952 27.178C67.473 27.3288 66.767 28.328 67.2692 30.7599C67.767 33.1961 68.4908 34.812 69.7123 34.7185C69.7847 34.7142 69.8253 34.6874 69.8933 34.6743C70.2965 37.7678 73.4125 42.6626 76.1127 44.4111C76.8003 45.3561 78.7317 46.1466 80.9983 46.08C83.265 46.1466 85.2052 45.3568 85.8839 44.4111C88.593 42.6626 91.7008 37.7678 92.1033 34.6743C92.1713 34.6874 92.2119 34.7142 92.2843 34.7185C93.5103 34.812 94.2341 33.1961 94.7275 30.7599C95.2326 28.3273 94.5273 27.3288 93.5 27.178Z" fill="#32456F"/>
<ellipse cx="56" cy="71.3745" rx="3" ry="6" fill="#32456F"/>
<ellipse cx="105" cy="71.3745" rx="3" ry="6" fill="#32456F"/>
<path fill-rule="evenodd" clip-rule="evenodd" d="M88.9884 48.3667C88.9884 48.3667 94.9856 50.3262 98.9767 52.2863C100.68 53.1225 102.021 54.0816 102.999 55.3111H87.0425C87.9591 52.9343 88.6268 50.5611 88.9884 48.3667ZM82.4059 55.3111C82.4052 55.3063 82.4045 55.3015 82.4039 55.2967C82.5365 55.092 82.6832 54.8688 82.8354 54.6373C83.4573 53.6911 84.1716 52.6042 84.4004 52.0569C84.7355 51.2262 84.1354 50.3268 83.2454 50.3268H78.7587C77.8611 50.3268 77.2718 51.2381 77.6037 52.0569C77.8885 52.7382 78.8411 54.2554 79.5163 55.2967C79.5156 55.3015 79.5149 55.3063 79.5142 55.3111H82.4059ZM74.9545 55.3111C74.0375 52.9343 73.3692 50.5603 73.008 48.3667C73.008 48.3667 67.0153 50.3268 63.0198 52.2863C61.3166 53.1227 59.9757 54.0818 58.998 55.3111H74.9545Z" fill="#32456F"/>
<path d="M85.4616 86.3438C85.4616 86.3438 82.821 58.3669 82.5426 55.6314C83.0773 54.4823 83.4272 53.536 83.6529 52.7842C83.9185 51.8675 83.4429 50.875 82.7375 50.875H79.1813C78.4698 50.875 78.0028 51.8806 78.2658 52.7842C78.4915 53.536 78.841 54.4823 79.3762 55.6314C79.0667 58.6221 76.3915 86.3438 76.3915 86.3438L64 86.9682C64 86.9682 64.1026 88.631 64.3018 89.2872C64.5009 89.9435 64.7928 90.5397 65.1607 91.0418C65.5286 91.5439 65.9654 91.9421 66.446 92.2136C66.9266 92.4851 67.4416 92.6245 67.9617 92.624H94.0383C94.5584 92.6245 95.0735 92.4851 95.5541 92.2136C96.0347 91.9421 96.4714 91.5439 96.8393 91.0418C97.2072 90.5397 97.4991 89.9435 97.6982 89.2872C97.8974 88.631 98 86.937 98 86.937L85.4616 86.3438Z" fill="#32456F"/>
<rect x="56.25" y="55.25" width="48.7308" height="31.5" rx="3.75" fill="#32456F" stroke="#091A3D" stroke-width="0.5"/>
<path d="M71.4565 65.31C71.3833 65.2989 71.3103 65.31 71.2401 65.3323C71.2638 64.8945 71.2752 64.4262 71.2439 64.0787C71.1907 63.5162 70.8376 62.9201 70.5025 62.6798C69.969 62.2998 69.1442 62.1248 68.8328 62.1248C68.5233 62.1248 67.6965 62.2998 67.164 62.6798C66.828 62.9201 66.4758 63.5162 66.4236 64.0787C66.3913 64.4262 66.4027 64.8945 66.4264 65.3323C66.3562 65.31 66.2832 65.2987 66.2091 65.31C65.9946 65.3416 65.8464 65.5513 65.9518 66.0616C66.0563 66.5729 66.2081 66.912 66.4645 66.8924C66.4797 66.8915 66.4882 66.8859 66.5025 66.8831C66.5871 67.5323 67.241 68.5595 67.8077 68.9265C67.952 69.1248 68.3573 69.2907 68.8329 69.2767C69.3086 69.2907 69.7158 69.1249 69.8582 68.9265C70.4267 68.5595 71.0789 67.5323 71.1634 66.8831C71.1777 66.8859 71.1862 66.8915 71.2014 66.8924C71.4587 66.912 71.6106 66.5729 71.7141 66.0616C71.8201 65.5512 71.6721 65.3416 71.4565 65.31ZM73.207 70.7081C72.236 70.2312 70.7769 69.7545 70.7769 69.7545C70.6031 70.8088 70.1391 72.0326 69.4915 73.098C69.4625 72.4897 69.4052 71.8831 69.3198 71.28C69.4839 71.0267 69.5913 70.818 69.6606 70.6523C69.7421 70.4502 69.5961 70.2314 69.3796 70.2314H68.288C68.0696 70.2314 67.9262 70.4531 68.007 70.6523C68.0763 70.818 68.1835 71.0267 68.3478 71.28C68.2528 71.9394 68.2026 72.5615 68.175 73.098C67.5276 72.0344 67.0625 70.8088 66.8889 69.7545C66.8889 69.7545 65.4309 70.2314 64.4587 70.7081C63.4877 71.185 63.0007 71.8256 63.0007 73.0924V73.8077C63.0008 73.9643 63.0322 74.1194 63.0934 74.2641C63.1545 74.4088 63.2441 74.5402 63.357 74.6509C63.47 74.7616 63.604 74.8494 63.7515 74.9093C63.8991 74.9691 64.0572 74.9999 64.2168 74.9998H73.4491C73.6087 74.9999 73.7668 74.9691 73.9144 74.9093C74.0619 74.8494 74.1959 74.7616 74.3089 74.6509C74.4218 74.5402 74.5114 74.4088 74.5725 74.2641C74.6337 74.1194 74.6651 73.9643 74.6652 73.8077V73.0924C74.665 71.8256 74.178 71.1848 73.207 70.7081Z" fill="#091A3D"/>
<rect x="84.3269" y="62.3699" width="14.7692" height="1.84615" rx="0.923077" fill="#091A3D"/>
<rect x="84.3269" y="67.6394" width="14.7692" height="1.84615" rx="0.923077" fill="#091A3D"/>
<rect x="84.3269" y="73.1394" width="14.7692" height="1.84615" rx="0.923077" fill="#091A3D"/>
<path d="M63.0007 79.6028C63.0007 79.0505 63.4484 78.6028 64.0007 78.6028H98.0007C98.553 78.6028 99.0007 79.0505 99.0007 79.6028C99.0007 80.1551 98.553 80.6028 98.0007 80.6028H64.0007C63.4484 80.6028 63.0007 80.1551 63.0007 79.6028Z" fill="#091A3D"/>
<path d="M77.0007 63.293C77.0007 62.7831 77.414 62.3699 77.9238 62.3699H81.0007C81.5105 62.3699 81.9238 62.7831 81.9238 63.293C81.9238 63.8028 81.5105 64.216 81.0007 64.216H77.9238C77.414 64.216 77.0007 63.8028 77.0007 63.293Z" fill="#091A3D"/>
<path d="M77.0007 68.5625C77.0007 68.0527 77.414 67.6394 77.9238 67.6394H81.0007C81.5105 67.6394 81.9238 68.0527 81.9238 68.5625C81.9238 69.0723 81.5105 69.4856 81.0007 69.4856H77.9238C77.414 69.4856 77.0007 69.0723 77.0007 68.5625Z" fill="#091A3D"/>
<path d="M77.0007 74.0625C77.0007 73.5527 77.414 73.1394 77.9238 73.1394H81.0007C81.5105 73.1394 81.9238 73.5527 81.9238 74.0625C81.9238 74.5723 81.5105 74.9856 81.0007 74.9856H77.9238C77.414 74.9856 77.0007 74.5723 77.0007 74.0625Z" fill="#091A3D"/>
<rect x="64" y="36" width="32" height="32" rx="16" fill="#1CE7C2"/>
<path d="M75.2 47.125C75.5033 47.125 76.0087 46.9322 76.3367 46.6895L77.3549 45.9355C77.6793 45.695 78.2655 45.5 78.6691 45.5H81.3309C81.7324 45.5 82.3178 45.6928 82.6451 45.9355L83.6633 46.6895C83.9884 46.93 84.5767 47.125 84.8 47.125H86.4C87.2815 47.125 88 47.8024 88 48.6417V56.9833C88 57.824 87.2815 58.5 86.4 58.5H73.6C72.7127 58.5 72 57.8226 72 56.9833V48.6417C72 47.801 72.7156 47.125 73.6 47.125H75.2ZM80 55.6111C80.4775 55.6111 80.9504 55.5177 81.3916 55.3362C81.8328 55.1548 82.2336 54.8888 82.5713 54.5534C82.909 54.2181 83.1768 53.82 83.3596 53.3819C83.5423 52.9438 83.6364 52.4742 83.6364 52C83.6364 51.5258 83.5423 51.0562 83.3596 50.6181C83.1768 50.18 82.909 49.7819 82.5713 49.4466C82.2336 49.1112 81.8328 48.8452 81.3916 48.6638C80.9504 48.4823 80.4775 48.3889 80 48.3889C79.0356 48.3889 78.1107 48.7693 77.4287 49.4466C76.7468 50.1238 76.3636 51.0423 76.3636 52C76.3636 52.9577 76.7468 53.8762 77.4287 54.5534C78.1107 55.2307 79.0356 55.6111 80 55.6111ZM80 54.1667C79.4213 54.1667 78.8664 53.9384 78.4572 53.5321C78.0481 53.1257 77.8182 52.5746 77.8182 52C77.8182 51.4254 78.0481 50.8743 78.4572 50.4679C78.8664 50.0616 79.4213 49.8333 80 49.8333C80.5787 49.8333 81.1336 50.0616 81.5428 50.4679C81.9519 50.8743 82.1818 51.4254 82.1818 52C82.1818 52.5746 81.9519 53.1257 81.5428 53.5321C81.1336 53.9384 80.5787 54.1667 80 54.1667Z" fill="#051537"/>
</svg>
