<svg width="98" height="32" viewBox="0 0 98 32" fill="none" xmlns="http://www.w3.org/2000/svg">
<path d="M57.1972 21.2471C57.1972 22.3262 57.1972 23.3429 57.1972 24.3438C57.1972 24.9225 57.1503 24.9694 56.5716 24.9694C55.0545 24.9694 53.5218 24.9694 52.0047 24.9694C51.5042 24.9694 51.426 24.8912 51.426 24.3751C51.426 21.9665 51.426 19.5423 51.426 17.1337C51.426 16.4299 51.4572 16.3986 52.1454 16.3986C56.5247 16.3986 60.9196 16.3986 65.2989 16.3986C65.4866 16.3986 65.6899 16.3986 65.8776 16.3829C66.5345 16.3204 66.9724 15.8199 66.9724 15.1474C66.9724 14.4905 66.5345 14.0369 65.8619 13.9743C65.6743 13.9587 65.4709 13.9587 65.2832 13.9587C60.9509 13.9587 56.6185 13.9587 52.2862 13.9587C52.1767 13.9587 52.0672 13.9743 51.9734 13.9587C51.8326 13.9118 51.6606 13.8649 51.598 13.771C51.5511 13.6772 51.6136 13.4738 51.6918 13.38C52.599 12.2226 53.553 11.0965 54.3976 9.90786C54.8825 9.21969 55.4299 8.98509 56.2744 9.00073C59.0271 9.06329 61.7955 9.03201 64.5482 9.01637C66.2217 9.01637 67.8326 9.21969 69.381 9.9235C72.7124 11.4406 73.8698 15.5227 71.774 18.4475C70.8512 19.73 69.5218 20.4181 68.0359 20.8404C66.8786 21.1689 65.7055 21.2471 64.5169 21.2471C62.2647 21.2471 60.0125 21.2471 57.7603 21.2471C57.5882 21.2471 57.4162 21.2471 57.1972 21.2471Z" fill="var(--jp-primary-color)"/>
<path d="M89.4319 9.01636C91.4025 9.01636 93.3888 9.01636 95.3595 9.01636C95.5316 9.01636 95.7818 9.07892 95.8444 9.1884C95.9069 9.29788 95.8131 9.54813 95.7036 9.67325C94.687 11.0183 93.6704 12.3634 92.6225 13.7084C92.513 13.8492 92.2784 13.943 92.1063 13.943C89.6665 13.9587 87.2422 13.943 84.8023 13.9587C84.1298 13.9587 83.4416 14.0212 82.7847 14.162C81.6586 14.4123 80.9705 15.163 80.8141 16.2109C80.4856 18.4474 81.6586 19.902 83.9421 20.1053C84.2862 20.1366 84.6147 20.1366 84.9587 20.1366C88.4152 20.1366 91.8874 20.1366 95.3439 20.1522C95.5159 20.1522 95.7662 20.2148 95.8287 20.3243C95.8913 20.4338 95.7818 20.684 95.688 20.8091C94.687 22.1229 93.6704 23.4211 92.6381 24.7192C92.5286 24.8443 92.3253 24.9694 92.1689 24.9694C89.5257 24.9851 86.8825 25.0007 84.2393 24.9538C81.8463 24.9225 79.6567 24.2187 77.7642 22.7016C73.9323 19.6205 73.8698 13.5208 78.4211 10.6586C80.3761 9.423 82.5501 9.01636 84.8336 9.01636C86.382 9.01636 87.9148 9.01636 89.4319 9.01636Z" fill="var(--jp-primary-color)"/>
<path d="M48.5325 14.1307C48.5325 15.5227 48.5794 16.9147 48.5169 18.2911C48.3761 21.2627 46.7965 23.1865 44.0281 24.1718C42.3859 24.7661 40.6655 24.9382 38.9294 24.9538C36.8805 24.9695 34.8473 24.9695 32.7984 24.9538C32.642 24.9538 32.4387 24.8756 32.3605 24.7505C32.3136 24.6723 32.4074 24.4533 32.4856 24.3282C33.5022 23.0301 34.5345 21.7476 35.5511 20.4494C35.7388 20.2148 35.9265 20.121 36.2393 20.121C37.6313 20.1053 39.0232 20.074 40.4152 20.0115C40.7749 19.9958 41.1347 19.902 41.4788 19.7925C42.3859 19.511 42.7143 19.0418 42.7143 18.1034C42.7143 15.9294 42.7143 13.771 42.7143 11.597C42.7143 10.8932 42.73 10.1894 42.7143 9.50122C42.7143 9.15714 42.8707 9.00073 43.2148 9.00073C44.8258 9.00073 46.4367 9.00073 48.0477 9.00073C48.423 9.00073 48.5482 9.17278 48.5482 9.5325C48.5482 11.0652 48.5482 12.598 48.5482 14.1307C48.5638 14.1307 48.5482 14.1307 48.5325 14.1307Z" fill="var(--jp-primary-color)"/>
<path fill-rule="evenodd" clip-rule="evenodd" d="M6.10435 23.0019V21.5931V20.6461V19.6992L8.16039 18.5213L10.2164 17.3357L17.3043 13.2554L19.3604 12.0775L21.4087 10.8919L23.4647 9.71405L25.5208 8.52846L20.2647 5.51059L14.1739 2L8.08309 5.50289L2 8.99808V13.7097L4.04831 12.5318C8.14493 10.176 7.81256 10.3838 14.1739 6.72697V9.08276L10.5797 11.1537L8.16812 12.5395L6.11208 13.7173L4.05604 14.9029L2 16.0808V22.0473V22.9942L2.81932 23.4715L6.10435 25.3577V23.0019Z" fill="var(--adm-color-primary)"/>
<path fill-rule="evenodd" clip-rule="evenodd" d="M18.1237 14.672L11.0358 18.7523L8.98745 19.9302L14.1739 22.9095L19.515 19.8378L20.1797 19.4528L22.2358 18.2749V20.6384L14.1739 25.273L8.1604 21.8163V24.1798V26.5433L14.1739 30L20.257 26.4971L26.3478 23.0019V16.0038V15.9115V9.94501L24.2918 11.1306L22.2358 12.3085L20.1797 13.4941L18.1237 14.672Z" fill="var(--adm-color-primary)"/>
</svg>
