<svg width="25" height="28" viewBox="0 0 25 28" fill="none" xmlns="http://www.w3.org/2000/svg">
<path fill-rule="evenodd" clip-rule="evenodd" d="M4.10435 21.0019V19.5931V18.6461V17.6992L6.16039 16.5213L8.21642 15.3357L15.3043 11.2554L17.3604 10.0775L19.4087 8.89194L21.4647 7.71405L23.5208 6.52846L18.2647 3.51059L12.1739 0L6.08309 3.50289L0 6.99808V11.7097L2.04831 10.5318C6.14493 8.17597 5.81256 8.38383 12.1739 4.72697V7.08276L8.57971 9.1537L6.16812 10.5395L4.11208 11.7173L2.05604 12.9029L0 14.0808V20.0473V20.9942L0.819324 21.4715L4.10435 23.3577V21.0019Z" fill="#0066FF"/>
<path fill-rule="evenodd" clip-rule="evenodd" d="M16.1237 12.672L9.03576 16.7523L6.98745 17.9302L12.1739 20.9095L17.515 17.8378L18.1797 17.4528L20.2358 16.2749V18.6384L12.1739 23.273L6.1604 19.8163V22.1798V24.5433L12.1739 28L18.257 24.4971L24.3478 21.0019V14.0038V13.9115V7.94501L22.2918 9.1306L20.2358 10.3085L18.1797 11.4941L16.1237 12.672Z" fill="#0066FF"/>
</svg>
