<svg width="24" height="24" viewBox="0 0 24 24" fill="none" xmlns="http://www.w3.org/2000/svg">
<path d="M17 3H17.502C18.7134 3 19.319 3 19.7834 3.232C20.2095 3.44495 20.5551 3.79048 20.768 4.21665C21 4.68096 21 5.28664 21 6.498V7M17 19H17.502C18.7134 19 19.319 19 19.7834 18.768C20.2095 18.5551 20.5551 18.2095 20.768 17.7834C21 17.319 21 16.7134 21 15.502V15M7 3H6.498C5.28664 3 4.68096 3 4.21665 3.232C3.79048 3.44495 3.44495 3.79048 3.232 4.21665C3 4.68096 3 5.28664 3 6.498V7M7 19H6.498C5.28664 19 4.68096 19 4.21665 18.768C3.79048 18.5551 3.44495 18.2095 3.232 17.7834C3 17.319 3 16.7134 3 15.502V15" stroke="#1CE7C2" stroke-width="1.5" stroke-linecap="round"/>
<path d="M7.42034 15.9271C7.86614 15.2837 8.51868 14.7337 9.32517 14.3457C10.1317 13.9577 11.0547 13.75 12 13.75C12.9453 13.75 13.8683 13.9577 14.6748 14.3457C15.4813 14.7337 16.1339 15.2837 16.5797 15.9271" stroke="#1CE7C2" stroke-width="1.5" stroke-linecap="round"/>
<circle cx="12" cy="8" r="3" stroke="#1CE7C2" stroke-width="1.5" stroke-linecap="round"/>
</svg>
