<svg width="24" height="24" viewBox="0 0 24 24" fill="none" xmlns="http://www.w3.org/2000/svg">
<path fill-rule="evenodd" clip-rule="evenodd" d="M16 3H3V21H8.75463C7.65672 19.6304 7 17.8919 7 16C7 11.5817 10.5817 8 15 8C16.4571 8 17.8233 8.38958 19 9.07026V7L16 3Z" fill="#8C9AB8"/>
<path fill-rule="evenodd" clip-rule="evenodd" d="M15.0001 21.8332C18.2217 21.8332 20.8334 19.2215 20.8334 15.9998C20.8334 12.7782 18.2217 10.1665 15.0001 10.1665C11.7784 10.1665 9.16675 12.7782 9.16675 15.9998C9.16675 19.2215 11.7784 21.8332 15.0001 21.8332ZM15.2192 14.4088V13.6588H13.7192V14.4088V16.53V16.9935L14.1337 17.2008L16.255 18.2614L16.9258 18.5968L17.5966 17.2552L16.9258 16.9198L15.2192 16.0665V14.4088Z" fill="#8C9AB8"/>
</svg>
