<svg width="16" height="16" viewBox="0 0 16 16" fill="none" xmlns="http://www.w3.org/2000/svg">
<path fill-rule="evenodd" clip-rule="evenodd" d="M7.99998 12.7738C7.12696 12.7738 6.2828 12.5676 5.49743 12.2076L7.51645 10.3839C7.67345 10.4125 7.83505 10.4275 7.99998 10.4275C9.48898 10.4275 10.7073 9.20921 10.7073 7.72021C10.7073 7.64926 10.7045 7.57893 10.6991 7.50931L13.1759 5.27221C13.7738 5.95624 14.2702 6.73073 14.6328 7.53972C14.6779 7.67509 14.6779 7.76533 14.6328 7.90069C13.4597 10.5177 10.8877 12.7738 7.99998 12.7738ZM7.99998 5.01293C8.42306 5.01293 8.82428 5.11129 9.1819 5.28626L11.1077 3.54686C10.1579 2.99514 9.10192 2.66663 7.99998 2.66663C5.11222 2.66663 2.54031 4.92269 1.36715 7.53972C1.32203 7.67509 1.32203 7.76533 1.36715 7.90069C1.81487 8.89945 2.46632 9.84563 3.26129 10.6339L5.45809 8.6497C5.35115 8.3595 5.2927 8.04635 5.2927 7.72021C5.2927 6.23121 6.51098 5.01293 7.99998 5.01293ZM12.1024 3.38668L3.7691 11.0533L4.89753 12.2799L13.2309 4.61323L12.1024 3.38668Z" fill="var(--jp-form-icon-color)"/>
</svg>
