<svg width="16" height="16" viewBox="0 0 16 16" fill="none" xmlns="http://www.w3.org/2000/svg">
<path fill-rule="evenodd" clip-rule="evenodd" d="M5.06406 7.99868C5.06406 9.33168 6.228 10.4163 7.66504 10.4163C9.09557 10.4163 10.2595 9.33168 10.2595 7.99868C10.2595 6.65962 9.09557 5.57504 7.66504 5.57504C6.228 5.57504 5.06406 6.65962 5.06406 7.99868ZM11.4884 4.27847C12.6264 5.1025 13.5952 6.30826 14.291 7.81698C14.343 7.9321 14.343 8.0654 14.291 8.17446C12.8995 11.1919 10.422 12.9975 7.665 12.9975H7.6585C4.90797 12.9975 2.43054 11.1919 1.03901 8.17446C0.986995 8.0654 0.986995 7.9321 1.03901 7.81698C2.43054 4.79955 4.90797 3 7.6585 3H7.665C9.04352 3 10.3505 3.44837 11.4884 4.27847ZM7.66834 9.6648C8.58327 9.6648 9.33125 8.91682 9.33125 8.00189C9.33125 7.08027 8.58327 6.3323 7.66834 6.3323C7.5882 6.3323 7.50806 6.33897 7.4346 6.35233C7.40788 7.08695 6.80683 7.67465 6.06553 7.67465H6.03214C6.01211 7.7815 5.99875 7.88835 5.99875 8.00189C5.99875 8.91682 6.74673 9.6648 7.66834 9.6648Z" fill="var(--jp-form-icon-color)"/>
</svg>
