<svg width="32" height="32" viewBox="0 0 32 32" fill="none" xmlns="http://www.w3.org/2000/svg">
<rect width="32" height="32" rx="16" fill="var(--jp-icon-background-color)"/>
<path d="M16.8 10.6C16.8 11.4837 14.8301 12.2 12.4 12.2C9.96995 12.2 8 11.4837 8 10.6M16.8 10.6C16.8 9.71634 14.8301 9 12.4 9C9.96995 9 8 9.71634 8 10.6M16.8 10.6V11.8M8 10.6V20.2C8 21.0837 9.96995 21.8 12.4 21.8M12.4 15.4C12.2652 15.4 12.1317 15.3978 12 15.3935C9.7574 15.32 8 14.6346 8 13.8M12.4 18.6C9.96995 18.6 8 17.8837 8 17M24 15.8C24 16.6837 22.0301 17.4 19.6 17.4C17.1699 17.4 15.2 16.6837 15.2 15.8M24 15.8C24 14.9163 22.0301 14.2 19.6 14.2C17.1699 14.2 15.2 14.9163 15.2 15.8M24 15.8V21.8C24 22.6837 22.0301 23.4 19.6 23.4C17.1699 23.4 15.2 22.6837 15.2 21.8V15.8M24 18.8C24 19.6837 22.0301 20.4 19.6 20.4C17.1699 20.4 15.2 19.6837 15.2 18.8" stroke="var(--jp-icon-color)" stroke-width="1.5" stroke-linecap="round" stroke-linejoin="round"/>
</svg>
