<svg width="32" height="32" viewBox="0 0 32 32" fill="none" xmlns="http://www.w3.org/2000/svg">
<rect width="32" height="32" rx="16" fill="var(--jp-icon-background-color)"/>
<path d="M12 13.9528L8 15.9528L15.7138 19.8097C15.8187 19.8622 15.8712 19.8884 15.9262 19.8987C15.975 19.9079 16.025 19.9079 16.0738 19.8987C16.1288 19.8884 16.1813 19.8622 16.2862 19.8097L24 15.9528L20 13.9528M12 17.9528L8 19.9528L15.7138 23.8097C15.8187 23.8622 15.8712 23.8884 15.9262 23.8987C15.975 23.9079 16.025 23.9079 16.0738 23.8987C16.1288 23.8884 16.1813 23.8622 16.2862 23.8097L24 19.9528L20 17.9528M8 11.9528L15.7138 8.09589C15.8187 8.04342 15.8712 8.01719 15.9262 8.00686C15.975 7.99771 16.025 7.99771 16.0738 8.00686C16.1288 8.01719 16.1813 8.04342 16.2862 8.09589L24 11.9528L16.2862 15.8097C16.1813 15.8622 16.1288 15.8884 16.0738 15.8987C16.025 15.9079 15.975 15.9079 15.9262 15.8987C15.8712 15.8884 15.8187 15.8622 15.7138 15.8097L8 11.9528Z" stroke="var(--jp-icon-color)" stroke-width="1.5" stroke-linecap="round" stroke-linejoin="round"/>
</svg>
