<svg width="32" height="32" viewBox="0 0 32 32" fill="none" xmlns="http://www.w3.org/2000/svg">
<rect width="32" height="32" rx="16" fill="var(--jp-icon-background-color)"/>
<path d="M24 23.4V21.8C24 20.3089 22.9802 19.056 21.6 18.7008M18.8 9.23261C19.9727 9.70732 20.8 10.857 20.8 12.2C20.8 13.543 19.9727 14.6927 18.8 15.1674M20 23.4C20 21.909 20 21.1635 19.7564 20.5754C19.4316 19.7913 18.8087 19.1684 18.0246 18.8436C17.4365 18.6 16.691 18.6 15.2 18.6H12.8C11.309 18.6 10.5635 18.6 9.97541 18.8436C9.19132 19.1684 8.56837 19.7913 8.24359 20.5754C8 21.1635 8 21.909 8 23.4M17.2 12.2C17.2 13.9673 15.7673 15.4 14 15.4C12.2327 15.4 10.8 13.9673 10.8 12.2C10.8 10.4327 12.2327 9 14 9C15.7673 9 17.2 10.4327 17.2 12.2Z" stroke="var(--jp-icon-color)" stroke-width="1.5" stroke-linecap="round" stroke-linejoin="round"/>
</svg>
